<?xml version="1.0" encoding="utf-8"?>
<!-- Generator: Adobe Illustrator 25.2.3, SVG Export Plug-In . SVG Version: 6.00 Build 0)  -->
<svg version="1.1" id="Livello_1" xmlns="http://www.w3.org/2000/svg" xmlns:xlink="http://www.w3.org/1999/xlink" x="0px" y="0px"
	 viewBox="0 0 4096 2048" style="enable-background:new 0 0 4096 2048;" xml:space="preserve">
<style type="text/css">
	.st0{fill:none;}
	.st1{fill:#727272;}
	.st2{fill:#A5A4A4;}
	.st3{fill:#CECDCE;}
	.st4{fill:#99C0E6;}
	.st5{fill:#27334E;}
	.st6{fill:#E0EFF9;}
	.st7{fill:#FFFFFF;}
	.st8{fill:#1D1D1B;}
	.st9{fill:#A0BFE2;}
	.st10{fill:#BCBBBB;}
	.st11{fill:url(#SVGID_1_);}
	.st12{fill:url(#SVGID_2_);}
	.st13{fill:#4A494A;}
	.st14{fill:#3C3C3B;}
	.st15{clip-path:url(#SVGID_4_);}
	.st16{fill-rule:evenodd;clip-rule:evenodd;fill:#236AB1;}
	.st17{fill-rule:evenodd;clip-rule:evenodd;fill:#2469B1;}
	.st18{fill-rule:evenodd;clip-rule:evenodd;fill:#2269B1;}
	.st19{fill-rule:evenodd;clip-rule:evenodd;fill:#256AB1;}
	.st20{fill-rule:evenodd;clip-rule:evenodd;fill:#256AB2;}
	.st21{fill-rule:evenodd;clip-rule:evenodd;fill:#276AB2;}
	.st22{fill-rule:evenodd;clip-rule:evenodd;fill:#286BB2;}
	.st23{fill-rule:evenodd;clip-rule:evenodd;fill:#296CB3;}
	.st24{fill-rule:evenodd;clip-rule:evenodd;fill:#2B6CB3;}
	.st25{fill-rule:evenodd;clip-rule:evenodd;fill:#2A6CB3;}
	.st26{fill-rule:evenodd;clip-rule:evenodd;fill:#2C6DB4;}
	.st27{fill-rule:evenodd;clip-rule:evenodd;fill:#2B6DB4;}
	.st28{fill-rule:evenodd;clip-rule:evenodd;fill:#2D6DB4;}
	.st29{fill-rule:evenodd;clip-rule:evenodd;fill:#2E6EB5;}
	.st30{fill-rule:evenodd;clip-rule:evenodd;fill:#2F6EB5;}
	.st31{fill-rule:evenodd;clip-rule:evenodd;fill:#2E6FB5;}
	.st32{fill-rule:evenodd;clip-rule:evenodd;fill:#306FB5;}
	.st33{fill-rule:evenodd;clip-rule:evenodd;fill:#3170B6;}
	.st34{fill-rule:evenodd;clip-rule:evenodd;fill:#3270B6;}
	.st35{fill-rule:evenodd;clip-rule:evenodd;fill:#3471B6;}
	.st36{fill-rule:evenodd;clip-rule:evenodd;fill:#3371B7;}
	.st37{fill-rule:evenodd;clip-rule:evenodd;fill:#3571B7;}
	.st38{fill-rule:evenodd;clip-rule:evenodd;fill:#3472B7;}
	.st39{fill-rule:evenodd;clip-rule:evenodd;fill:#3672B7;}
	.st40{fill-rule:evenodd;clip-rule:evenodd;fill:#3773B8;}
	.st41{fill-rule:evenodd;clip-rule:evenodd;fill:#3874B8;}
	.st42{fill-rule:evenodd;clip-rule:evenodd;fill:#3A74B8;}
	.st43{fill-rule:evenodd;clip-rule:evenodd;fill:#3B75B9;}
	.st44{fill-rule:evenodd;clip-rule:evenodd;fill:#3C75BA;}
	.st45{fill-rule:evenodd;clip-rule:evenodd;fill:#3E75BA;}
	.st46{fill-rule:evenodd;clip-rule:evenodd;fill:#3D76BA;}
	.st47{fill-rule:evenodd;clip-rule:evenodd;fill:#3F76BA;}
	.st48{fill-rule:evenodd;clip-rule:evenodd;fill:#4077BB;}
	.st49{fill-rule:evenodd;clip-rule:evenodd;fill:#4078BB;}
	.st50{fill-rule:evenodd;clip-rule:evenodd;fill:#4278BB;}
	.st51{fill-rule:evenodd;clip-rule:evenodd;fill:#4379BC;}
	.st52{fill-rule:evenodd;clip-rule:evenodd;fill:#4479BC;}
	.st53{fill-rule:evenodd;clip-rule:evenodd;fill:#457ABC;}
	.st54{fill-rule:evenodd;clip-rule:evenodd;fill:#457ABD;}
	.st55{fill-rule:evenodd;clip-rule:evenodd;fill:#467ABD;}
	.st56{fill-rule:evenodd;clip-rule:evenodd;fill:#467BBD;}
	.st57{fill-rule:evenodd;clip-rule:evenodd;fill:#477BBD;}
	.st58{fill-rule:evenodd;clip-rule:evenodd;fill:#487CBE;}
	.st59{fill-rule:evenodd;clip-rule:evenodd;fill:#497DBE;}
	.st60{fill-rule:evenodd;clip-rule:evenodd;fill:#4A7DBE;}
	.st61{fill-rule:evenodd;clip-rule:evenodd;fill:#4A7DBF;}
	.st62{fill-rule:evenodd;clip-rule:evenodd;fill:#4B7EBF;}
	.st63{fill-rule:evenodd;clip-rule:evenodd;fill:#4C7EBF;}
	.st64{fill-rule:evenodd;clip-rule:evenodd;fill:#4E7FC0;}
	.st65{fill-rule:evenodd;clip-rule:evenodd;fill:#4D7FC0;}
	.st66{fill-rule:evenodd;clip-rule:evenodd;fill:#4F7FC0;}
	.st67{fill-rule:evenodd;clip-rule:evenodd;fill:#4E80C1;}
	.st68{fill-rule:evenodd;clip-rule:evenodd;fill:#5080C1;}
	.st69{fill-rule:evenodd;clip-rule:evenodd;fill:#5181C1;}
	.st70{fill-rule:evenodd;clip-rule:evenodd;fill:#5282C2;}
	.st71{fill-rule:evenodd;clip-rule:evenodd;fill:#5382C2;}
	.st72{fill-rule:evenodd;clip-rule:evenodd;fill:#5383C2;}
	.st73{fill-rule:evenodd;clip-rule:evenodd;fill:#5483C2;}
	.st74{fill-rule:evenodd;clip-rule:evenodd;fill:#5483C3;}
	.st75{fill-rule:evenodd;clip-rule:evenodd;fill:#5584C3;}
	.st76{fill-rule:evenodd;clip-rule:evenodd;fill:#5684C3;}
	.st77{fill-rule:evenodd;clip-rule:evenodd;fill:#5785C3;}
	.st78{fill-rule:evenodd;clip-rule:evenodd;fill:#5785C4;}
	.st79{fill-rule:evenodd;clip-rule:evenodd;fill:#5885C4;}
	.st80{fill-rule:evenodd;clip-rule:evenodd;fill:#5986C4;}
	.st81{fill-rule:evenodd;clip-rule:evenodd;fill:#5A87C5;}
	.st82{fill-rule:evenodd;clip-rule:evenodd;fill:#5B87C5;}
	.st83{fill-rule:evenodd;clip-rule:evenodd;fill:#5B88C5;}
	.st84{fill-rule:evenodd;clip-rule:evenodd;fill:#5C88C5;}
	.st85{fill-rule:evenodd;clip-rule:evenodd;fill:#5C89C6;}
	.st86{fill-rule:evenodd;clip-rule:evenodd;fill:#5D89C6;}
	.st87{fill-rule:evenodd;clip-rule:evenodd;fill:#5E8AC6;}
	.st88{fill-rule:evenodd;clip-rule:evenodd;fill:#5F8AC6;}
	.st89{fill-rule:evenodd;clip-rule:evenodd;fill:#5F8AC7;}
	.st90{fill-rule:evenodd;clip-rule:evenodd;fill:#608BC7;}
	.st91{fill-rule:evenodd;clip-rule:evenodd;fill:#618CC7;}
	.st92{fill-rule:evenodd;clip-rule:evenodd;fill:#628CC8;}
	.st93{fill-rule:evenodd;clip-rule:evenodd;fill:#648DC8;}
	.st94{fill-rule:evenodd;clip-rule:evenodd;fill:#638DC9;}
	.st95{fill-rule:evenodd;clip-rule:evenodd;fill:#658DC9;}
	.st96{fill-rule:evenodd;clip-rule:evenodd;fill:#648EC9;}
	.st97{fill-rule:evenodd;clip-rule:evenodd;fill:#658EC9;}
	.st98{fill-rule:evenodd;clip-rule:evenodd;fill:#668FCA;}
	.st99{fill-rule:evenodd;clip-rule:evenodd;fill:#688FCA;}
	.st100{fill-rule:evenodd;clip-rule:evenodd;fill:#6790CA;}
	.st101{fill-rule:evenodd;clip-rule:evenodd;fill:#6990CA;}
	.st102{fill-rule:evenodd;clip-rule:evenodd;fill:#6A91CB;}
	.st103{fill-rule:evenodd;clip-rule:evenodd;fill:#6B92CB;}
	.st104{fill-rule:evenodd;clip-rule:evenodd;fill:#6C92CB;}
	.st105{fill-rule:evenodd;clip-rule:evenodd;fill:#6C93CC;}
	.st106{fill-rule:evenodd;clip-rule:evenodd;fill:#6D93CC;}
	.st107{fill-rule:evenodd;clip-rule:evenodd;fill:#6D94CC;}
	.st108{fill-rule:evenodd;clip-rule:evenodd;fill:#6E94CC;}
	.st109{fill-rule:evenodd;clip-rule:evenodd;fill:#6F95CD;}
	.st110{fill-rule:evenodd;clip-rule:evenodd;fill:#7095CD;}
	.st111{fill-rule:evenodd;clip-rule:evenodd;fill:#7196CE;}
	.st112{fill-rule:evenodd;clip-rule:evenodd;fill:#7297CE;}
	.st113{fill-rule:evenodd;clip-rule:evenodd;fill:#7397CE;}
	.st114{fill-rule:evenodd;clip-rule:evenodd;fill:#7398CF;}
	.st115{fill-rule:evenodd;clip-rule:evenodd;fill:#7498CF;}
	.st116{fill-rule:evenodd;clip-rule:evenodd;fill:#7499CF;}
	.st117{fill-rule:evenodd;clip-rule:evenodd;fill:#7599CF;}
	.st118{fill-rule:evenodd;clip-rule:evenodd;fill:#769AD0;}
	.st119{fill-rule:evenodd;clip-rule:evenodd;fill:#779BD0;}
	.st120{fill-rule:evenodd;clip-rule:evenodd;fill:#789BD0;}
	.st121{fill-rule:evenodd;clip-rule:evenodd;fill:#789CD1;}
	.st122{fill-rule:evenodd;clip-rule:evenodd;fill:#799CD1;}
	.st123{fill-rule:evenodd;clip-rule:evenodd;fill:#7A9DD1;}
	.st124{fill-rule:evenodd;clip-rule:evenodd;fill:#7B9DD2;}
	.st125{fill-rule:evenodd;clip-rule:evenodd;fill:#7B9ED2;}
	.st126{fill-rule:evenodd;clip-rule:evenodd;fill:#7C9ED2;}
	.st127{fill-rule:evenodd;clip-rule:evenodd;fill:#7C9ED3;}
	.st128{fill-rule:evenodd;clip-rule:evenodd;fill:#7D9FD3;}
	.st129{fill-rule:evenodd;clip-rule:evenodd;fill:#7EA0D3;}
	.st130{fill-rule:evenodd;clip-rule:evenodd;fill:#7FA0D4;}
	.st131{fill-rule:evenodd;clip-rule:evenodd;fill:#80A1D4;}
	.st132{fill-rule:evenodd;clip-rule:evenodd;fill:#81A2D4;}
	.st133{fill-rule:evenodd;clip-rule:evenodd;fill:#81A2D5;}
	.st134{fill-rule:evenodd;clip-rule:evenodd;fill:#82A2D5;}
	.st135{fill-rule:evenodd;clip-rule:evenodd;fill:#83A3D5;}
	.st136{fill-rule:evenodd;clip-rule:evenodd;fill:#84A4D5;}
	.st137{fill-rule:evenodd;clip-rule:evenodd;fill:#84A4D6;}
	.st138{fill-rule:evenodd;clip-rule:evenodd;fill:#85A4D6;}
	.st139{fill-rule:evenodd;clip-rule:evenodd;fill:#86A5D6;}
	.st140{fill-rule:evenodd;clip-rule:evenodd;fill:#87A6D7;}
	.st141{fill-rule:evenodd;clip-rule:evenodd;fill:#88A6D7;}
	.st142{fill-rule:evenodd;clip-rule:evenodd;fill:#87A7D7;}
	.st143{fill-rule:evenodd;clip-rule:evenodd;fill:#89A7D7;}
	.st144{fill-rule:evenodd;clip-rule:evenodd;fill:#88A8D8;}
	.st145{fill-rule:evenodd;clip-rule:evenodd;fill:#89A8D8;}
	.st146{fill-rule:evenodd;clip-rule:evenodd;fill:#8AA9D9;}
	.st147{fill-rule:evenodd;clip-rule:evenodd;fill:#8CAAD9;}
	.st148{fill-rule:evenodd;clip-rule:evenodd;fill:#8DABDA;}
	.st149{fill-rule:evenodd;clip-rule:evenodd;fill:#8EACDA;}
	.st150{fill-rule:evenodd;clip-rule:evenodd;fill:#8FADDB;}
	.st151{fill-rule:evenodd;clip-rule:evenodd;fill:#91AEDB;}
	.st152{fill-rule:evenodd;clip-rule:evenodd;fill:#92AFDC;}
	.st153{fill-rule:evenodd;clip-rule:evenodd;fill:#93B0DC;}
	.st154{fill-rule:evenodd;clip-rule:evenodd;fill:#95B1DD;}
	.st155{fill-rule:evenodd;clip-rule:evenodd;fill:#96B2DD;}
	.st156{fill-rule:evenodd;clip-rule:evenodd;fill:#97B3DE;}
	.st157{fill-rule:evenodd;clip-rule:evenodd;fill:#99B4DE;}
	.st158{fill-rule:evenodd;clip-rule:evenodd;fill:#9AB5DF;}
	.st159{fill-rule:evenodd;clip-rule:evenodd;fill:#9BB6DF;}
	.st160{fill-rule:evenodd;clip-rule:evenodd;fill:#9CB7E0;}
	.st161{fill-rule:evenodd;clip-rule:evenodd;fill:#9DB8E0;}
	.st162{fill-rule:evenodd;clip-rule:evenodd;fill:#9EB9E1;}
	.st163{fill-rule:evenodd;clip-rule:evenodd;fill:#9FB9E1;}
	.st164{fill-rule:evenodd;clip-rule:evenodd;fill:#A1BAE2;}
	.st165{fill-rule:evenodd;clip-rule:evenodd;fill:#A2BBE2;}
	.st166{fill-rule:evenodd;clip-rule:evenodd;fill:#A3BCE3;}
	.st167{fill-rule:evenodd;clip-rule:evenodd;fill:#A4BDE3;}
	.st168{fill-rule:evenodd;clip-rule:evenodd;fill:#A6BEE4;}
	.st169{fill-rule:evenodd;clip-rule:evenodd;fill:#A7BFE4;}
	.st170{fill-rule:evenodd;clip-rule:evenodd;fill:#A8C0E5;}
	.st171{fill-rule:evenodd;clip-rule:evenodd;fill:#AAC1E5;}
	.st172{fill-rule:evenodd;clip-rule:evenodd;fill:#ABC2E6;}
	.st173{fill-rule:evenodd;clip-rule:evenodd;fill:#ACC3E6;}
	.st174{fill-rule:evenodd;clip-rule:evenodd;fill:#ADC4E7;}
	.st175{fill-rule:evenodd;clip-rule:evenodd;fill:#AEC5E7;}
	.st176{fill-rule:evenodd;clip-rule:evenodd;fill:#AFC6E8;}
	.st177{fill-rule:evenodd;clip-rule:evenodd;fill:#B0C7E8;}
	.st178{fill-rule:evenodd;clip-rule:evenodd;fill:#B2C8E9;}
	.st179{fill-rule:evenodd;clip-rule:evenodd;fill:#B3C9E9;}
	.st180{fill-rule:evenodd;clip-rule:evenodd;fill:#B4CAEA;}
	.st181{fill-rule:evenodd;clip-rule:evenodd;fill:#B6CBEB;}
	.st182{fill-rule:evenodd;clip-rule:evenodd;fill:#B6CCEB;}
	.st183{fill-rule:evenodd;clip-rule:evenodd;fill:#B7CDEC;}
	.st184{fill-rule:evenodd;clip-rule:evenodd;fill:#B9CEEC;}
	.st185{fill-rule:evenodd;clip-rule:evenodd;fill:#BACFED;}
	.st186{fill-rule:evenodd;clip-rule:evenodd;fill:#BBD0ED;}
	.st187{fill-rule:evenodd;clip-rule:evenodd;fill:#BCD1EE;}
	.st188{fill-rule:evenodd;clip-rule:evenodd;fill:#BED2EE;}
	.st189{fill-rule:evenodd;clip-rule:evenodd;fill:#BFD3EF;}
	.st190{fill-rule:evenodd;clip-rule:evenodd;fill:#C0D4EF;}
	.st191{fill-rule:evenodd;clip-rule:evenodd;fill:#C1D6F0;}
	.st192{fill-rule:evenodd;clip-rule:evenodd;fill:#C2D6F0;}
	.st193{fill-rule:evenodd;clip-rule:evenodd;fill:#C3D7F0;}
	.st194{fill-rule:evenodd;clip-rule:evenodd;fill:#C5D9F1;}
	.st195{fill-rule:evenodd;clip-rule:evenodd;fill:#C6DAF1;}
	.st196{fill-rule:evenodd;clip-rule:evenodd;fill:#C7DBF2;}
	.st197{fill-rule:evenodd;clip-rule:evenodd;fill:#C8DCF2;}
	.st198{fill-rule:evenodd;clip-rule:evenodd;fill:#C9DDF3;}
	.st199{fill-rule:evenodd;clip-rule:evenodd;fill:#CADEF3;}
	.st200{fill-rule:evenodd;clip-rule:evenodd;fill:#CBDFF4;}
	.st201{fill-rule:evenodd;clip-rule:evenodd;fill:#CDDFF4;}
	.st202{fill-rule:evenodd;clip-rule:evenodd;fill:#CEE0F4;}
	.st203{fill-rule:evenodd;clip-rule:evenodd;fill:#CFE1F5;}
	.st204{fill-rule:evenodd;clip-rule:evenodd;fill:#D1E3F5;}
	.st205{fill-rule:evenodd;clip-rule:evenodd;fill:#D2E3F6;}
	.st206{fill-rule:evenodd;clip-rule:evenodd;fill:#D2E4F6;}
	.st207{fill-rule:evenodd;clip-rule:evenodd;fill:#D3E5F7;}
	.st208{fill-rule:evenodd;clip-rule:evenodd;fill:#D5E7F7;}
	.st209{fill-rule:evenodd;clip-rule:evenodd;fill:#D6E8F8;}
	.st210{fill-rule:evenodd;clip-rule:evenodd;fill:#D7E9F8;}
	.st211{fill-rule:evenodd;clip-rule:evenodd;fill:#D9EAF9;}
	.st212{fill-rule:evenodd;clip-rule:evenodd;fill:#DAEBF9;}
	.st213{fill-rule:evenodd;clip-rule:evenodd;fill:#DAECFA;}
	.st214{fill-rule:evenodd;clip-rule:evenodd;fill:#DCEDFA;}
	.st215{fill-rule:evenodd;clip-rule:evenodd;fill:#DDEEFB;}
	.st216{fill-rule:evenodd;clip-rule:evenodd;fill:#DEEFFB;}
	.st217{fill-rule:evenodd;clip-rule:evenodd;fill:#DFF0FC;}
	.st218{fill-rule:evenodd;clip-rule:evenodd;fill:#E1F2FC;}
	.st219{fill-rule:evenodd;clip-rule:evenodd;fill:#E2F3FD;}
	.st220{fill:none;stroke:#2B2A29;stroke-width:0.5669;stroke-miterlimit:10;}
	.st221{fill-rule:evenodd;clip-rule:evenodd;fill:#28334F;}
	.st222{fill-rule:evenodd;clip-rule:evenodd;fill:#9CC2E8;}
	.st223{opacity:0.5;fill:#10161E;enable-background:new    ;}
</style>
<pattern  y="2048" width="7.7" height="7.7" patternUnits="userSpaceOnUse" id="adsfvdsgsdg" viewBox="0 -7.7 7.7 7.7" style="overflow:visible;">
	<g>
		<rect y="-7.7" class="st0" width="7.7" height="7.7"/>
		<rect y="-7.7" class="st0" width="7.7" height="7.7"/>
		<polygon class="st1" points="7.7,-3 7.7,-4.7 0,-4.7 0,-3 		"/>
		<rect x="3" y="-7.7" class="st2" width="1.8" height="7.7"/>
		<rect y="-7.7" class="st0" width="7.7" height="7.7"/>
	</g>
</pattern>
<pattern  y="2048" width="7.7" height="7.7" patternUnits="userSpaceOnUse" id="svdvsdv" viewBox="0 -7.7 7.7 7.7" style="overflow:visible;">
	<g>
		<rect y="-7.7" class="st0" width="7.7" height="7.7"/>
		<rect y="-7.7" class="st0" width="7.7" height="7.7"/>
		<polygon class="st2" points="7.7,-3 7.7,-4.7 0,-4.7 0,-3 		"/>
		<rect x="3" y="-7.7" class="st3" width="1.8" height="7.7"/>
		<rect y="-7.7" class="st0" width="7.7" height="7.7"/>
	</g>
</pattern>
<rect class="st4" width="4096" height="2048"/>
<ellipse transform="matrix(0.204 -0.979 0.979 0.204 2020.947 3513.5876)" class="st5" cx="3171.1" cy="514.1" rx="506.2" ry="344.5"/>
<ellipse transform="matrix(0.204 -0.979 0.979 0.204 2022.7758 3463.8418)" class="st6" cx="3141.4" cy="488.1" rx="493.4" ry="335.9"/>
<path class="st5" d="M3119,1072.3l-159.9-33.3c-2.1-0.4-3.4-2.5-3-4.6l18.7-89.9c0.4-2.1,2.5-3.4,4.6-3l159.9,33.3
	c2.1,0.4,3.4,2.5,3,4.6l-18.7,89.9C3123.1,1071.4,3121,1072.8,3119,1072.3z"/>
<path class="st6" d="M3092,1051.5l-129.8-27.1c-2.1-0.4-3.4-2.5-3-4.6l15.7-75.3c0.4-2.1,2.5-3.4,4.6-3l129.8,27.1
	c2.1,0.4,3.4,2.5,3,4.6l-15.7,75.3C3096.1,1050.6,3094.1,1051.9,3092,1051.5z"/>
<ellipse transform="matrix(0.204 -0.979 0.979 0.204 1460.3199 3803.5493)" class="st7" cx="3069" cy="1003.8" rx="18.9" ry="11.1"/>
<path class="st5" d="M2980.4,1041.4l70.1,14.6c-69,331.3,143.6,655.8,474.9,724.8c216.1,45,429.4-29.9,570.7-179.3v98.8
	C3940.5,1833.7,3727,1896,3510.8,1851C3140.8,1773.9,2903.3,1411.5,2980.4,1041.4z"/>
<ellipse transform="matrix(0.204 -0.979 0.979 0.204 1422.0459 3729.5701)" class="st7" cx="3004.4" cy="990.3" rx="18.9" ry="11.1"/>
<path class="st5" d="M3843.5,985.2h33.7v-27.1h85.6c0.5,1.1,1.1,2.2,1.5,3.4l131.8,337.2v344.4c-1.5-2.5-2.8-5.1-3.9-7.8
	l-245.4-627.9C3844,1000.4,3842.9,992.8,3843.5,985.2z"/>
<path class="st8" d="M2987.7,1039l70.1,14.6c-69,331.3,143.6,655.8,474.9,724.8c212.4,44.2,422-27.3,563.3-171.7v97.3
	c-154.9,129.1-365.2,188.8-577.9,144.4C3148.1,1771.5,2910.7,1409,2987.7,1039z"/>
<path class="st8" d="M3888.1,961.8l9.5-3.7h66.6c0.5,0.9,0.9,1.8,1.3,2.8l130.7,334.3v273.7l-223.5-571.8
	C3867.1,983.1,3874,967.3,3888.1,961.8C3888.1,961.8,3888.1,961.8,3888.1,961.8z"/>
<path class="st5" d="M3548.6,1471.2l-23.2-4.8c-2.7-0.6-4.4-3.2-3.9-5.9l10.9-52.4c0.6-2.7,3.2-4.4,5.9-3.9l23.2,4.8
	c2.7,0.6,4.4,3.2,3.9,5.9l-10.9,52.4C3553.9,1470.1,3551.3,1471.8,3548.6,1471.2z"/>
<path class="st9" d="M3548.7,1464.9l-23.2-4.8c-2.7-0.6-4.4-3.2-3.9-5.9l10.9-52.4c0.6-2.7,3.2-4.4,5.9-3.9l23.2,4.8
	c2.7,0.6,4.4,3.2,3.9,5.9l-10.9,52.4C3554,1463.7,3551.4,1465.4,3548.7,1464.9z"/>
<path class="st6" d="M3545.9,1464.3l-18-3.7c-2.7-0.6-4.4-3.2-3.9-5.9l10.9-52.4c0.6-2.7,3.2-4.4,5.9-3.9l18,3.7
	c2.7,0.6,4.4,3.2,3.9,5.9l-10.9,52.4C3551.2,1463.1,3548.6,1464.8,3545.9,1464.3z"/>
<path class="st7" d="M3537.7,1462.6l-6.1-1.3c-1.2-0.2-1.9-1.4-1.7-2.5l12.1-58c0.2-1.2,1.4-1.9,2.5-1.7l6.1,1.3
	c1.2,0.2,1.9,1.4,1.7,2.5l-12.1,58C3540,1462.1,3538.8,1462.8,3537.7,1462.6z"/>
<path class="st9" d="M3623.5,977.7c165.4,24.8,298.1,71.9,314.8,109.7c2.4-2.6,3.9-5.8,4.5-9.2c5.9-39.1-135.8-92.8-316.4-119.8
	s-331.8-17.3-337.6,21.8c-0.4,3.5,0.1,7,1.6,10.2C3317.4,959,3458.1,952.9,3623.5,977.7z"/>
<path class="st7" d="M3014.8,1044.6l43,9c-69,331.3,143.6,655.8,474.9,724.8c212.4,44.2,422-27.3,563.3-171.7v60.8
	c-150.1,134.4-359.9,198.2-572.3,153.9C3168.7,1747.5,2940.9,1399.7,3014.8,1044.6z"/>
<path class="st5" d="M3604.9,1448.5l-99.2-20.7c-2.7-0.6-4.4-3.2-3.9-5.9l10.9-52.4c0.6-2.7,3.2-4.4,5.9-3.9l99.2,20.7
	c2.7,0.6,4.4,3.2,3.9,5.9l-10.9,52.4C3610.3,1447.3,3607.6,1449,3604.9,1448.5z"/>
<path class="st9" d="M3602.3,1441.5l-99.2-20.7c-2.7-0.6-4.4-3.2-3.9-5.9l10.9-52.4c0.6-2.7,3.2-4.4,5.9-3.9l99.2,20.7
	c2.7,0.6,4.4,3.2,3.9,5.9l-10.9,52.4C3607.7,1440.3,3605,1442.1,3602.3,1441.5z"/>
<path class="st6" d="M3593,1439.6l-82.1-17.1c-2.7-0.6-4.4-3.2-3.9-5.9l10.9-52.4c0.6-2.7,3.2-4.4,5.9-3.9l82.1,17.1
	c2.7,0.6,4.4,3.2,3.9,5.9l-10.9,52.4C3598.4,1438.4,3595.7,1440.2,3593,1439.6z"/>
<path class="st7" d="M3556.6,1432l-24.1-5c-2.7-0.6-4.4-3.2-3.9-5.9l10.9-52.4c0.6-2.7,3.2-4.4,5.9-3.9l24.1,5
	c2.7,0.6,4.4,3.2,3.9,5.9l-10.9,52.4C3562,1430.8,3559.3,1432.6,3556.6,1432z"/>
<polygon class="st5" points="4096.1,1463.1 3897.5,955 3941.3,955 4096.1,1351 "/>
<polygon class="st9" points="3931.4,958.1 4096.1,1379.4 4096.1,1441.4 3907.2,958.1 "/>
<path class="st9" d="M3033.3,1048.5l33.4,7.2c-66.1,329.7,146,651.6,475.8,720.3c207.6,43.2,412.4-24.1,553.5-161.9v46.7
	c-147.7,130.4-352.8,191.9-560.5,148.7C3187.3,1736.9,2963.2,1396.8,3033.3,1048.5z"/>
<path class="st6" d="M3625.9,960.7c167,25,301.1,72.3,318,110.2c2.4-2.6,4-5.8,4.6-9.2c5.9-39.1-137.2-93-319.6-120.3
	s-335-17.8-340.9,21.3c-0.4,3.5,0.1,7,1.6,10.2C3316.8,941.6,3458.8,935.7,3625.9,960.7z"/>
<path class="st6" d="M3026.3,1047l31.6,6.6l1.9,0.5c-67.1,330.3,145.2,653,475.5,721.8c211.2,44,419.6-26.5,560.9-169.2v47.3
	c-148.2,134.9-356.7,199.3-567.8,155.3C3179.4,1736.8,2955.2,1395.8,3026.3,1047z"/>
<polygon class="st5" points="3964,957.9 3910.7,930.3 3826.3,985.6 3875.3,1003.4 "/>
<path class="st6" d="M3944.9,951.7l-85.6,44.6c-0.6,0.3-1.3,0.4-1.9,0.1l-11.2-4.1c-1.2-0.5-1.9-1.8-1.4-3.1
	c0.2-0.5,0.5-0.9,0.9-1.2l77.4-50.5c0.7-0.5,1.7-0.5,2.4-0.1l19.3,10c1.2,0.6,1.6,2.1,1,3.3C3945.6,951.2,3945.3,951.5,3944.9,951.7
	z"/>
<polygon class="st5" points="3875.3,1003.4 3826.3,985.6 3830,983.2 3879.4,1001.3 "/>
<polygon class="st8" points="3964,957.9 3875.3,1003.4 3878.4,1004.7 3965.4,960.9 "/>
<path class="st8" d="M3769.1,1273.9l-36.9-7.3c-3.9-0.8-6.5-4.6-5.7-8.5l75.6-384.1c0.8-3.9,4.6-6.5,8.5-5.7l36.9,7.3
	c3.9,0.8,6.5,4.6,5.7,8.5l-75.6,384.1C3776.8,1272.2,3773,1274.7,3769.1,1273.9z"/>
<path class="st5" d="M3764.2,1269l-36.9-7.3c-3.9-0.8-6.5-4.6-5.7-8.5l75.6-384.1c0.8-3.9,4.6-6.5,8.5-5.7l36.9,7.3
	c3.9,0.8,6.5,4.6,5.7,8.5l-75.6,384.1C3771.9,1267.2,3768.1,1269.8,3764.2,1269z"/>
<path class="st8" d="M3664.8,1403.6l-190.9-37c-36.3-7-60-42.1-53-78.4l113.8-587.5c7-36.3,42.1-60,78.4-53l190.9,37
	c36.3,7,60,42.1,53,78.4l-113.8,587.5C3736.2,1386.9,3701.1,1410.6,3664.8,1403.6z"/>
<path class="st5" d="M3620.3,1341.3l-118.7-23c-22.5-4.4-37.3-26.2-32.9-48.7l111.9-577.8c4.4-22.5,26.2-37.3,48.7-32.9l118.7,23
	c22.5,4.4,37.3,26.2,32.9,48.7L3669,1308.4C3664.6,1330.9,3642.8,1345.7,3620.3,1341.3z"/>
<path class="st6" d="M3594.1,1261.5l-46.5-9c-8.8-1.7-14.6-10.3-12.9-19.1l96-495.2c1.7-8.8,10.3-14.6,19.1-12.9l46.5,9
	c8.8,1.7,14.6,10.3,12.9,19.1l-96,495.2C3611.4,1257.4,3602.9,1263.2,3594.1,1261.5z"/>
<path class="st10" d="M3813.4,809l-253.4-49.1c-12.4-2.4-20.5-14.4-18.1-26.8l79.7-411.4c2.4-12.4,14.4-20.5,26.8-18.1l253.4,49.1
	c12.4,2.4,20.5,14.4,18.1,26.8l-79.7,411.4C3837.8,803.3,3825.8,811.4,3813.4,809z"/>
<path class="st8" d="M3813.4,809l-253.4-49.1c-12.4-2.4-20.5-14.4-18.1-26.8l79.7-411.4c2.4-12.4,14.4-20.5,26.8-18.1l253.4,49.1
	c12.4,2.4,20.5,14.4,18.1,26.8l-79.7,411.4C3837.8,803.3,3825.8,811.4,3813.4,809z"/>
<pattern  id="SVGID_1_" xlink:href="#adsfvdsgsdg" patternTransform="matrix(1 0 0 -1 6.03 -16405.6797)">
</pattern>
<path class="st11" d="M3560.1,759.9l253.4,49.1c12.4,2.4,24.4-5.7,26.8-18.1c0,0,0,0,0,0l79.7-411.4c2.4-12.4-5.7-24.4-18.1-26.8
	c0,0,0,0,0,0l-253.4-49.1c-12.4-2.4-24.4,5.7-26.8,18.1c0,0,0,0,0,0L3542,733.2C3539.6,745.5,3547.7,757.5,3560.1,759.9z"/>
<path class="st5" d="M3725.3,792.5l-167-32.3c-12.4-2.4-20.5-14.4-18.1-26.8l77-397.7c2.4-12.4,14.4-20.5,26.8-18.1l167,32.3
	c12.4,2.4,20.5,14.4,18.1,26.8l-77,397.7C3749.7,786.8,3737.7,794.9,3725.3,792.5z"/>
<path class="st6" d="M3723.6,350.4c0,0-95.4-43-114.5,80.3C3609.1,430.7,3673.1,347.1,3723.6,350.4z"/>
<pattern  id="SVGID_2_" xlink:href="#svdvsdv" patternTransform="matrix(1 0 0 -1 6.03 -16405.6797)">
</pattern>
<path class="st12" d="M3558,760.1l167.4,32.4c12.4,2.4,24.4-5.7,26.8-18.1l76.9-397.1c2.4-12.4-5.7-24.4-18.1-26.8l-167.4-32.4
	c-12.4-2.4-24.4,5.7-26.8,18.1c0,0,0,0,0,0l-76.9,397.1C3537.5,745.7,3545.6,757.7,3558,760.1C3558,760.1,3558,760.1,3558,760.1z"/>
<path class="st5" d="M3641.3,294.8c9.9-4.8,21.1-6.3,31.9-4.1l174.9,35.2c28.3,5.7,46.7,34.2,41.2,63.6L3826.8,725
	c-5.5,29.5-32.9,48.7-61.1,43l-36.5-7.3c27.1,3.7,52.7-15.2,58-43.6l56.7-304c5.5-29.5-12.9-57.9-41.2-63.6l-134.9-27.1
	c-16.2-3.2-32.9,1.7-44.8,13L3641.3,294.8z"/>
<path class="st9" d="M3619.5,328.8c5.5-29.5,32.9-48.7,61.1-43l174.9,35.2c28.3,5.7,46.7,34.2,41.2,63.6l-62.6,335.5
	c-5.5,29.5-32.9,48.7-61.1,43l-36.5-7.3c27.1,3.7,52.7-15.2,58-43.6l56.7-304c5.5-29.5-13-57.9-41.2-63.6l-135-27.1
	c-26.6-5.4-52.4,11.4-59.9,37.9h-0.6L3619.5,328.8z"/>
<path class="st5" d="M3847.9,836.5l-325.3-63.1c-2.7-0.5-4.5-3.1-3.9-5.8l10.2-52.4c0.5-2.7,3.1-4.5,5.8-4l325.3,63.1
	c2.7,0.5,4.5,3.1,4,5.9l-10.2,52.4C3853.3,835.3,3850.6,837.1,3847.9,836.5z"/>
<path class="st9" d="M3843.7,819.5l-325.7-64.1c-2.7-0.5-4.5-3.2-3.9-5.9l10.3-52.5c0.5-2.7,3.2-4.5,5.9-3.9l325.7,64.1
	c2.7,0.5,4.5,3.2,3.9,5.9l-10.3,52.5C3849.1,818.3,3846.5,820,3843.7,819.5z"/>
<path class="st6" d="M3815.2,813.9l-273.1-53.8c-2.7-0.5-4.5-3.2-3.9-5.9l10.3-52.5c0.5-2.7,3.2-4.5,5.9-3.9l273.1,53.8
	c2.7,0.5,4.5,3.2,3.9,5.9l-10.3,52.5C3820.5,812.6,3817.9,814.4,3815.2,813.9z"/>
<path class="st5" d="M3796.8,1061.5l-325.7-64.1c-2.7-0.5-4.5-3.2-3.9-5.9l10.3-52.5c0.5-2.7,3.2-4.5,5.9-3.9l325.7,64.1
	c2.7,0.5,4.5,3.2,3.9,5.9l-10.3,52.5C3802.2,1060.2,3799.5,1062,3796.8,1061.5z"/>
<path class="st9" d="M3795.3,1068.8l-325.3-63.1c-2.7-0.5-4.5-3.1-3.9-5.8l10.2-52.4c0.5-2.7,3.1-4.5,5.8-4l325.3,63.1
	c2.7,0.5,4.5,3.1,3.9,5.9l-10.2,52.4C3800.6,1067.6,3798,1069.3,3795.3,1068.8z"/>
<path class="st6" d="M3765.8,1050.9l-273.1-53.8c-2.7-0.5-4.5-3.2-3.9-5.9l10.3-52.5c0.5-2.7,3.2-4.5,5.9-3.9l273.1,53.8
	c2.7,0.5,4.5,3.2,3.9,5.9l-10.3,52.5C3771.1,1049.7,3768.5,1051.5,3765.8,1050.9z"/>
<path class="st7" d="M3654.9,1041.4l-94.3-18.3c-2.7-0.5-4.5-3.1-3.9-5.8l10.2-52.4c0.5-2.7,3.1-4.5,5.9-3.9l94.3,18.3
	c2.7,0.5,4.5,3.1,3.9,5.8l-10.2,52.4C3660.2,1040.2,3657.6,1041.9,3654.9,1041.4z"/>
<path class="st5" d="M3766.7,1221.9l-325.7-64.1c-2.7-0.5-4.5-3.2-3.9-5.9l10.3-52.5c0.5-2.7,3.2-4.5,5.9-3.9l325.7,64.1
	c2.7,0.5,4.5,3.2,3.9,5.9l-10.3,52.5C3772,1220.7,3769.4,1222.5,3766.7,1221.9z"/>
<path class="st9" d="M3764.2,1217l-325.7-64.1c-2.7-0.5-4.5-3.2-3.9-5.9l10.3-52.5c0.5-2.7,3.2-4.5,5.9-3.9l325.7,64.1
	c2.7,0.5,4.5,3.2,3.9,5.9l-10.3,52.5C3769.5,1215.8,3766.9,1217.6,3764.2,1217z"/>
<path class="st6" d="M3735.6,1211.4l-273.1-53.8c-2.7-0.5-4.5-3.2-3.9-5.9l10.3-52.5c0.5-2.7,3.2-4.5,5.9-3.9l273.1,53.8
	c2.7,0.5,4.5,3.2,3.9,5.9l-10.3,52.5C3741,1210.2,3738.3,1211.9,3735.6,1211.4z"/>
<path class="st7" d="M3624.1,1202l-94.3-18.3c-2.7-0.5-4.5-3.1-3.9-5.8l10.2-52.4c0.5-2.7,3.1-4.5,5.8-3.9l94.3,18.3
	c2.7,0.5,4.5,3.1,3.9,5.9L3630,1198C3629.5,1200.7,3626.9,1202.5,3624.1,1202z"/>
<path class="st6" d="M3703.2,791.8l-94.4-18.6c-2.7-0.5-4.5-3.2-3.9-5.9l10.3-52.5c0.5-2.7,3.2-4.5,5.9-3.9l94.4,18.6
	c2.7,0.5,4.5,3.2,3.9,5.9l-10.3,52.5C3708.5,790.6,3705.9,792.3,3703.2,791.8z"/>
<path class="st8" d="M3564,1300.4l-29.1-5.6c-4.3-0.8-7.2-5-6.3-9.4l82-423.2c0.8-4.3,5-7.2,9.4-6.3l29.1,5.6c4.3,0.8,7.2,5,6.3,9.4
	l-82,423.2C3572.5,1298.4,3568.4,1301.2,3564,1300.4z"/>
<path class="st9" d="M3348,1029.3l-5-8.9c-1-1.7-0.4-3.8,1.3-4.8l261.3-147.9c1.7-1,3.8-0.4,4.8,1.3l5,8.9c1,1.7,0.4,3.8-1.3,4.8
	l-261.3,147.9C3351.1,1031.6,3348.9,1031,3348,1029.3z"/>
<path class="st5" d="M3349.6,1026.2l-5-8.9c-1-1.7-0.4-3.8,1.3-4.8l261.3-147.9c1.7-1,3.8-0.4,4.8,1.3l5,8.9c1,1.7,0.4,3.8-1.3,4.8
	l-261.3,147.9C3352.7,1028.5,3350.5,1027.9,3349.6,1026.2z"/>
<path class="st9" d="M3348,1023.4l-2.8-5c-0.5-1-0.2-2.2,0.7-2.7l263.9-149.4c1-0.5,2.2-0.2,2.7,0.7l2.8,5c0.5,1,0.2,2.2-0.7,2.7
	l-263.9,149.4C3349.7,1024.7,3348.5,1024.4,3348,1023.4z"/>
<path class="st7" d="M3346.8,1021.3l-1.3-2.3c-0.3-0.4-0.1-1,0.4-1.3l265.7-150.4c0.4-0.3,1-0.1,1.3,0.4l1.3,2.3
	c0.3,0.4,0.1,1-0.4,1.3l-265.7,150.4C3347.6,1021.9,3347.1,1021.8,3346.8,1021.3z"/>
<path class="st9" d="M3843.2,1093.5l-7.6,6.8c-1.4,1.3-3.6,1.2-4.9-0.3l-201.2-222.8c-1.3-1.4-1.2-3.6,0.3-4.9l7.6-6.8
	c1.4-1.3,3.6-1.2,4.9,0.3l201.2,222.8C3844.7,1090,3844.6,1092.2,3843.2,1093.5z"/>
<path class="st5" d="M3839.8,1092.6l-7.6,6.8c-1.4,1.3-3.6,1.2-4.9-0.3l-201.2-222.8c-1.3-1.4-1.2-3.6,0.3-4.9l7.6-6.8
	c1.4-1.3,3.6-1.2,4.9,0.3l201.2,222.8C3841.3,1089.1,3841.2,1091.3,3839.8,1092.6z"/>
<path class="st9" d="M3837.4,1094.8l-4.3,3.9c-0.8,0.7-2.1,0.7-2.8-0.1l-203.2-225.1c-0.7-0.8-0.7-2.1,0.1-2.8l4.3-3.9
	c0.8-0.7,2.1-0.7,2.8,0.1l203.2,225.1C3838.2,1092.8,3838.2,1094,3837.4,1094.8z"/>
<path class="st7" d="M3835.6,1096.4l-2,1.8c-0.4,0.3-1,0.3-1.3-0.1l-204.6-226.6c-0.3-0.4-0.3-1,0.1-1.3l2-1.8
	c0.4-0.3,1-0.3,1.3,0.1l204.6,226.6C3836,1095.5,3836,1096,3835.6,1096.4z"/>
<path class="st9" d="M3559.1,1300.3l-29.1-5.6c-4.3-0.8-7.2-5-6.3-9.4l82-423.2c0.8-4.3,5-7.2,9.4-6.3l29.1,5.6
	c4.3,0.8,7.2,5,6.3,9.4l-82,423.2C3567.6,1298.3,3563.5,1301.1,3559.1,1300.3z"/>
<path class="st6" d="M3567.2,1250.8l-18.1-3.5c-2.6-0.5-4.3-3.1-3.8-5.7l63-325c0.5-2.6,3.1-4.3,5.7-3.8l18.1,3.5
	c2.6,0.5,4.3,3.1,3.8,5.7l-63,325C3572.4,1249.6,3569.8,1251.3,3567.2,1250.8z"/>
<path class="st5" d="M3639.8,905.5l-38.8-7.5c-2.5-0.5-4.2-2.9-3.7-5.5l5.7-29.3c0.5-2.5,2.9-4.2,5.5-3.7l38.8,7.5
	c2.5,0.5,4.2,2.9,3.7,5.5l-5.7,29.3C3644.8,904.3,3642.4,905.9,3639.8,905.5z"/>
<path class="st9" d="M3637.5,900.2l-35.7-6.9c-2.5-0.5-4.2-2.9-3.7-5.5l5.8-30.2c0.5-2.5,2.9-4.2,5.5-3.7l35.7,6.9
	c2.5,0.5,4.2,2.9,3.7,5.5l-5.8,30.2C3642.4,899,3640,900.6,3637.5,900.2z"/>
<path class="st5" d="M3563.5,1300.3l-38.9-7.5c-2.8-0.5-4.7-3.3-4.1-6.1l6.3-32.5c0.5-2.8,3.3-4.7,6.1-4.1l38.9,7.5
	c2.8,0.5,4.7,3.3,4.1,6.1l-6.3,32.5C3569.1,1299,3566.4,1300.8,3563.5,1300.3z"/>
<path class="st9" d="M3559.1,1300.5l-35-6.8c-2.8-0.5-4.7-3.3-4.1-6.1l5.5-28.2c0.5-2.8,3.3-4.7,6.1-4.1l35,6.8
	c2.8,0.5,4.7,3.3,4.1,6.1l-5.5,28.2C3564.7,1299.2,3561.9,1301,3559.1,1300.5z"/>
<ellipse transform="matrix(0.1901 -0.9818 0.9818 0.1901 1932.1782 4344.8179)" class="st9" cx="3599.6" cy="1001.3" rx="17.2" ry="13.7"/>
<ellipse transform="matrix(0.1901 -0.9818 0.9818 0.1901 1932.1782 4344.8179)" class="st6" cx="3599.6" cy="1001.3" rx="10.1" ry="8"/>
<ellipse transform="matrix(0.1901 -0.9818 0.9818 0.1901 1932.1782 4344.8179)" class="st7" cx="3599.6" cy="1001.3" rx="4.5" ry="3.6"/>
<ellipse transform="matrix(0.1901 -0.9818 0.9818 0.1901 1762.8965 4436.9536)" class="st9" cx="3570.8" cy="1150" rx="17.2" ry="13.7"/>
<ellipse transform="matrix(0.1901 -0.9818 0.9818 0.1901 1762.8965 4436.9536)" class="st6" cx="3570.8" cy="1150" rx="10.1" ry="8"/>
<ellipse transform="matrix(0.1901 -0.9818 0.9818 0.1901 1762.8965 4436.9536)" class="st7" cx="3570.8" cy="1150" rx="4.5" ry="3.6"/>
<path class="st6" d="M3298.1,968c39,35,162.6,74.7,312.1,97.1s279.3,20.8,326.9-1.3c5.5,6.3,8,12.4,7.1,18.2
	c-5.8,38.4-157.8,47.4-339.5,20.1s-324.5-80.4-318.7-118.8C3286.8,977.5,3291,972.5,3298.1,968z"/>
<path class="st7" d="M3610.2,1065.1c167,25,309.1,19.1,336.3-12.1c1.5,3.2,2.1,6.7,1.6,10.2c-5.9,39.1-158.5,48.7-340.9,21.3
	s-325.5-81.2-319.6-120.3c0.6-3.5,2.2-6.7,4.6-9.2C3309.1,992.8,3443.2,1040.1,3610.2,1065.1z"/>
<ellipse transform="matrix(0.204 -0.979 0.979 0.204 2018.4786 3452.0315)" class="st13" cx="3132" cy="484.8" rx="475.9" ry="303.6"/>
<path class="st6" d="M3660.6,293l178,38.9c24.1,5,39.7,29.4,34.9,54.5L3807.9,732c-1.6,6.5-2.9,11.5-6,14.4l-18.3-3.6
	c10.2-1.7,10.3-5,13.5-15.1l63.2-332.9c4.8-25.1-10.9-49.5-34.9-54.5l-164.8-34.7c-18.1-3.8-31.7,9.4-41.4,24.5
	C3623.9,306.4,3638.7,288.4,3660.6,293z"/>
<path class="st5" d="M3923.9,1220.4l122.5-50.6c3.4-1.4,7.4,0.2,8.8,3.6c0,0,0,0,0,0l40.9,98.9v81l-100.2,41.4
	c-3.4,1.4-7.4-0.2-8.8-3.7l-66.9-161.9C3918.8,1225.8,3920.4,1221.8,3923.9,1220.4C3923.8,1220.4,3923.8,1220.4,3923.9,1220.4z"/>
<path class="st9" d="M3923.9,1220.4l123-50.8c3.4-1.4,7.4,0.2,8.8,3.7l40.4,97.7v74.1l-103.1,42.6c-3.4,1.4-7.4-0.2-8.8-3.7
	c0,0,0,0,0,0l-63.9-154.7C3918.8,1225.8,3920.4,1221.8,3923.9,1220.4z"/>
<path class="st6" d="M3963.5,1204l76.5-31.6c3.4-1.4,7.4,0.2,8.8,3.7l47.3,114.4v54.6l-63.5,26.2c-3.4,1.4-7.4-0.2-8.8-3.7
	c0,0,0,0,0,0l-63.9-154.7C3958.4,1209.4,3960,1205.5,3963.5,1204C3963.5,1204,3963.5,1204,3963.5,1204z"/>
<path class="st6" d="M3524,2048h-42.3c-17.1-167.3-13.4-321.9,7-434.3l40.6,9.6C3510.4,1734.8,3507.4,1885.3,3524,2048z"/>
<path class="st5" d="M3521.2,2048h-28.7c-17-166.1-13.5-319.7,6.6-431.9l24.5,5.8C3505.7,1735,3503.7,1885.9,3521.2,2048z"/>
<path class="st9" d="M3508.5,2048h-16.4c-17-166.2-13.5-319.8,6.6-432l15.8,3.7C3495,1731.6,3491.7,1883.6,3508.5,2048z"/>
<path class="st7" d="M3497.8,2048h-6.8c-17-166.3-13.4-320,6.7-432.3l5.3,1.2C3483.5,1729.8,3480.5,1882.8,3497.8,2048z"/>
<path class="st8" d="M3466.2,1556.9l126.8,21.3c1.5,0.3,2.5,1.7,2.3,3.2l-12,71.7c-0.3,1.5-1.7,2.5-3.2,2.3l-126.8-21.3
	c-1.5-0.3-2.5-1.7-2.3-3.2l12-71.7C3463.3,1557.7,3464.8,1556.7,3466.2,1556.9z"/>
<path class="st5" d="M3485.2,1443.2l96.9,16.3c1.5,0.3,2.5,1.7,2.3,3.2l-29,173c-0.3,1.5-1.7,2.5-3.2,2.3l-96.9-16.3
	c-1.5-0.3-2.5-1.7-2.3-3.2l29-173C3482.3,1444,3483.7,1443,3485.2,1443.2z"/>
<path class="st8" d="M3535.4,1451.6l76.7,12.9c1.5,0.3,2.5,1.7,2.3,3.2l-29,173c-0.3,1.5-1.7,2.5-3.2,2.3l-76.7-12.9
	c-1.5-0.3-2.5-1.7-2.3-3.2l29-173C3532.5,1452.4,3533.9,1451.4,3535.4,1451.6z"/>
<path class="st9" d="M3492.6,1444.4l89.5,15c1.5,0.3,2.5,1.7,2.3,3.2l-29,173c-0.3,1.5-1.7,2.5-3.2,2.3l-89.5-15
	c-1.5-0.3-2.5-1.7-2.3-3.2l29-173C3489.7,1445.2,3491.1,1444.2,3492.6,1444.4z"/>
<path class="st6" d="M3510.7,1447.5l45.7,7.7c1.5,0.3,2.5,1.7,2.3,3.2l-29,173c-0.3,1.5-1.7,2.5-3.2,2.3l-45.7-7.7
	c-1.5-0.3-2.5-1.7-2.3-3.2l29-173C3507.7,1448.2,3509.2,1447.2,3510.7,1447.5z"/>
<polygon class="st14" points="2987.7,1039 2981.4,1037.8 2980.4,1041.4 2986.9,1042.8 "/>
<ellipse transform="matrix(0.9242 -0.3819 0.3819 0.9242 -79.5186 1576.4967)" class="st5" cx="3932.1" cy="988.6" rx="6.9" ry="10.8"/>
<ellipse transform="matrix(0.9242 -0.3819 0.3819 0.9242 -79.5186 1576.4967)" class="st9" cx="3932.1" cy="988.6" rx="4" ry="6.3"/>
<ellipse transform="matrix(0.9242 -0.3819 0.3819 0.9242 -79.5186 1576.4967)" class="st7" cx="3932.1" cy="988.6" rx="1.8" ry="2.8"/>
<path class="st7" d="M3987.6,1194l35.4-14.6c3.4-1.4,7.4,0.2,8.8,3.6c0,0,0,0,0,0l63.9,154.7c0.1,0.3,0.2,0.6,0.3,0.9v3.4
	c-0.5,2-2,3.7-3.9,4.6l-35.4,14.6c-3.4,1.4-7.4-0.2-8.8-3.6c0,0,0,0,0,0l-63.9-154.7C3982.6,1199.4,3984.2,1195.5,3987.6,1194
	C3987.6,1194,3987.6,1194,3987.6,1194z"/>
<ellipse transform="matrix(0.204 -0.979 0.979 0.204 2017.051 3452.7708)" class="st5" cx="3131.7" cy="486.1" rx="475.9" ry="303.6"/>
<g>
	<g>
		<defs>
			<path id="SVGID_3_" d="M3017.1,291.9l322.6,79.5c25.1,6.2,40.5,31.8,34.4,56.8l-42.9,174c-6.2,25.1-31.8,40.5-56.8,34.4
				L2951.8,557c-25.1-6.2-40.5-31.8-34.4-56.8l42.9-174C2966.5,301.2,2992.1,285.7,3017.1,291.9L3017.1,291.9z"/>
		</defs>
		<clipPath id="SVGID_4_">
			<use xlink:href="#SVGID_3_"  style="overflow:visible;"/>
		</clipPath>
		<g class="st15">
			<polygon class="st16" points="2971.8,279.8 2972.5,279.9 2906.3,545.8 2905.6,545.6 			"/>
			<polygon id="_x31_" class="st17" points="2972.1,279.8 2973.3,280.1 2907.1,546 2905.9,545.7 			"/>
			<polygon id="_x32_" class="st18" points="2972.9,280 2974.1,280.3 2907.9,546.2 2906.7,545.9 			"/>
			<polygon id="_x33_" class="st17" points="2973.7,280.2 2974.9,280.5 2908.7,546.4 2907.5,546.1 			"/>
			<polygon id="_x34_" class="st16" points="2974.5,280.4 2975.7,280.7 2909.5,546.6 2908.3,546.3 			"/>
			<polygon id="_x35_" class="st19" points="2975.3,280.6 2976.5,280.9 2910.3,546.8 2909.1,546.5 			"/>
			<polygon id="_x36_" class="st20" points="2976.1,280.8 2977.3,281.1 2911.1,547 2909.9,546.7 			"/>
			<polygon id="_x37_" class="st21" points="2976.9,281 2978.1,281.3 2911.9,547.2 2910.7,546.9 			"/>
			<polygon id="_x38_" class="st21" points="2977.7,281.2 2978.9,281.5 2912.7,547.4 2911.5,547.1 			"/>
			<polygon id="_x39_" class="st22" points="2978.5,281.4 2979.7,281.7 2913.5,547.6 2912.3,547.3 			"/>
			<polygon id="_x31_0" class="st22" points="2979.3,281.6 2980.5,281.9 2914.3,547.8 2913.1,547.5 			"/>
			<polygon id="_x31_1" class="st23" points="2980.1,281.8 2981.4,282.1 2915.2,548 2913.9,547.7 			"/>
			<polygon id="_x31_2" class="st23" points="2980.9,282 2982.2,282.3 2916,548.2 2914.7,547.9 			"/>
			<polygon id="_x31_3" class="st24" points="2981.8,282.2 2983,282.5 2916.8,548.4 2915.6,548.1 			"/>
			<polygon id="_x31_4" class="st25" points="2982.6,282.4 2983.8,282.7 2917.6,548.6 2916.4,548.3 			"/>
			<polygon id="_x31_5" class="st26" points="2983.4,282.6 2984.6,282.9 2918.4,548.8 2917.2,548.5 			"/>
			<polygon id="_x31_6" class="st27" points="2984.2,282.8 2985.4,283.1 2919.2,549 2918,548.7 			"/>
			<polygon id="_x31_7" class="st28" points="2985,283 2986.2,283.3 2920,549.2 2918.8,548.9 			"/>
			<polygon id="_x31_8" class="st28" points="2985.8,283.2 2987,283.5 2920.8,549.4 2919.6,549.1 			"/>
			<polygon id="_x31_9" class="st29" points="2986.6,283.4 2987.8,283.7 2921.6,549.6 2920.4,549.3 			"/>
			<polygon id="_x32_0" class="st30" points="2987.4,283.6 2988.6,283.9 2922.4,549.8 2921.2,549.5 			"/>
			<polygon id="_x32_1" class="st31" points="2988.2,283.8 2989.4,284.1 2923.2,550 2922,549.7 			"/>
			<polygon id="_x32_2" class="st32" points="2989,284 2990.2,284.3 2924,550.2 2922.8,549.9 			"/>
			<polygon id="_x32_3" class="st32" points="2989.8,284.2 2991,284.5 2924.8,550.4 2923.6,550.1 			"/>
			<polygon id="_x32_4" class="st33" points="2990.6,284.4 2991.9,284.7 2925.7,550.6 2924.4,550.3 			"/>
			<polygon id="_x32_5" class="st33" points="2991.4,284.6 2992.7,284.9 2926.5,550.8 2925.2,550.5 			"/>
			<polygon id="_x32_6" class="st34" points="2992.3,284.8 2993.5,285.1 2927.3,551 2926.1,550.7 			"/>
			<polygon id="_x32_7" class="st34" points="2993.1,285 2994.3,285.3 2928.1,551.2 2926.9,550.9 			"/>
			<polygon id="_x32_8" class="st35" points="2993.9,285.2 2995.1,285.6 2928.9,551.4 2927.7,551.1 			"/>
			<polygon id="_x32_9" class="st36" points="2994.7,285.4 2995.9,285.8 2929.7,551.6 2928.5,551.3 			"/>
			<polygon id="_x33_0" class="st37" points="2995.5,285.7 2996.7,286 2930.5,551.8 2929.3,551.5 			"/>
			<polygon id="_x33_1" class="st38" points="2996.3,285.9 2997.5,286.2 2931.3,552 2930.1,551.7 			"/>
			<polygon id="_x33_2" class="st39" points="2997.1,286.1 2998.3,286.4 2932.1,552.2 2930.9,551.9 			"/>
			<polygon id="_x33_3" class="st39" points="2997.9,286.3 2999.1,286.6 2932.9,552.4 2931.7,552.1 			"/>
			<polygon id="_x33_4" class="st40" points="2998.7,286.5 2999.9,286.8 2933.7,552.6 2932.5,552.3 			"/>
			<polygon id="_x33_5" class="st40" points="2999.5,286.7 3000.7,287 2934.5,552.8 2933.3,552.5 			"/>
			<polygon id="_x33_6" class="st41" points="3000.3,286.9 3001.5,287.2 2935.3,553 2934.1,552.7 			"/>
			<polygon id="_x33_7" class="st42" points="3001.1,287.1 3002.4,287.4 2936.2,553.2 2934.9,552.9 			"/>
			<polygon id="_x33_8" class="st42" points="3001.9,287.3 3003.2,287.6 2937,553.4 2935.7,553.1 			"/>
			<polygon id="_x33_9" class="st43" points="3002.8,287.5 3004,287.8 2937.8,553.6 2936.6,553.3 			"/>
			<polygon id="_x34_0" class="st43" points="3003.6,287.7 3004.8,288 2938.6,553.8 2937.4,553.5 			"/>
			<polygon id="_x34_1" class="st44" points="3004.4,287.9 3005.6,288.2 2939.4,554 2938.2,553.7 			"/>
			<polygon id="_x34_2" class="st44" points="3005.2,288.1 3006.4,288.4 2940.2,554.2 2939,553.9 			"/>
			<polygon id="_x34_3" class="st45" points="3006,288.3 3007.2,288.6 2941,554.4 2939.8,554.1 			"/>
			<polygon id="_x34_4" class="st46" points="3006.8,288.5 3008,288.8 2941.8,554.6 2940.6,554.3 			"/>
			<polygon id="_x34_5" class="st47" points="3007.6,288.7 3008.8,289 2942.6,554.8 2941.4,554.5 			"/>
			<polygon id="_x34_6" class="st47" points="3008.4,288.9 3009.6,289.2 2943.4,555 2942.2,554.7 			"/>
			<polygon id="_x34_7" class="st48" points="3009.2,289.1 3010.4,289.4 2944.2,555.2 2943,554.9 			"/>
			<polygon id="_x34_8" class="st48" points="3010,289.3 3011.2,289.6 2945,555.4 2943.8,555.1 			"/>
			<polygon id="_x34_9" class="st49" points="3010.8,289.5 3012,289.8 2945.8,555.6 2944.6,555.3 			"/>
			<polygon id="_x35_0" class="st49" points="3011.6,289.7 3012.9,290 2946.7,555.8 2945.4,555.5 			"/>
			<polygon id="_x35_1" class="st50" points="3012.4,289.9 3013.7,290.2 2947.5,556 2946.2,555.7 			"/>
			<polygon id="_x35_2" class="st51" points="3013.3,290.1 3014.5,290.4 2948.3,556.2 2947.1,555.9 			"/>
			<polygon id="_x35_3" class="st51" points="3014.1,290.3 3015.3,290.6 2949.1,556.4 2947.9,556.1 			"/>
			<polygon id="_x35_4" class="st52" points="3014.9,290.5 3016.1,290.8 2949.9,556.6 2948.7,556.3 			"/>
			<polygon id="_x35_5" class="st52" points="3015.7,290.7 3016.9,291 2950.7,556.8 2949.5,556.5 			"/>
			<polygon id="_x35_6" class="st53" points="3016.5,290.9 3017.7,291.2 2951.5,557 2950.3,556.7 			"/>
			<polygon id="_x35_7" class="st54" points="3017.3,291.1 3018.5,291.4 2952.3,557.2 2951.1,556.9 			"/>
			<polygon id="_x35_8" class="st55" points="3018.1,291.3 3019.3,291.6 2953.1,557.4 2951.9,557.1 			"/>
			<polygon id="_x35_9" class="st56" points="3018.9,291.5 3020.1,291.8 2953.9,557.6 2952.7,557.3 			"/>
			<polygon id="_x36_0" class="st57" points="3019.7,291.7 3020.9,292 2954.7,557.8 2953.5,557.5 			"/>
			<polygon id="_x36_1" class="st57" points="3020.5,291.9 3021.7,292.2 2955.5,558 2954.3,557.7 			"/>
			<polygon id="_x36_2" class="st58" points="3021.3,292.1 3022.5,292.4 2956.3,558.2 2955.1,557.9 			"/>
			<polygon id="_x36_3" class="st58" points="3022.1,292.3 3023.4,292.6 2957.2,558.4 2955.9,558.1 			"/>
			<polygon id="_x36_4" class="st59" points="3022.9,292.5 3024.2,292.8 2958,558.6 2956.7,558.3 			"/>
			<polygon id="_x36_5" class="st59" points="3023.8,292.7 3025,293 2958.8,558.8 2957.6,558.5 			"/>
			<polygon id="_x36_6" class="st60" points="3024.6,292.9 3025.8,293.2 2959.6,559.1 2958.4,558.7 			"/>
			<polygon id="_x36_7" class="st61" points="3025.4,293.1 3026.6,293.4 2960.4,559.3 2959.2,558.9 			"/>
			<polygon id="_x36_8" class="st62" points="3026.2,293.3 3027.4,293.6 2961.2,559.5 2960,559.2 			"/>
			<polygon id="_x36_9" class="st63" points="3027,293.5 3028.2,293.8 2962,559.7 2960.8,559.4 			"/>
			<polygon id="_x37_0" class="st63" points="3027.8,293.7 3029,294 2962.8,559.9 2961.6,559.6 			"/>
			<polygon id="_x37_1" class="st64" points="3028.6,293.9 3029.8,294.2 2963.6,560.1 2962.4,559.8 			"/>
			<polygon id="_x37_2" class="st65" points="3029.4,294.1 3030.6,294.4 2964.4,560.3 2963.2,560 			"/>
			<polygon id="_x37_3" class="st66" points="3030.2,294.3 3031.4,294.6 2965.2,560.5 2964,560.2 			"/>
			<polygon id="_x37_4" class="st67" points="3031,294.5 3032.2,294.8 2966,560.7 2964.8,560.4 			"/>
			<polygon id="_x37_5" class="st68" points="3031.8,294.7 3033,295 2966.8,560.9 2965.6,560.6 			"/>
			<polygon id="_x37_6" class="st68" points="3032.6,294.9 3033.9,295.2 2967.7,561.1 2966.4,560.8 			"/>
			<polygon id="_x37_7" class="st69" points="3033.4,295.1 3034.7,295.4 2968.5,561.3 2967.2,561 			"/>
			<polygon id="_x37_8" class="st69" points="3034.3,295.3 3035.5,295.6 2969.3,561.5 2968.1,561.2 			"/>
			<polygon id="_x37_9" class="st70" points="3035.1,295.5 3036.3,295.8 2970.1,561.7 2968.9,561.4 			"/>
			<polygon id="_x38_0" class="st70" points="3035.9,295.7 3037.1,296 2970.9,561.9 2969.7,561.6 			"/>
			<polygon id="_x38_1" class="st71" points="3036.7,295.9 3037.9,296.2 2971.7,562.1 2970.5,561.8 			"/>
			<polygon id="_x38_2" class="st72" points="3037.5,296.1 3038.7,296.4 2972.5,562.3 2971.3,562 			"/>
			<polygon id="_x38_3" class="st73" points="3038.3,296.3 3039.5,296.6 2973.3,562.5 2972.1,562.2 			"/>
			<polygon id="_x38_4" class="st74" points="3039.1,296.5 3040.3,296.8 2974.1,562.7 2972.9,562.4 			"/>
			<polygon id="_x38_5" class="st75" points="3039.9,296.7 3041.1,297 2974.9,562.9 2973.7,562.6 			"/>
			<polygon id="_x38_6" class="st76" points="3040.7,296.9 3041.9,297.2 2975.7,563.1 2974.5,562.8 			"/>
			<polygon id="_x38_7" class="st76" points="3041.5,297.1 3042.7,297.4 2976.5,563.3 2975.3,563 			"/>
			<polygon id="_x38_8" class="st77" points="3042.3,297.3 3043.5,297.6 2977.3,563.5 2976.1,563.2 			"/>
			<polygon id="_x38_9" class="st78" points="3043.1,297.5 3044.4,297.8 2978.2,563.7 2976.9,563.4 			"/>
			<polygon id="_x39_0" class="st79" points="3043.9,297.7 3045.2,298 2979,563.9 2977.7,563.6 			"/>
			<polygon id="_x39_1" class="st79" points="3044.8,297.9 3046,298.2 2979.8,564.1 2978.6,563.8 			"/>
			<polygon id="_x39_2" class="st80" points="3045.6,298.1 3046.8,298.4 2980.6,564.3 2979.4,564 			"/>
			<polygon id="_x39_3" class="st80" points="3046.4,298.3 3047.6,298.6 2981.4,564.5 2980.2,564.2 			"/>
			<polygon id="_x39_4" class="st81" points="3047.2,298.5 3048.4,298.8 2982.2,564.7 2981,564.4 			"/>
			<polygon id="_x39_5" class="st81" points="3048,298.7 3049.2,299 2983,564.9 2981.8,564.6 			"/>
			<polygon id="_x39_6" class="st82" points="3048.8,298.9 3050,299.2 2983.8,565.1 2982.6,564.8 			"/>
			<polygon id="_x39_7" class="st83" points="3049.6,299.1 3050.8,299.4 2984.6,565.3 2983.4,565 			"/>
			<polygon id="_x39_8" class="st84" points="3050.4,299.3 3051.6,299.6 2985.4,565.5 2984.2,565.2 			"/>
			<polygon id="_x39_9" class="st85" points="3051.2,299.5 3052.4,299.8 2986.2,565.7 2985,565.4 			"/>
			<polygon id="_x31_00" class="st86" points="3052,299.7 3053.2,300 2987,565.9 2985.8,565.6 			"/>
			<polygon id="_x31_01" class="st86" points="3052.8,299.9 3054,300.2 2987.8,566.1 2986.6,565.8 			"/>
			<polygon id="_x31_02" class="st87" points="3053.6,300.1 3054.9,300.4 2988.7,566.3 2987.4,566 			"/>
			<polygon id="_x31_03" class="st88" points="3054.4,300.3 3055.7,300.6 2989.5,566.5 2988.2,566.2 			"/>
			<polygon id="_x31_04" class="st89" points="3055.3,300.5 3056.5,300.8 2990.3,566.7 2989.1,566.4 			"/>
			<polygon id="_x31_05" class="st90" points="3056.1,300.7 3057.3,301 2991.1,566.9 2989.9,566.6 			"/>
			<polygon id="_x31_06" class="st90" points="3056.9,300.9 3058.1,301.2 2991.9,567.1 2990.7,566.8 			"/>
			<polygon id="_x31_07" class="st91" points="3057.7,301.1 3058.9,301.4 2992.7,567.3 2991.5,567 			"/>
			<polygon id="_x31_08" class="st91" points="3058.5,301.3 3059.7,301.6 2993.5,567.5 2992.3,567.2 			"/>
			<polygon id="_x31_09" class="st92" points="3059.3,301.5 3060.5,301.8 2994.3,567.7 2993.1,567.4 			"/>
			<polygon id="_x31_10" class="st92" points="3060.1,301.7 3061.3,302 2995.1,567.9 2993.9,567.6 			"/>
			<polygon id="_x31_11" class="st93" points="3060.9,301.9 3062.1,302.2 2995.9,568.1 2994.7,567.8 			"/>
			<polygon id="_x31_12" class="st94" points="3061.7,302.1 3062.9,302.4 2996.7,568.3 2995.5,568 			"/>
			<polygon id="_x31_13" class="st95" points="3062.5,302.3 3063.7,302.6 2997.5,568.5 2996.3,568.2 			"/>
			<polygon id="_x31_14" class="st96" points="3063.3,302.5 3064.5,302.8 2998.3,568.7 2997.1,568.4 			"/>
			<polygon id="_x31_15" class="st97" points="3064.1,302.7 3065.4,303 2999.2,568.9 2997.9,568.6 			"/>
			<polygon id="_x31_16" class="st97" points="3064.9,302.9 3066.2,303.2 3000,569.1 2998.7,568.8 			"/>
			<polygon id="_x31_17" class="st98" points="3065.8,303.1 3067,303.4 3000.8,569.3 2999.6,569 			"/>
			<polygon id="_x31_18" class="st99" points="3066.6,303.3 3067.8,303.7 3001.6,569.5 3000.4,569.2 			"/>
			<polygon id="_x31_19" class="st100" points="3067.4,303.6 3068.6,303.9 3002.4,569.7 3001.2,569.4 			"/>
			<polygon id="_x31_20" class="st101" points="3068.2,303.8 3069.4,304.1 3003.2,569.9 3002,569.6 			"/>
			<polygon id="_x31_21" class="st101" points="3069,304 3070.2,304.3 3004,570.1 3002.8,569.8 			"/>
			<polygon id="_x31_22" class="st102" points="3069.8,304.2 3071,304.5 3004.8,570.3 3003.6,570 			"/>
			<polygon id="_x31_23" class="st102" points="3070.6,304.4 3071.8,304.7 3005.6,570.5 3004.4,570.2 			"/>
			<polygon id="_x31_24" class="st103" points="3071.4,304.6 3072.6,304.9 3006.4,570.7 3005.2,570.4 			"/>
			<polygon id="_x31_25" class="st103" points="3072.2,304.8 3073.4,305.1 3007.2,570.9 3006,570.6 			"/>
			<polygon id="_x31_26" class="st104" points="3073,305 3074.2,305.3 3008,571.1 3006.8,570.8 			"/>
			<polygon id="_x31_27" class="st105" points="3073.8,305.2 3075,305.5 3008.8,571.3 3007.6,571 			"/>
			<polygon id="_x31_28" class="st106" points="3074.6,305.4 3075.9,305.7 3009.7,571.5 3008.4,571.2 			"/>
			<polygon id="_x31_29" class="st107" points="3075.4,305.6 3076.7,305.9 3010.5,571.7 3009.2,571.4 			"/>
			<polygon id="_x31_30" class="st108" points="3076.3,305.8 3077.5,306.1 3011.3,571.9 3010.1,571.6 			"/>
			<polygon id="_x31_31" class="st108" points="3077.1,306 3078.3,306.3 3012.1,572.1 3010.9,571.8 			"/>
			<polygon id="_x31_32" class="st109" points="3077.9,306.2 3079.1,306.5 3012.9,572.3 3011.7,572 			"/>
			<polygon id="_x31_33" class="st109" points="3078.7,306.4 3079.9,306.7 3013.7,572.5 3012.5,572.2 			"/>
			<polygon id="_x31_34" class="st110" points="3079.5,306.6 3080.7,306.9 3014.5,572.7 3013.3,572.4 			"/>
			<polygon id="_x31_35" class="st111" points="3080.3,306.8 3081.5,307.1 3015.3,572.9 3014.1,572.6 			"/>
			<polygon id="_x31_36" class="st111" points="3081.1,307 3082.3,307.3 3016.1,573.1 3014.9,572.8 			"/>
			<polygon id="_x31_37" class="st112" points="3081.9,307.2 3083.1,307.5 3016.9,573.3 3015.7,573 			"/>
			<polygon id="_x31_38" class="st112" points="3082.7,307.4 3083.9,307.7 3017.7,573.5 3016.5,573.2 			"/>
			<polygon id="_x31_39" class="st113" points="3083.5,307.6 3084.7,307.9 3018.5,573.7 3017.3,573.4 			"/>
			<polygon id="_x31_40" class="st114" points="3084.3,307.8 3085.5,308.1 3019.3,573.9 3018.1,573.6 			"/>
			<polygon id="_x31_41" class="st115" points="3085.1,308 3086.4,308.3 3020.2,574.1 3018.9,573.8 			"/>
			<polygon id="_x31_42" class="st116" points="3085.9,308.2 3087.2,308.5 3021,574.3 3019.7,574 			"/>
			<polygon id="_x31_43" class="st117" points="3086.8,308.4 3088,308.7 3021.8,574.5 3020.6,574.2 			"/>
			<polygon id="_x31_44" class="st117" points="3087.6,308.6 3088.8,308.9 3022.6,574.7 3021.4,574.4 			"/>
			<polygon id="_x31_45" class="st118" points="3088.4,308.8 3089.6,309.1 3023.4,574.9 3022.2,574.6 			"/>
			<polygon id="_x31_46" class="st118" points="3089.2,309 3090.4,309.3 3024.2,575.1 3023,574.8 			"/>
			<polygon id="_x31_47" class="st119" points="3090,309.2 3091.2,309.5 3025,575.3 3023.8,575 			"/>
			<polygon id="_x31_48" class="st119" points="3090.8,309.4 3092,309.7 3025.8,575.5 3024.6,575.2 			"/>
			<polygon id="_x31_49" class="st120" points="3091.6,309.6 3092.8,309.9 3026.6,575.7 3025.4,575.4 			"/>
			<polygon id="_x31_50" class="st121" points="3092.4,309.8 3093.6,310.1 3027.4,575.9 3026.2,575.6 			"/>
			<polygon id="_x31_51" class="st122" points="3093.2,310 3094.4,310.3 3028.2,576.1 3027,575.8 			"/>
			<polygon id="_x31_52" class="st123" points="3094,310.2 3095.2,310.5 3029,576.3 3027.8,576 			"/>
			<polygon id="_x31_53" class="st123" points="3094.8,310.4 3096,310.7 3029.8,576.5 3028.6,576.2 			"/>
			<polygon id="_x31_54" class="st124" points="3095.6,310.6 3096.9,310.9 3030.7,576.7 3029.4,576.4 			"/>
			<polygon id="_x31_55" class="st125" points="3096.4,310.8 3097.7,311.1 3031.5,577 3030.2,576.6 			"/>
			<polygon id="_x31_56" class="st126" points="3097.3,311 3098.5,311.3 3032.3,577.2 3031.1,576.8 			"/>
			<polygon id="_x31_57" class="st127" points="3098.1,311.2 3099.3,311.5 3033.1,577.4 3031.9,577.1 			"/>
			<polygon id="_x31_58" class="st128" points="3098.9,311.4 3100.1,311.7 3033.9,577.6 3032.7,577.3 			"/>
			<polygon id="_x31_59" class="st128" points="3099.7,311.6 3100.9,311.9 3034.7,577.8 3033.5,577.5 			"/>
			<polygon id="_x31_60" class="st129" points="3100.5,311.8 3101.7,312.1 3035.5,578 3034.3,577.7 			"/>
			<polygon id="_x31_61" class="st129" points="3101.3,312 3102.5,312.3 3036.3,578.2 3035.1,577.9 			"/>
			<polygon id="_x31_62" class="st130" points="3102.1,312.2 3103.3,312.5 3037.1,578.4 3035.9,578.1 			"/>
			<polygon id="_x31_63" class="st130" points="3102.9,312.4 3104.1,312.7 3037.9,578.6 3036.7,578.3 			"/>
			<polygon id="_x31_64" class="st131" points="3103.7,312.6 3104.9,312.9 3038.7,578.8 3037.5,578.5 			"/>
			<polygon id="_x31_65" class="st131" points="3104.5,312.8 3105.7,313.1 3039.5,579 3038.3,578.7 			"/>
			<polygon id="_x31_66" class="st132" points="3105.3,313 3106.5,313.3 3040.3,579.2 3039.1,578.9 			"/>
			<polygon id="_x31_67" class="st133" points="3106.1,313.2 3107.4,313.5 3041.2,579.4 3039.9,579.1 			"/>
			<polygon id="_x31_68" class="st134" points="3106.9,313.4 3108.2,313.7 3042,579.6 3040.7,579.3 			"/>
			<polygon id="_x31_69" class="st135" points="3107.8,313.6 3109,313.9 3042.8,579.8 3041.6,579.5 			"/>
			<polygon id="_x31_70" class="st135" points="3108.6,313.8 3109.8,314.1 3043.6,580 3042.4,579.7 			"/>
			<polygon id="_x31_71" class="st136" points="3109.4,314 3110.6,314.3 3044.4,580.2 3043.2,579.9 			"/>
			<polygon id="_x31_72" class="st137" points="3110.2,314.2 3111.4,314.5 3045.2,580.4 3044,580.1 			"/>
			<polygon id="_x31_73" class="st138" points="3111,314.4 3112.2,314.7 3046,580.6 3044.8,580.3 			"/>
			<polygon id="_x31_74" class="st138" points="3111.8,314.6 3113,314.9 3046.8,580.8 3045.6,580.5 			"/>
			<polygon id="_x31_75" class="st139" points="3112.6,314.8 3113.8,315.1 3047.6,581 3046.4,580.7 			"/>
			<polygon id="_x31_76" class="st139" points="3113.4,315 3114.6,315.3 3048.4,581.2 3047.2,580.9 			"/>
			<polygon id="_x31_77" class="st140" points="3114.2,315.2 3115.4,315.5 3049.2,581.4 3048,581.1 			"/>
			<polygon id="_x31_78" class="st140" points="3115,315.4 3116.2,315.7 3050,581.6 3048.8,581.3 			"/>
			<polygon id="_x31_79" class="st141" points="3115.8,315.6 3117,315.9 3050.8,581.8 3049.6,581.5 			"/>
			<polygon id="_x31_80" class="st142" points="3116.6,315.8 3117.9,316.1 3051.7,582 3050.4,581.7 			"/>
			<polygon id="_x31_81" class="st143" points="3117.4,316 3118.7,316.3 3052.5,582.2 3051.2,581.9 			"/>
			<polygon id="_x31_82" class="st144" points="3118.3,316.2 3119.5,316.5 3053.3,582.4 3052.1,582.1 			"/>
			<polygon id="_x31_83" class="st145" points="3119.1,316.4 3120.3,316.7 3054.1,582.6 3052.9,582.3 			"/>
			<polygon id="_x31_84" class="st146" points="3119.9,316.6 3121.1,316.9 3054.9,582.8 3053.7,582.5 			"/>
			<polygon id="_x31_85" class="st147" points="3120.7,316.8 3121.9,317.1 3055.7,583 3054.5,582.7 			"/>
			<polygon id="_x31_86" class="st148" points="3121.5,317 3122.7,317.3 3056.5,583.2 3055.3,582.9 			"/>
			<polygon id="_x31_87" class="st149" points="3122.3,317.2 3123.5,317.5 3057.3,583.4 3056.1,583.1 			"/>
			<polygon id="_x31_88" class="st150" points="3123.1,317.4 3124.3,317.7 3058.1,583.6 3056.9,583.3 			"/>
			<polygon id="_x31_89" class="st151" points="3123.9,317.6 3125.1,317.9 3058.9,583.8 3057.7,583.5 			"/>
			<polygon id="_x31_90" class="st152" points="3124.7,317.8 3125.9,318.1 3059.7,584 3058.5,583.7 			"/>
			<polygon id="_x31_91" class="st153" points="3125.5,318 3126.7,318.3 3060.5,584.2 3059.3,583.9 			"/>
			<polygon id="_x31_92" class="st154" points="3126.3,318.2 3127.5,318.5 3061.3,584.4 3060.1,584.1 			"/>
			<polygon id="_x31_93" class="st155" points="3127.1,318.4 3128.4,318.7 3062.2,584.6 3060.9,584.3 			"/>
			<polygon id="_x31_94" class="st156" points="3127.9,318.6 3129.2,318.9 3063,584.8 3061.7,584.5 			"/>
			<polygon id="_x31_95" class="st157" points="3128.8,318.8 3130,319.1 3063.8,585 3062.6,584.7 			"/>
			<polygon id="_x31_96" class="st158" points="3129.6,319 3130.8,319.3 3064.6,585.2 3063.4,584.9 			"/>
			<polygon id="_x31_97" class="st159" points="3130.4,319.2 3131.6,319.5 3065.4,585.4 3064.2,585.1 			"/>
			<polygon id="_x31_98" class="st160" points="3131.2,319.4 3132.4,319.7 3066.2,585.6 3065,585.3 			"/>
			<polygon id="_x31_99" class="st161" points="3132,319.6 3133.2,319.9 3067,585.8 3065.8,585.5 			"/>
			<polygon id="_x32_00" class="st162" points="3132.8,319.8 3134,320.1 3067.8,586 3066.6,585.7 			"/>
			<polygon id="_x32_01" class="st163" points="3133.6,320 3134.8,320.3 3068.6,586.2 3067.4,585.9 			"/>
			<polygon id="_x32_02" class="st164" points="3134.4,320.2 3135.6,320.5 3069.4,586.4 3068.2,586.1 			"/>
			<polygon id="_x32_03" class="st165" points="3135.2,320.4 3136.4,320.7 3070.2,586.6 3069,586.3 			"/>
			<polygon id="_x32_04" class="st166" points="3136,320.6 3137.2,320.9 3071,586.8 3069.8,586.5 			"/>
			<polygon id="_x32_05" class="st167" points="3136.8,320.8 3138,321.1 3071.8,587 3070.6,586.7 			"/>
			<polygon id="_x32_06" class="st168" points="3137.6,321 3138.9,321.3 3072.7,587.2 3071.4,586.9 			"/>
			<polygon id="_x32_07" class="st169" points="3138.4,321.2 3139.7,321.6 3073.5,587.4 3072.2,587.1 			"/>
			<polygon id="_x32_08" class="st170" points="3139.3,321.5 3140.5,321.8 3074.3,587.6 3073.1,587.3 			"/>
			<polygon id="_x32_09" class="st171" points="3140.1,321.7 3141.3,322 3075.1,587.8 3073.9,587.5 			"/>
			<polygon id="_x32_10" class="st172" points="3140.9,321.9 3142.1,322.2 3075.9,588 3074.7,587.7 			"/>
			<polygon id="_x32_11" class="st173" points="3141.7,322.1 3142.9,322.4 3076.7,588.2 3075.5,587.9 			"/>
			<polygon id="_x32_12" class="st174" points="3142.5,322.3 3143.7,322.6 3077.5,588.4 3076.3,588.1 			"/>
			<polygon id="_x32_13" class="st175" points="3143.3,322.5 3144.5,322.8 3078.3,588.6 3077.1,588.3 			"/>
			<polygon id="_x32_14" class="st176" points="3144.1,322.7 3145.3,323 3079.1,588.8 3077.9,588.5 			"/>
			<polygon id="_x32_15" class="st177" points="3144.9,322.9 3146.1,323.2 3079.9,589 3078.7,588.7 			"/>
			<polygon id="_x32_16" class="st178" points="3145.7,323.1 3146.9,323.4 3080.7,589.2 3079.5,588.9 			"/>
			<polygon id="_x32_17" class="st179" points="3146.5,323.3 3147.7,323.6 3081.5,589.4 3080.3,589.1 			"/>
			<polygon id="_x32_18" class="st180" points="3147.3,323.5 3148.5,323.8 3082.3,589.6 3081.1,589.3 			"/>
			<polygon id="_x32_19" class="st181" points="3148.1,323.7 3149.4,324 3083.2,589.8 3081.9,589.5 			"/>
			<polygon id="_x32_20" class="st182" points="3148.9,323.9 3150.2,324.2 3084,590 3082.7,589.7 			"/>
			<polygon id="_x32_21" class="st183" points="3149.8,324.1 3151,324.4 3084.8,590.2 3083.6,589.9 			"/>
			<polygon id="_x32_22" class="st184" points="3150.6,324.3 3151.8,324.6 3085.6,590.4 3084.4,590.1 			"/>
			<polygon id="_x32_23" class="st185" points="3151.4,324.5 3152.6,324.8 3086.4,590.6 3085.2,590.3 			"/>
			<polygon id="_x32_24" class="st186" points="3152.2,324.7 3153.4,325 3087.2,590.8 3086,590.5 			"/>
			<polygon id="_x32_25" class="st187" points="3153,324.9 3154.2,325.2 3088,591 3086.8,590.7 			"/>
			<polygon id="_x32_26" class="st188" points="3153.8,325.1 3155,325.4 3088.8,591.2 3087.6,590.9 			"/>
			<polygon id="_x32_27" class="st189" points="3154.6,325.3 3155.8,325.6 3089.6,591.4 3088.4,591.1 			"/>
			<polygon id="_x32_28" class="st190" points="3155.4,325.5 3156.6,325.8 3090.4,591.6 3089.2,591.3 			"/>
			<polygon id="_x32_29" class="st191" points="3156.2,325.7 3157.4,326 3091.2,591.8 3090,591.5 			"/>
			<polygon id="_x32_30" class="st192" points="3157,325.9 3158.2,326.2 3092,592 3090.8,591.7 			"/>
			<polygon id="_x32_31" class="st193" points="3157.8,326.1 3159,326.4 3092.8,592.2 3091.6,591.9 			"/>
			<polygon id="_x32_32" class="st194" points="3158.6,326.3 3159.9,326.6 3093.7,592.4 3092.4,592.1 			"/>
			<polygon id="_x32_33" class="st195" points="3159.4,326.5 3160.7,326.8 3094.5,592.6 3093.2,592.3 			"/>
			<polygon id="_x32_34" class="st196" points="3160.3,326.7 3161.5,327 3095.3,592.8 3094.1,592.5 			"/>
			<polygon id="_x32_35" class="st197" points="3161.1,326.9 3162.3,327.2 3096.1,593 3094.9,592.7 			"/>
			<polygon id="_x32_36" class="st198" points="3161.9,327.1 3163.1,327.4 3096.9,593.2 3095.7,592.9 			"/>
			<polygon id="_x32_37" class="st199" points="3162.7,327.3 3163.9,327.6 3097.7,593.4 3096.5,593.1 			"/>
			<polygon id="_x32_38" class="st200" points="3163.5,327.5 3164.7,327.8 3098.5,593.6 3097.3,593.3 			"/>
			<polygon id="_x32_39" class="st201" points="3164.3,327.7 3165.5,328 3099.3,593.8 3098.1,593.5 			"/>
			<polygon id="_x32_40" class="st202" points="3165.1,327.9 3166.3,328.2 3100.1,594 3098.9,593.7 			"/>
			<polygon id="_x32_41" class="st203" points="3165.9,328.1 3167.1,328.4 3100.9,594.2 3099.7,593.9 			"/>
			<polygon id="_x32_42" class="st204" points="3166.7,328.3 3167.9,328.6 3101.7,594.4 3100.5,594.1 			"/>
			<polygon id="_x32_43" class="st205" points="3167.5,328.5 3168.7,328.8 3102.5,594.6 3101.3,594.3 			"/>
			<polygon id="_x32_44" class="st206" points="3168.3,328.7 3169.5,329 3103.3,594.8 3102.1,594.5 			"/>
			<polygon id="_x32_45" class="st207" points="3169.1,328.9 3170.4,329.2 3104.2,595.1 3102.9,594.7 			"/>
			<polygon id="_x32_46" class="st208" points="3169.9,329.1 3171.2,329.4 3105,595.3 3103.7,595 			"/>
			<polygon id="_x32_47" class="st209" points="3170.8,329.3 3172,329.6 3105.8,595.5 3104.6,595.2 			"/>
			<polygon id="_x32_48" class="st210" points="3171.6,329.5 3172.8,329.8 3106.6,595.7 3105.4,595.4 			"/>
			<polygon id="_x32_49" class="st211" points="3172.4,329.7 3173.6,330 3107.4,595.9 3106.2,595.6 			"/>
			<polygon id="_x32_50" class="st212" points="3173.2,329.9 3174.4,330.2 3108.2,596.1 3107,595.8 			"/>
			<polygon id="_x32_51" class="st213" points="3174,330.1 3175.2,330.4 3109,596.3 3107.8,596 			"/>
			<polygon id="_x32_52" class="st214" points="3174.8,330.3 3176,330.6 3109.8,596.5 3108.6,596.2 			"/>
			<polygon id="_x32_53" class="st215" points="3175.6,330.5 3176.8,330.8 3110.6,596.7 3109.4,596.4 			"/>
			<polygon id="_x32_54" class="st216" points="3176.4,330.7 3177.6,331 3111.4,596.9 3110.2,596.6 			"/>
			<polygon id="_x32_55" class="st217" points="3177.2,330.9 3178.4,331.2 3112.2,597.1 3111,596.8 			"/>
			<polygon id="_x32_56" class="st218" points="3178,331.1 3179.2,331.4 3113,597.3 3111.8,597 			"/>
			<polygon id="_x32_57" class="st219" points="3178.8,331.3 3180,331.6 3113.8,597.5 3112.6,597.2 			"/>
			<polygon id="_x32_58" class="st218" points="3179.6,331.5 3180.9,331.8 3114.7,597.7 3113.4,597.4 			"/>
			<polygon id="_x32_59" class="st217" points="3180.4,331.7 3181.7,332 3115.5,597.9 3114.2,597.6 			"/>
			<polygon id="_x32_60" class="st216" points="3181.3,331.9 3182.5,332.2 3116.3,598.1 3115.1,597.8 			"/>
			<polygon id="_x32_61" class="st215" points="3182.1,332.1 3183.3,332.4 3117.1,598.3 3115.9,598 			"/>
			<polygon id="_x32_62" class="st214" points="3182.9,332.3 3184.1,332.6 3117.9,598.5 3116.7,598.2 			"/>
			<polygon id="_x32_63" class="st213" points="3183.7,332.5 3184.9,332.8 3118.7,598.7 3117.5,598.4 			"/>
			<polygon id="_x32_64" class="st212" points="3184.5,332.7 3185.7,333 3119.5,598.9 3118.3,598.6 			"/>
			<polygon id="_x32_65" class="st211" points="3185.3,332.9 3186.5,333.2 3120.3,599.1 3119.1,598.8 			"/>
			<polygon id="_x32_66" class="st210" points="3186.1,333.1 3187.3,333.4 3121.1,599.3 3119.9,599 			"/>
			<polygon id="_x32_67" class="st209" points="3186.9,333.3 3188.1,333.6 3121.9,599.5 3120.7,599.2 			"/>
			<polygon id="_x32_68" class="st208" points="3187.7,333.5 3188.9,333.8 3122.7,599.7 3121.5,599.4 			"/>
			<polygon id="_x32_69" class="st207" points="3188.5,333.7 3189.7,334 3123.5,599.9 3122.3,599.6 			"/>
			<polygon id="_x32_70" class="st206" points="3189.3,333.9 3190.5,334.2 3124.3,600.1 3123.1,599.8 			"/>
			<polygon id="_x32_71" class="st205" points="3190.1,334.1 3191.4,334.4 3125.2,600.3 3123.9,600 			"/>
			<polygon id="_x32_72" class="st204" points="3190.9,334.3 3192.2,334.6 3126,600.5 3124.7,600.2 			"/>
			<polygon id="_x32_73" class="st203" points="3191.8,334.5 3193,334.8 3126.8,600.7 3125.6,600.4 			"/>
			<polygon id="_x32_74" class="st202" points="3192.6,334.7 3193.8,335 3127.6,600.9 3126.4,600.6 			"/>
			<polygon id="_x32_75" class="st201" points="3193.4,334.9 3194.6,335.2 3128.4,601.1 3127.2,600.8 			"/>
			<polygon id="_x32_76" class="st200" points="3194.2,335.1 3195.4,335.4 3129.2,601.3 3128,601 			"/>
			<polygon id="_x32_77" class="st199" points="3195,335.3 3196.2,335.6 3130,601.5 3128.8,601.2 			"/>
			<polygon id="_x32_78" class="st198" points="3195.8,335.5 3197,335.8 3130.8,601.7 3129.6,601.4 			"/>
			<polygon id="_x32_79" class="st197" points="3196.6,335.7 3197.8,336 3131.6,601.9 3130.4,601.6 			"/>
			<polygon id="_x32_80" class="st196" points="3197.4,335.9 3198.6,336.2 3132.4,602.1 3131.2,601.8 			"/>
			<polygon id="_x32_81" class="st195" points="3198.2,336.1 3199.4,336.4 3133.2,602.3 3132,602 			"/>
			<polygon id="_x32_82" class="st194" points="3199,336.3 3200.2,336.6 3134,602.5 3132.8,602.2 			"/>
			<polygon id="_x32_83" class="st193" points="3199.8,336.5 3201,336.8 3134.8,602.7 3133.6,602.4 			"/>
			<polygon id="_x32_84" class="st192" points="3200.6,336.7 3201.9,337 3135.7,602.9 3134.4,602.6 			"/>
			<polygon id="_x32_85" class="st191" points="3201.4,336.9 3202.7,337.2 3136.5,603.1 3135.2,602.8 			"/>
			<polygon id="_x32_86" class="st190" points="3202.3,337.1 3203.5,337.4 3137.3,603.3 3136.1,603 			"/>
			<polygon id="_x32_87" class="st189" points="3203.1,337.3 3204.3,337.6 3138.1,603.5 3136.9,603.2 			"/>
			<polygon id="_x32_88" class="st188" points="3203.9,337.5 3205.1,337.8 3138.9,603.7 3137.7,603.4 			"/>
			<polygon id="_x32_89" class="st187" points="3204.7,337.7 3205.9,338 3139.7,603.9 3138.5,603.6 			"/>
			<polygon id="_x32_90" class="st186" points="3205.5,337.9 3206.7,338.2 3140.5,604.1 3139.3,603.8 			"/>
			<polygon id="_x32_91" class="st185" points="3206.3,338.1 3207.5,338.4 3141.3,604.3 3140.1,604 			"/>
			<polygon id="_x32_92" class="st184" points="3207.1,338.3 3208.3,338.6 3142.1,604.5 3140.9,604.2 			"/>
			<polygon id="_x32_93" class="st183" points="3207.9,338.5 3209.1,338.8 3142.9,604.7 3141.7,604.4 			"/>
			<polygon id="_x32_94" class="st182" points="3208.7,338.7 3209.9,339 3143.7,604.9 3142.5,604.6 			"/>
			<polygon id="_x32_95" class="st181" points="3209.5,338.9 3210.7,339.2 3144.5,605.1 3143.3,604.8 			"/>
			<polygon id="_x32_96" class="st180" points="3210.3,339.1 3211.5,339.5 3145.3,605.3 3144.1,605 			"/>
			<polygon id="_x32_97" class="st179" points="3211.1,339.4 3212.4,339.7 3146.2,605.5 3144.9,605.2 			"/>
			<polygon id="_x32_98" class="st178" points="3211.9,339.6 3213.2,339.9 3147,605.7 3145.7,605.4 			"/>
			<polygon id="_x32_99" class="st177" points="3212.8,339.8 3214,340.1 3147.8,605.9 3146.6,605.6 			"/>
			<polygon id="_x33_00" class="st176" points="3213.6,340 3214.8,340.3 3148.6,606.1 3147.4,605.8 			"/>
			<polygon id="_x33_01" class="st175" points="3214.4,340.2 3215.6,340.5 3149.4,606.3 3148.2,606 			"/>
			<polygon id="_x33_02" class="st174" points="3215.2,340.4 3216.4,340.7 3150.2,606.5 3149,606.2 			"/>
			<polygon id="_x33_03" class="st173" points="3216,340.6 3217.2,340.9 3151,606.7 3149.8,606.4 			"/>
			<polygon id="_x33_04" class="st172" points="3216.8,340.8 3218,341.1 3151.8,606.9 3150.6,606.6 			"/>
			<polygon id="_x33_05" class="st171" points="3217.6,341 3218.8,341.3 3152.6,607.1 3151.4,606.8 			"/>
			<polygon id="_x33_06" class="st170" points="3218.4,341.2 3219.6,341.5 3153.4,607.3 3152.2,607 			"/>
			<polygon id="_x33_07" class="st169" points="3219.2,341.4 3220.4,341.7 3154.2,607.5 3153,607.2 			"/>
			<polygon id="_x33_08" class="st168" points="3220,341.6 3221.2,341.9 3155,607.7 3153.8,607.4 			"/>
			<polygon id="_x33_09" class="st167" points="3220.8,341.8 3222,342.1 3155.8,607.9 3154.6,607.6 			"/>
			<polygon id="_x33_10" class="st166" points="3221.6,342 3222.9,342.3 3156.7,608.1 3155.4,607.8 			"/>
			<polygon id="_x33_11" class="st165" points="3222.4,342.2 3223.7,342.5 3157.5,608.3 3156.2,608 			"/>
			<polygon id="_x33_12" class="st164" points="3223.3,342.4 3224.5,342.7 3158.3,608.5 3157.1,608.2 			"/>
			<polygon id="_x33_13" class="st163" points="3224.1,342.6 3225.3,342.9 3159.1,608.7 3157.9,608.4 			"/>
			<polygon id="_x33_14" class="st162" points="3224.9,342.8 3226.1,343.1 3159.9,608.9 3158.7,608.6 			"/>
			<polygon id="_x33_15" class="st161" points="3225.7,343 3226.9,343.3 3160.7,609.1 3159.5,608.8 			"/>
			<polygon id="_x33_16" class="st160" points="3226.5,343.2 3227.7,343.5 3161.5,609.3 3160.3,609 			"/>
			<polygon id="_x33_17" class="st159" points="3227.3,343.4 3228.5,343.7 3162.3,609.5 3161.1,609.2 			"/>
			<polygon id="_x33_18" class="st158" points="3228.1,343.6 3229.3,343.9 3163.1,609.7 3161.9,609.4 			"/>
			<polygon id="_x33_19" class="st157" points="3228.9,343.8 3230.1,344.1 3163.9,609.9 3162.7,609.6 			"/>
			<polygon id="_x33_20" class="st156" points="3229.7,344 3230.9,344.3 3164.7,610.1 3163.5,609.8 			"/>
			<polygon id="_x33_21" class="st155" points="3230.5,344.2 3231.7,344.5 3165.5,610.3 3164.3,610 			"/>
			<polygon id="_x33_22" class="st154" points="3231.3,344.4 3232.5,344.7 3166.3,610.5 3165.1,610.2 			"/>
			<polygon id="_x33_23" class="st153" points="3232.1,344.6 3233.4,344.9 3167.2,610.7 3165.9,610.4 			"/>
			<polygon id="_x33_24" class="st152" points="3232.9,344.8 3234.2,345.1 3168,610.9 3166.7,610.6 			"/>
			<polygon id="_x33_25" class="st151" points="3233.8,345 3235,345.3 3168.8,611.1 3167.6,610.8 			"/>
			<polygon id="_x33_26" class="st150" points="3234.6,345.2 3235.8,345.5 3169.6,611.3 3168.4,611 			"/>
			<polygon id="_x33_27" class="st149" points="3235.4,345.4 3236.6,345.7 3170.4,611.5 3169.2,611.2 			"/>
			<polygon id="_x33_28" class="st148" points="3236.2,345.6 3237.4,345.9 3171.2,611.7 3170,611.4 			"/>
			<polygon id="_x33_29" class="st147" points="3237,345.8 3238.2,346.1 3172,611.9 3170.8,611.6 			"/>
			<polygon id="_x33_30" class="st146" points="3237.8,346 3239,346.3 3172.8,612.1 3171.6,611.8 			"/>
			<polygon id="_x33_31" class="st145" points="3238.6,346.2 3239.8,346.5 3173.6,612.3 3172.4,612 			"/>
			<polygon id="_x33_32" class="st144" points="3239.4,346.4 3240.6,346.7 3174.4,612.5 3173.2,612.2 			"/>
			<polygon id="_x33_33" class="st143" points="3240.2,346.6 3241.4,346.9 3175.2,612.7 3174,612.4 			"/>
			<polygon id="_x33_34" class="st142" points="3241,346.8 3242.2,347.1 3176,613 3174.8,612.6 			"/>
			<polygon id="_x33_35" class="st141" points="3241.8,347 3243,347.3 3176.8,613.2 3175.6,612.9 			"/>
			<polygon id="_x33_36" class="st140" points="3242.6,347.2 3243.9,347.5 3177.7,613.4 3176.4,613.1 			"/>
			<polygon id="_x33_37" class="st140" points="3243.4,347.4 3244.7,347.7 3178.5,613.6 3177.2,613.3 			"/>
			<polygon id="_x33_38" class="st139" points="3244.3,347.6 3245.5,347.9 3179.3,613.8 3178.1,613.5 			"/>
			<polygon id="_x33_39" class="st139" points="3245.1,347.8 3246.3,348.1 3180.1,614 3178.9,613.7 			"/>
			<polygon id="_x33_40" class="st138" points="3245.9,348 3247.1,348.3 3180.9,614.2 3179.7,613.9 			"/>
			<polygon id="_x33_41" class="st138" points="3246.7,348.2 3247.9,348.5 3181.7,614.4 3180.5,614.1 			"/>
			<polygon id="_x33_42" class="st137" points="3247.5,348.4 3248.7,348.7 3182.5,614.6 3181.3,614.3 			"/>
			<polygon id="_x33_43" class="st136" points="3248.3,348.6 3249.5,348.9 3183.3,614.8 3182.1,614.5 			"/>
			<polygon id="_x33_44" class="st135" points="3249.1,348.8 3250.3,349.1 3184.1,615 3182.9,614.7 			"/>
			<polygon id="_x33_45" class="st135" points="3249.9,349 3251.1,349.3 3184.9,615.2 3183.7,614.9 			"/>
			<polygon id="_x33_46" class="st134" points="3250.7,349.2 3251.9,349.5 3185.7,615.4 3184.5,615.1 			"/>
			<polygon id="_x33_47" class="st133" points="3251.5,349.4 3252.7,349.7 3186.5,615.6 3185.3,615.3 			"/>
			<polygon id="_x33_48" class="st132" points="3252.3,349.6 3253.5,349.9 3187.3,615.8 3186.1,615.5 			"/>
			<polygon id="_x33_49" class="st131" points="3253.1,349.8 3254.4,350.1 3188.2,616 3186.9,615.7 			"/>
			<polygon id="_x33_50" class="st131" points="3253.9,350 3255.2,350.3 3189,616.2 3187.7,615.9 			"/>
			<polygon id="_x33_51" class="st130" points="3254.8,350.2 3256,350.5 3189.8,616.4 3188.6,616.1 			"/>
			<polygon id="_x33_52" class="st130" points="3255.6,350.4 3256.8,350.7 3190.6,616.6 3189.4,616.3 			"/>
			<polygon id="_x33_53" class="st129" points="3256.4,350.6 3257.6,350.9 3191.4,616.8 3190.2,616.5 			"/>
			<polygon id="_x33_54" class="st129" points="3257.2,350.8 3258.4,351.1 3192.2,617 3191,616.7 			"/>
			<polygon id="_x33_55" class="st128" points="3258,351 3259.2,351.3 3193,617.2 3191.8,616.9 			"/>
			<polygon id="_x33_56" class="st128" points="3258.8,351.2 3260,351.5 3193.8,617.4 3192.6,617.1 			"/>
			<polygon id="_x33_57" class="st127" points="3259.6,351.4 3260.8,351.7 3194.6,617.6 3193.4,617.3 			"/>
			<polygon id="_x33_58" class="st126" points="3260.4,351.6 3261.6,351.9 3195.4,617.8 3194.2,617.5 			"/>
			<polygon id="_x33_59" class="st125" points="3261.2,351.8 3262.4,352.1 3196.2,618 3195,617.7 			"/>
			<polygon id="_x33_60" class="st124" points="3262,352 3263.2,352.3 3197,618.2 3195.8,617.9 			"/>
			<polygon id="_x33_61" class="st123" points="3262.8,352.2 3264,352.5 3197.8,618.4 3196.6,618.1 			"/>
			<polygon id="_x33_62" class="st123" points="3263.6,352.4 3264.9,352.7 3198.7,618.6 3197.4,618.3 			"/>
			<polygon id="_x33_63" class="st122" points="3264.4,352.6 3265.7,352.9 3199.5,618.8 3198.2,618.5 			"/>
			<polygon id="_x33_64" class="st121" points="3265.3,352.8 3266.5,353.1 3200.3,619 3199.1,618.7 			"/>
			<polygon id="_x33_65" class="st120" points="3266.1,353 3267.3,353.3 3201.1,619.2 3199.9,618.9 			"/>
			<polygon id="_x33_66" class="st119" points="3266.9,353.2 3268.1,353.5 3201.9,619.4 3200.7,619.1 			"/>
			<polygon id="_x33_67" class="st119" points="3267.7,353.4 3268.9,353.7 3202.7,619.6 3201.5,619.3 			"/>
			<polygon id="_x33_68" class="st118" points="3268.5,353.6 3269.7,353.9 3203.5,619.8 3202.3,619.5 			"/>
			<polygon id="_x33_69" class="st118" points="3269.3,353.8 3270.5,354.1 3204.3,620 3203.1,619.7 			"/>
			<polygon id="_x33_70" class="st117" points="3270.1,354 3271.3,354.3 3205.1,620.2 3203.9,619.9 			"/>
			<polygon id="_x33_71" class="st117" points="3270.9,354.2 3272.1,354.5 3205.9,620.4 3204.7,620.1 			"/>
			<polygon id="_x33_72" class="st116" points="3271.7,354.4 3272.9,354.7 3206.7,620.6 3205.5,620.3 			"/>
			<polygon id="_x33_73" class="st115" points="3272.5,354.6 3273.7,354.9 3207.5,620.8 3206.3,620.5 			"/>
			<polygon id="_x33_74" class="st114" points="3273.3,354.8 3274.5,355.1 3208.3,621 3207.1,620.7 			"/>
			<polygon id="_x33_75" class="st113" points="3274.1,355 3275.4,355.3 3209.2,621.2 3207.9,620.9 			"/>
			<polygon id="_x33_76" class="st112" points="3274.9,355.2 3276.2,355.5 3210,621.4 3208.7,621.1 			"/>
			<polygon id="_x33_77" class="st112" points="3275.8,355.4 3277,355.7 3210.8,621.6 3209.6,621.3 			"/>
			<polygon id="_x33_78" class="st111" points="3276.6,355.6 3277.8,355.9 3211.6,621.8 3210.4,621.5 			"/>
			<polygon id="_x33_79" class="st111" points="3277.4,355.8 3278.6,356.1 3212.4,622 3211.2,621.7 			"/>
			<polygon id="_x33_80" class="st110" points="3278.2,356 3279.4,356.3 3213.2,622.2 3212,621.9 			"/>
			<polygon id="_x33_81" class="st109" points="3279,356.2 3280.2,356.5 3214,622.4 3212.8,622.1 			"/>
			<polygon id="_x33_82" class="st109" points="3279.8,356.4 3281,356.7 3214.8,622.6 3213.6,622.3 			"/>
			<polygon id="_x33_83" class="st108" points="3280.6,356.6 3281.8,356.9 3215.6,622.8 3214.4,622.5 			"/>
			<polygon id="_x33_84" class="st108" points="3281.4,356.8 3282.6,357.1 3216.4,623 3215.2,622.7 			"/>
			<polygon id="_x33_85" class="st107" points="3282.2,357 3283.4,357.4 3217.2,623.2 3216,622.9 			"/>
			<polygon id="_x33_86" class="st106" points="3283,357.2 3284.2,357.6 3218,623.4 3216.8,623.1 			"/>
			<polygon id="_x33_87" class="st105" points="3283.8,357.5 3285,357.8 3218.8,623.6 3217.6,623.3 			"/>
			<polygon id="_x33_88" class="st104" points="3284.6,357.7 3285.9,358 3219.7,623.8 3218.4,623.5 			"/>
			<polygon id="_x33_89" class="st103" points="3285.4,357.9 3286.7,358.2 3220.5,624 3219.2,623.7 			"/>
			<polygon id="_x33_90" class="st103" points="3286.3,358.1 3287.5,358.4 3221.3,624.2 3220.1,623.9 			"/>
			<polygon id="_x33_91" class="st102" points="3287.1,358.3 3288.3,358.6 3222.1,624.4 3220.9,624.1 			"/>
			<polygon id="_x33_92" class="st102" points="3287.9,358.5 3289.1,358.8 3222.9,624.6 3221.7,624.3 			"/>
			<polygon id="_x33_93" class="st101" points="3288.7,358.7 3289.9,359 3223.7,624.8 3222.5,624.5 			"/>
			<polygon id="_x33_94" class="st101" points="3289.5,358.9 3290.7,359.2 3224.5,625 3223.3,624.7 			"/>
			<polygon id="_x33_95" class="st100" points="3290.3,359.1 3291.5,359.4 3225.3,625.2 3224.1,624.9 			"/>
			<polygon id="_x33_96" class="st99" points="3291.1,359.3 3292.3,359.6 3226.1,625.4 3224.9,625.1 			"/>
			<polygon id="_x33_97" class="st98" points="3291.9,359.5 3293.1,359.8 3226.9,625.6 3225.7,625.3 			"/>
			<polygon id="_x33_98" class="st97" points="3292.7,359.7 3293.9,360 3227.7,625.8 3226.5,625.5 			"/>
			<polygon id="_x33_99" class="st97" points="3293.5,359.9 3294.7,360.2 3228.5,626 3227.3,625.7 			"/>
			<polygon id="_x34_00" class="st96" points="3294.3,360.1 3295.5,360.4 3229.3,626.2 3228.1,625.9 			"/>
			<polygon id="_x34_01" class="st95" points="3295.1,360.3 3296.4,360.6 3230.2,626.4 3228.9,626.1 			"/>
			<polygon id="_x34_02" class="st94" points="3295.9,360.5 3297.2,360.8 3231,626.6 3229.7,626.3 			"/>
			<polygon id="_x34_03" class="st93" points="3296.8,360.7 3298,361 3231.8,626.8 3230.6,626.5 			"/>
			<polygon id="_x34_04" class="st92" points="3297.6,360.9 3298.8,361.2 3232.6,627 3231.4,626.7 			"/>
			<polygon id="_x34_05" class="st92" points="3298.4,361.1 3299.6,361.4 3233.4,627.2 3232.2,626.9 			"/>
			<polygon id="_x34_06" class="st91" points="3299.2,361.3 3300.4,361.6 3234.2,627.4 3233,627.1 			"/>
			<polygon id="_x34_07" class="st91" points="3300,361.5 3301.2,361.8 3235,627.6 3233.8,627.3 			"/>
			<polygon id="_x34_08" class="st90" points="3300.8,361.7 3302,362 3235.8,627.8 3234.6,627.5 			"/>
			<polygon id="_x34_09" class="st90" points="3301.6,361.9 3302.8,362.2 3236.6,628 3235.4,627.7 			"/>
			<polygon id="_x34_10" class="st89" points="3302.4,362.1 3303.6,362.4 3237.4,628.2 3236.2,627.9 			"/>
			<polygon id="_x34_11" class="st88" points="3303.2,362.3 3304.4,362.6 3238.2,628.4 3237,628.1 			"/>
			<polygon id="_x34_12" class="st87" points="3304,362.5 3305.2,362.8 3239,628.6 3237.8,628.3 			"/>
			<polygon id="_x34_13" class="st86" points="3304.8,362.7 3306,363 3239.8,628.8 3238.6,628.5 			"/>
			<polygon id="_x34_14" class="st86" points="3305.6,362.9 3306.9,363.2 3240.7,629 3239.4,628.7 			"/>
			<polygon id="_x34_15" class="st85" points="3306.4,363.1 3307.7,363.4 3241.5,629.2 3240.2,628.9 			"/>
			<polygon id="_x34_16" class="st84" points="3307.3,363.3 3308.5,363.6 3242.3,629.4 3241.1,629.1 			"/>
			<polygon id="_x34_17" class="st83" points="3308.1,363.5 3309.3,363.8 3243.1,629.6 3241.9,629.3 			"/>
			<polygon id="_x34_18" class="st82" points="3308.9,363.7 3310.1,364 3243.9,629.8 3242.7,629.5 			"/>
			<polygon id="_x34_19" class="st81" points="3309.7,363.9 3310.9,364.2 3244.7,630 3243.5,629.7 			"/>
			<polygon id="_x34_20" class="st81" points="3310.5,364.1 3311.7,364.4 3245.5,630.2 3244.3,629.9 			"/>
			<polygon id="_x34_21" class="st80" points="3311.3,364.3 3312.5,364.6 3246.3,630.4 3245.1,630.1 			"/>
			<polygon id="_x34_22" class="st80" points="3312.1,364.5 3313.3,364.8 3247.1,630.6 3245.9,630.3 			"/>
			<polygon id="_x34_23" class="st79" points="3312.9,364.7 3314.1,365 3247.9,630.9 3246.7,630.5 			"/>
			<polygon id="_x34_24" class="st79" points="3313.7,364.9 3314.9,365.2 3248.7,631.1 3247.5,630.8 			"/>
			<polygon id="_x34_25" class="st78" points="3314.5,365.1 3315.7,365.4 3249.5,631.3 3248.3,631 			"/>
			<polygon id="_x34_26" class="st77" points="3315.3,365.3 3316.5,365.6 3250.3,631.5 3249.1,631.2 			"/>
			<polygon id="_x34_27" class="st76" points="3316.1,365.5 3317.4,365.8 3251.2,631.7 3249.9,631.4 			"/>
			<polygon id="_x34_28" class="st76" points="3316.9,365.7 3318.2,366 3252,631.9 3250.7,631.6 			"/>
			<polygon id="_x34_29" class="st75" points="3317.8,365.9 3319,366.2 3252.8,632.1 3251.6,631.8 			"/>
			<polygon id="_x34_30" class="st74" points="3318.6,366.1 3319.8,366.4 3253.6,632.3 3252.4,632 			"/>
			<polygon id="_x34_31" class="st73" points="3319.4,366.3 3320.6,366.6 3254.4,632.5 3253.2,632.2 			"/>
			<polygon id="_x34_32" class="st72" points="3320.2,366.5 3321.4,366.8 3255.2,632.7 3254,632.4 			"/>
			<polygon id="_x34_33" class="st71" points="3321,366.7 3322.2,367 3256,632.9 3254.8,632.6 			"/>
			<polygon id="_x34_34" class="st70" points="3321.8,366.9 3323,367.2 3256.8,633.1 3255.6,632.8 			"/>
			<polygon id="_x34_35" class="st70" points="3322.6,367.1 3323.8,367.4 3257.6,633.3 3256.4,633 			"/>
			<polygon id="_x34_36" class="st69" points="3323.4,367.3 3324.6,367.6 3258.4,633.5 3257.2,633.2 			"/>
			<polygon id="_x34_37" class="st69" points="3324.2,367.5 3325.4,367.8 3259.2,633.7 3258,633.4 			"/>
			<polygon id="_x34_38" class="st68" points="3325,367.7 3326.2,368 3260,633.9 3258.8,633.6 			"/>
			<polygon id="_x34_39" class="st68" points="3325.8,367.9 3327,368.2 3260.8,634.1 3259.6,633.8 			"/>
			<polygon id="_x34_40" class="st67" points="3326.6,368.1 3327.9,368.4 3261.7,634.3 3260.4,634 			"/>
			<polygon id="_x34_41" class="st66" points="3327.4,368.3 3328.7,368.6 3262.5,634.5 3261.2,634.2 			"/>
			<polygon id="_x34_42" class="st65" points="3328.3,368.5 3329.5,368.8 3263.3,634.7 3262.1,634.4 			"/>
			<polygon id="_x34_43" class="st64" points="3329.1,368.7 3330.3,369 3264.1,634.9 3262.9,634.6 			"/>
			<polygon id="_x34_44" class="st63" points="3329.9,368.9 3331.1,369.2 3264.9,635.1 3263.7,634.8 			"/>
			<polygon id="_x34_45" class="st63" points="3330.7,369.1 3331.9,369.4 3265.7,635.3 3264.5,635 			"/>
			<polygon id="_x34_46" class="st62" points="3331.5,369.3 3332.7,369.6 3266.5,635.5 3265.3,635.2 			"/>
			<polygon id="_x34_47" class="st61" points="3332.3,369.5 3333.5,369.8 3267.3,635.7 3266.1,635.4 			"/>
			<polygon id="_x34_48" class="st60" points="3333.1,369.7 3334.3,370 3268.1,635.9 3266.9,635.6 			"/>
			<polygon id="_x34_49" class="st59" points="3333.9,369.9 3335.1,370.2 3268.9,636.1 3267.7,635.8 			"/>
			<polygon id="_x34_50" class="st59" points="3334.7,370.1 3335.9,370.4 3269.7,636.3 3268.5,636 			"/>
			<polygon id="_x34_51" class="st58" points="3335.5,370.3 3336.7,370.6 3270.5,636.5 3269.3,636.2 			"/>
			<polygon id="_x34_52" class="st58" points="3336.3,370.5 3337.5,370.8 3271.3,636.7 3270.1,636.4 			"/>
			<polygon id="_x34_53" class="st57" points="3337.1,370.7 3338.4,371 3272.2,636.9 3270.9,636.6 			"/>
			<polygon id="_x34_54" class="st57" points="3337.9,370.9 3339.2,371.2 3273,637.1 3271.7,636.8 			"/>
			<polygon id="_x34_55" class="st56" points="3338.8,371.1 3340,371.4 3273.8,637.3 3272.6,637 			"/>
			<polygon id="_x34_56" class="st55" points="3339.6,371.3 3340.8,371.6 3274.6,637.5 3273.4,637.2 			"/>
			<polygon id="_x34_57" class="st54" points="3340.4,371.5 3341.6,371.8 3275.4,637.7 3274.2,637.4 			"/>
			<polygon id="_x34_58" class="st53" points="3341.2,371.7 3342.4,372 3276.2,637.9 3275,637.6 			"/>
			<polygon id="_x34_59" class="st52" points="3342,371.9 3343.2,372.2 3277,638.1 3275.8,637.8 			"/>
			<polygon id="_x34_60" class="st52" points="3342.8,372.1 3344,372.4 3277.8,638.3 3276.6,638 			"/>
			<polygon id="_x34_61" class="st51" points="3343.6,372.3 3344.8,372.6 3278.6,638.5 3277.4,638.2 			"/>
			<polygon id="_x34_62" class="st51" points="3344.4,372.5 3345.6,372.8 3279.4,638.7 3278.2,638.4 			"/>
			<polygon id="_x34_63" class="st50" points="3345.2,372.7 3346.4,373 3280.2,638.9 3279,638.6 			"/>
			<polygon id="_x34_64" class="st49" points="3346,372.9 3347.2,373.2 3281,639.1 3279.8,638.8 			"/>
			<polygon id="_x34_65" class="st49" points="3346.8,373.1 3348,373.4 3281.8,639.3 3280.6,639 			"/>
			<polygon id="_x34_66" class="st48" points="3347.6,373.3 3348.9,373.6 3282.7,639.5 3281.4,639.2 			"/>
			<polygon id="_x34_67" class="st48" points="3348.4,373.5 3349.7,373.8 3283.5,639.7 3282.2,639.4 			"/>
			<polygon id="_x34_68" class="st47" points="3349.3,373.7 3350.5,374 3284.3,639.9 3283.1,639.6 			"/>
			<polygon id="_x34_69" class="st47" points="3350.1,373.9 3351.3,374.2 3285.1,640.1 3283.9,639.8 			"/>
			<polygon id="_x34_70" class="st46" points="3350.9,374.1 3352.1,374.4 3285.9,640.3 3284.7,640 			"/>
			<polygon id="_x34_71" class="st45" points="3351.7,374.3 3352.9,374.6 3286.7,640.5 3285.5,640.2 			"/>
			<polygon id="_x34_72" class="st44" points="3352.5,374.5 3353.7,374.8 3287.5,640.7 3286.3,640.4 			"/>
			<polygon id="_x34_73" class="st44" points="3353.3,374.7 3354.5,375 3288.3,640.9 3287.1,640.6 			"/>
			<polygon id="_x34_74" class="st43" points="3354.1,374.9 3355.3,375.3 3289.1,641.1 3287.9,640.8 			"/>
			<polygon id="_x34_75" class="st43" points="3354.9,375.1 3356.1,375.5 3289.9,641.3 3288.7,641 			"/>
			<polygon id="_x34_76" class="st42" points="3355.7,375.4 3356.9,375.7 3290.7,641.5 3289.5,641.2 			"/>
			<polygon id="_x34_77" class="st42" points="3356.5,375.6 3357.7,375.9 3291.5,641.7 3290.3,641.4 			"/>
			<polygon id="_x34_78" class="st41" points="3357.3,375.8 3358.5,376.1 3292.3,641.9 3291.1,641.6 			"/>
			<polygon id="_x34_79" class="st40" points="3358.1,376 3359.4,376.3 3293.2,642.1 3291.9,641.8 			"/>
			<polygon id="_x34_80" class="st40" points="3358.9,376.2 3360.2,376.5 3294,642.3 3292.7,642 			"/>
			<polygon id="_x34_81" class="st39" points="3359.8,376.4 3361,376.7 3294.8,642.5 3293.6,642.2 			"/>
			<polygon id="_x34_82" class="st39" points="3360.6,376.6 3361.8,376.9 3295.6,642.7 3294.4,642.4 			"/>
			<polygon id="_x34_83" class="st38" points="3361.4,376.8 3362.6,377.1 3296.4,642.9 3295.2,642.6 			"/>
			<polygon id="_x34_84" class="st37" points="3362.2,377 3363.4,377.3 3297.2,643.1 3296,642.8 			"/>
			<polygon id="_x34_85" class="st36" points="3363,377.2 3364.2,377.5 3298,643.3 3296.8,643 			"/>
			<polygon id="_x34_86" class="st35" points="3363.8,377.4 3365,377.7 3298.8,643.5 3297.6,643.2 			"/>
			<polygon id="_x34_87" class="st34" points="3364.6,377.6 3365.8,377.9 3299.6,643.7 3298.4,643.4 			"/>
			<polygon id="_x34_88" class="st34" points="3365.4,377.8 3366.6,378.1 3300.4,643.9 3299.2,643.6 			"/>
			<polygon id="_x34_89" class="st33" points="3366.2,378 3367.4,378.3 3301.2,644.1 3300,643.8 			"/>
			<polygon id="_x34_90" class="st33" points="3367,378.2 3368.2,378.5 3302,644.3 3300.8,644 			"/>
			<polygon id="_x34_91" class="st32" points="3367.8,378.4 3369,378.7 3302.8,644.5 3301.6,644.2 			"/>
			<polygon id="_x34_92" class="st32" points="3368.6,378.6 3369.9,378.9 3303.7,644.7 3302.4,644.4 			"/>
			<polygon id="_x34_93" class="st31" points="3369.4,378.8 3370.7,379.1 3304.5,644.9 3303.2,644.6 			"/>
			<polygon id="_x34_94" class="st30" points="3370.3,379 3371.5,379.3 3305.3,645.1 3304.1,644.8 			"/>
			<polygon id="_x34_95" class="st29" points="3371.1,379.2 3372.3,379.5 3306.1,645.3 3304.9,645 			"/>
			<polygon id="_x34_96" class="st28" points="3371.9,379.4 3373.1,379.7 3306.9,645.5 3305.7,645.2 			"/>
			<polygon id="_x34_97" class="st28" points="3372.7,379.6 3373.9,379.9 3307.7,645.7 3306.5,645.4 			"/>
			<polygon id="_x34_98" class="st27" points="3373.5,379.8 3374.7,380.1 3308.5,645.9 3307.3,645.6 			"/>
			<polygon id="_x34_99" class="st26" points="3374.3,380 3375.5,380.3 3309.3,646.1 3308.1,645.8 			"/>
			<polygon id="_x35_00" class="st25" points="3375.1,380.2 3376.3,380.5 3310.1,646.3 3308.9,646 			"/>
			<polygon id="_x35_01" class="st24" points="3375.9,380.4 3377.1,380.7 3310.9,646.5 3309.7,646.2 			"/>
			<polygon id="_x35_02" class="st23" points="3376.7,380.6 3377.9,380.9 3311.7,646.7 3310.5,646.4 			"/>
			<polygon id="_x35_03" class="st23" points="3377.5,380.8 3378.7,381.1 3312.5,646.9 3311.3,646.6 			"/>
			<polygon id="_x35_04" class="st22" points="3378.3,381 3379.5,381.3 3313.3,647.1 3312.1,646.8 			"/>
			<polygon id="_x35_05" class="st22" points="3379.1,381.2 3380.4,381.5 3314.2,647.3 3312.9,647 			"/>
			<polygon id="_x35_06" class="st21" points="3379.9,381.4 3381.2,381.7 3315,647.5 3313.7,647.2 			"/>
			<polygon id="_x35_07" class="st21" points="3380.8,381.6 3382,381.9 3315.8,647.7 3314.6,647.4 			"/>
			<polygon id="_x35_08" class="st20" points="3381.6,381.8 3382.8,382.1 3316.6,647.9 3315.4,647.6 			"/>
			<polygon id="_x35_09" class="st19" points="3382.4,382 3383.6,382.3 3317.4,648.1 3316.2,647.8 			"/>
			<polygon id="_x35_10" class="st16" points="3383.2,382.2 3384.4,382.5 3318.2,648.3 3317,648 			"/>
			<polygon id="_x35_11" class="st17" points="3384,382.4 3385.2,382.7 3319,648.5 3317.8,648.2 			"/>
			<polygon id="_x35_12" class="st18" points="3384.8,382.6 3386,382.9 3319.8,648.8 3318.6,648.4 			"/>
			<polygon id="_x35_13" class="st17" points="3385.6,382.8 3386.8,383.1 3320.6,649 3319.4,648.6 			"/>
			<polygon id="_x35_14" class="st16" points="3386.4,383 3385.9,382.9 3319.7,648.7 3320.2,648.9 			"/>
		</g>
	</g>
	<path id="_x35_15" class="st220" d="M3017.1,291.9l322.6,79.5c25.1,6.2,40.5,31.8,34.4,56.8l-42.9,174
		c-6.2,25.1-31.8,40.5-56.8,34.4L2951.8,557c-25.1-6.2-40.5-31.8-34.4-56.8l42.9-174C2966.5,301.2,2992.1,285.7,3017.1,291.9
		L3017.1,291.9z"/>
</g>
<path class="st221" d="M3016.7,211.1l360.8,89c28.6,7.1,46.3,36.2,39.2,64.9l-89,360.8c-7.1,28.6-36.2,46.3-64.9,39.2l-360.8-89
	c-28.6-7.1-46.3-36.2-39.2-64.9l89-360.8C2959,221.7,2988.1,204.1,3016.7,211.1z M3312.6,585.9c20.2-99.9-41.3-201.7-141.2-226.3
	c-99.9-24.6-203.5,36.6-230,134.9l0,0c0,0,0,0,0,0c7.2,2.2,0,0,7.2,2.2c4.1,1.3,5.6,1,7.2-0.8c2-2.6,2.9-6.6,4.2-9.8
	c1.2-3,2.4-6.2,3.7-9.1c2-4.6,5.4-13.4,9.5-14.6c3.7-1.1,6.1,1.4,6.8,4c1.4,5.7-1.8,22.7-2.7,29.1l-3.3,20.4
	c0.4-0.4,11.4-33.9,14.3-40.6c1.6-3.6,4.1-8.6,8.1-7.9c4.9,0.8,4.9,5.9,4.7,10c-0.2,4.6-1,9.3-1.7,14c-0.6,4.4-1.4,9.7-2.3,14.2
	c-0.9,4.8-1.4,9.7-2.4,14.5c0.4-0.3,0,0.3,0.5-0.5l3.9-11.5c1.2-4,2.8-8.2,4.1-12.3c1.7-5.5,6.4-19,9.7-21.9
	c3.7-3.3,9.9-0.5,6.5,4.8c-6,13.1-8.9,21.3-12.4,32.1c-2.1,6.3-9.7,31.7-14.3,35.6c-3,2.5-7,1.4-8.2-2.6c-2-6.6,3.2-29.5,4.3-38.3
	l1.5-9.5c0.1-0.7,0.2-1,0.3-1.7l0-1.4c-0.8,2.6-1.7,4.9-2.5,7.5c-0.8,2.4-1.5,4.9-2.4,7.3c-1.8,4.8-3.2,9.8-4.9,14.5
	c-1.7,4.7-5.6,17.6-9.8,19.8c-1.9,1-4.5,0.6-6-1.1c-3.8-4.4,0.6-22.2,1.4-29.4c0.3-2.9,4.8-28.9,4.8-30.1c-0.9,0.6-3,6.8-3.7,8.6
	c-1.2,3-2.6,6.6-4,9.3c-3.8,7.1-6.9,8.1-16.6,5.2c-2.7-0.7,0,0-6.4-1.7c-3.8-1-5.9-1.1-7.3-4.3c-0.7-1.8-0.4-3.2,0.1-5.2
	c25.7-103.2,143.2-180.4,244.1-155.5c100.3,24.7,168.4,148.2,143.3,251.2c-0.5,2-0.8,3.4-2.3,4.7c-2.8,2.1-4.7,1-8.5,0.4l0-0.1l0,0
	c-6.5-1.4-3.8-0.8-6.5-1.5c-10-1.9-12.2-4.3-12.3-12.3c0-3.1,0.5-6.9,0.8-10.1c0.2-1.9,1.2-8.3,0.7-9.3c-0.6,1-8.7,26.2-9.7,28.9
	c-2.6,6.7-7,24.5-12.4,26.6c-2.1,0.8-4.6,0-5.8-1.8c-2.7-3.9-0.1-17.1,0.5-22.1c0.7-5,1.7-10,2.4-15.1c0.3-2.6,0.8-5.1,1.3-7.6
	c0.5-2.8,0.7-5.1,1.3-7.8l-0.7,1.2c-0.3,0.6-0.4,1-0.6,1.7l-3,9.1c-3.1,8.3-9.1,31-14,35.9c-2.9,3-7,2.1-8.5-1.5
	c-2.3-5.6,2.7-31.6,3.8-38.2c1.9-11.2,3.2-19.8,3.9-34.2c-0.6-6.2,6.2-5.8,8-1.2c1.6,4.1-0.5,18.2-1.6,23.9
	c-0.8,4.2-1.3,8.7-2.1,12.8l-1.9,12c0.1,1,0,0.3,0.2,0.7c1.3-4.7,3.2-9.2,4.6-13.9c1.3-4.4,3.1-9.4,4.6-13.6c1.6-4.5,3.1-8.9,5-13.1
	c1.7-3.8,4.2-8.3,8.8-6.7c3.9,1.3,3.8,6.8,3.5,10.8c-0.5,7.4-6.4,42.1-6.2,42.6l6.5-19.6c2.1-6.1,7.3-22.7,11.2-27.1
	c1.8-2,5.1-3.1,7.8-0.4c3.1,3,2,12.3,1.6,17.3c-0.2,3.2-0.7,6.5-1,9.8c-0.3,3.4-1.3,7.3-0.8,10.6c0.5,2.4,1.8,3.4,6,4.1
	c7.4,1.4,0,0,7.4,1.4c0,0,0,0,0,0L3312.6,585.9L3312.6,585.9z"/>
<g>
	<path class="st222" d="M3082.3,529.6c0.4-2.8,3.3-13.5,4.3-17.5c0.9-3.6,1.6-6.2,4-8.4c1.8-1.7,4.5-2.5,7.9-1.7
		c7.9,2,7,8.8,5.6,14.6c-0.9,3.8-3.4,14.8-4.3,17.3L3082.3,529.6L3082.3,529.6z M3099.9,574.7c1.2-1.7,6.3-24.1,7.3-28.2
		c2.4-9.5,4.8-19.1,7.1-28.7c1.1-4.7,1.2-8.3,0.1-12.3c-2.1-7.9-9-12.6-17.1-13.4c-4.5-0.4-7.7,0.7-10.6,2.3
		c-2.5,1.4-5.6,4.5-7.3,8.1c-2,4-2.9,8.9-4,13.4l-10.6,43.1c-2.1,8.3-2.7,6.6,5.5,8.7c3.3,0.8,2.9-0.8,3.6-4
		c1.3-5.3,4.9-21.3,6.2-25l17.4,4.3c-0.2,1.7-5.5,22.6-6.4,26.3c-0.3,1.4-1,2.9,0.3,3.6C3092.9,573.7,3098.6,574.9,3099.9,574.7
		L3099.9,574.7z"/>
	<path class="st222" d="M3139.2,512.2c2.4,0.4,9.2,2,11.1,3.1c2.6,1.6,4,4.2,4,7.5c0.1,4.1-4,18.3-5.2,23.3
		c-1.2,4.9-4.2,19.6-6.2,23c-1.6,2.7-4,4.6-7.1,4.7c-2,0.1-9-1.7-11.2-2.4L3139.2,512.2z M3153.4,570.2c1.2-3.3,6-23.4,7.2-28.6
		c2.3-9.5,5.6-18,2.4-25.9c-1.2-3-3.2-5.9-6.8-8.1c-3.7-2.3-8.4-3.1-12.9-4.2c-5.2-1.3-10.1-3.6-12.2,0c-1,1.7-12.5,49.8-14.3,57.3
		c-4.7,19-6.1,17.1,6.7,20.3c4.3,1.1,9.3,2.7,13.5,2.5C3144.4,583,3150.4,578.2,3153.4,570.2L3153.4,570.2z"/>
	<path class="st222" d="M3034.3,517.5c0.8-3.9,4.6-20,6-22.7c4.1-7.7,13.1-5.5,15.4-0.7c1.5,3.2,1.5,5.5,0.4,9.9
		c-0.8,3.2-1.9,9.1-3.4,11.6C3048.7,523,3042.8,519.9,3034.3,517.5L3034.3,517.5z M3032,526.7l8.8,2.1c0.3,4.5,1.4,16,2,20.9
		c1.7,13.1,0.1,11.3,5.5,12.7c7.3,1.8,6.5,2.5,5.1-7.6c-0.4-3.1-3-24.6-3-26c2-1.1,4.1-0.9,8.1-4.8c2.5-2.5,4-4.4,5.3-8.5
		c2.5-8.4,4.6-16.7,1.9-23.6c-5.5-14.1-25.7-16.3-33.6-2.9c-3.5,5.9-5.3,16.5-7.1,23.9c-0.6,2.6-9.9,39.5-9.8,40.3
		c0.1,1,0.9,1.1,2.1,1.4c6.2,1.5,7.2,2.7,8-0.7C3026.7,548.2,3030.6,531.2,3032,526.7L3032,526.7z"/>
	<path class="st222" d="M3196,579.8c0.3-2.6,8.7-35.7,9.5-39.1c1.6-6.3,4.9-10.4,10.8-9.7c6.3,0.7,9.2,5.8,8.3,11.5
		c-0.5,3.1-3.7,15.3-4.7,19.3c-1.6,6.5-3.2,13.1-4.8,19.6c-0.8,3.1-1.6,5.7-3.7,7.5c-1.8,1.6-4.1,2.7-7,2.3
		C3197.9,590.4,3195.2,585.6,3196,579.8z M3186.5,575.7c-1.7,9.4,0.8,16.3,6.5,20.8c3.5,2.7,7.5,4,12.2,4.2
		c4.3,0.2,7.9-1.2,10.6-2.8c7.6-4.6,8.7-12.1,11.2-22.5c2.4-9.6,5-19.4,7.1-29c4.8-22-18.2-29.8-29.4-22.1
		c-7.6,5.1-8.6,11.8-11.2,22.4c-1.2,4.8-2.4,9.7-3.6,14.5C3188.8,565.9,3187.3,571.1,3186.5,575.7L3186.5,575.7z"/>
	<path class="st222" d="M3184.5,513.4c-1.9-0.4-4.5-1.3-4.9,0c-0.3,1.1-14.5,58.7-16.4,66.2c-1.2,4.7-1.9,7.4-2.2,8.9
		c-0.5,2.3,1.4,2,4.4,2.9c3.5,0.7,4.9,1.8,5.4-0.4c0.4-1.7,1.1-4.7,2.5-10.3c1.2-4.9,5.2-20.9,8.8-35.8c3.3-13.7,6.4-26.5,7-29.1
		C3189.4,514.3,3185.9,513.8,3184.5,513.4L3184.5,513.4z"/>
</g>
<path class="st223" d="M2834.3,424.1c2.7-13,5.7-25.8,9.1-38.4c27.6,161.8,96,434.2,254.8,568.9c-21.3,2.5-42.8,1.6-63.7-2.8
	C2870.3,917.6,2780.7,681.4,2834.3,424.1z"/>
<g transform="matrix(0.972555 0 0 1 -7246.23 -438.315)">
</g>
</svg>
