<svg id="Livello_1" data-name="Livello 1" xmlns="http://www.w3.org/2000/svg" viewBox="0 0 417.13 308.53"><path d="M521.21,358.13l-95.69,1.42a10.12,10.12,0,0,0-10,10.2l.61,72a10.1,10.1,0,0,1-16.36,8L216.4,305.7a10.12,10.12,0,0,1,0-15.91L399.74,145.66a10.11,10.11,0,0,1,16.36,8l-.61,72a10.1,10.1,0,0,0,10,10.2l91.89,1.4a10.11,10.11,0,0,1,8.7,15.12l-23.49,41.21a7.91,7.91,0,0,0,0,7.81L528,346.33A7.9,7.9,0,0,1,521.21,358.13Z" transform="translate(-212.54 -143.48)"/><path d="M628.63,346.32l-25.41-44.85a7.88,7.88,0,0,1,0-7.81l23.49-41.22a10.12,10.12,0,0,0-8.7-15.12l-56.65-.55v.07l-3.93,0a7.89,7.89,0,0,0-6.87,3.86l-31.47,53a8.17,8.17,0,0,0,0,7.81c1.89,3.34,23.18,40.74,30.28,53.22a7.87,7.87,0,0,0,6.93,4l2,0,0,.06,1.73,0v0l61.84-.6A7.9,7.9,0,0,0,628.63,346.32Z" transform="translate(-212.54 -143.48)"/></svg>