<?xml version="1.0" encoding="utf-8"?>
<!-- Generator: Adobe Illustrator 25.2.3, SVG Export Plug-In . SVG Version: 6.00 Build 0)  -->
<svg version="1.1" id="Livello_1" xmlns="http://www.w3.org/2000/svg" xmlns:xlink="http://www.w3.org/1999/xlink" x="0px" y="0px"
	 viewBox="0 0 841.89 595.28" style="enable-background:new 0 0 841.89 595.28;" xml:space="preserve">
<style type="text/css">
	.st0{fill:#020203;}
</style>
<ellipse transform="matrix(0.0172 -0.9999 0.9999 0.0172 -67.452 894.8343)" cx="421.47" cy="481.73" rx="42.94" ry="42.94"/>
<g>
	<path class="st0" d="M458.05,424.65h-0.06h-78.46c-3.9,0-7.06-3.16-7.06-7.06c0-0.16,0.01-0.32,0.02-0.48
		c-0.1-5.32-0.17-9.68-0.23-13.1c-0.07-4.64-0.11-7.02-0.11-7.13c0-13.09,1.11-25.14,3.32-36.14c2.23-11.09,5.59-21.03,10.09-29.79
		l-0.02-0.01l0.01-0.02l0,0c0.04-0.08,0.08-0.15,0.12-0.23c4.49-8.73,11.13-17.89,19.92-27.51c8.64-9.46,19.44-19.45,32.36-30
		c12.37-10.05,22.38-18.47,29.99-25.27c7.2-6.42,11.88-11.05,14.01-13.87l-0.01-0.01c0.15-0.2,0.31-0.4,0.49-0.58
		c3.11-4.15,5.46-8.57,7.06-13.22c1.66-4.81,2.49-9.88,2.49-15.16c0-14.71-5.94-27.36-17.81-38.03l0,0l-0.03-0.02l0,0.01
		c-0.07-0.06-0.13-0.12-0.2-0.19c-5.95-5.24-12.93-9.19-20.95-11.84c-8.33-2.76-17.82-4.14-28.47-4.14
		c-10.22,0-19.54,1.44-27.97,4.32c-8.37,2.85-15.92,7.13-22.65,12.81c-6.69,5.68-12.36,12.91-17.02,21.66
		c-4.75,8.93-8.46,19.51-11.11,31.73l-6.9-1.49l6.9,1.5c-0.8,3.67-4.32,6.05-7.98,5.48l-79.13-9.85l0.86-7.01l-0.87,7.01
		c-3.87-0.48-6.62-4.01-6.14-7.88l0-0.03c1.21-19.14,5.91-36.88,14.09-53.22c8.23-16.44,19.94-31.37,35.13-44.8l4.66,5.27
		l-4.68-5.29c0.08-0.07,0.17-0.14,0.25-0.21c15.19-13.33,32.71-23.34,52.61-30.03c19.83-6.67,41.91-10,66.28-10
		c25.52,0,48.52,3.37,69,10.11c20.68,6.8,38.76,17.03,54.23,30.68c15.37,13.61,26.95,28.38,34.7,44.33
		c7.82,16.09,11.74,33.3,11.74,51.65c0,10.16-1.46,20.08-4.36,29.76c-2.88,9.65-7.21,19.03-12.93,28.13l-5.96-3.75l5.98,3.76
		c-0.06,0.1-0.12,0.19-0.19,0.28c-5.69,8.88-14.45,19.28-26.29,31.2c-11.62,11.69-26.33,24.94-44.16,39.74
		c-8.86,7.38-16.05,14.04-21.57,19.98c-5.17,5.56-8.7,10.33-10.61,14.33c-1.88,3.94-3.27,9.64-4.17,17.12
		c-0.97,8.05-1.36,17.82-1.15,29.33h0.03c0.07,3.9-3.04,7.12-6.94,7.19L458.05,424.65L458.05,424.65L458.05,424.65z M311.03,121.64"
		/>
</g>
</svg>
