<?xml version="1.0" encoding="utf-8"?>
<!-- Generator: Adobe Illustrator 25.2.3, SVG Export Plug-In . SVG Version: 6.00 Build 0)  -->
<svg version="1.1" id="Livello_1" xmlns="http://www.w3.org/2000/svg" xmlns:xlink="http://www.w3.org/1999/xlink" x="0px" y="0px"
	 viewBox="0 0 841.89 595.28" style="enable-background:new 0 0 841.89 595.28;" xml:space="preserve">
<g>
	<path d="M422.37,176.56L422.37,176.56c-5,0-9.75,2.17-13.02,5.94L300.19,308.38c-4.89,5.27-7.61,12.2-7.61,19.39v139.75
		c0,8.02,6.5,14.53,14.53,14.53H407.7c8.1,0,14.67-6.57,14.67-14.67v-97.94c0-8.74,7.09-15.83,15.83-15.83H473
		c8.69,0,15.73,7.04,15.73,15.73v98.15c0,8.04,6.52,14.56,14.56,14.56h34.22c8.09,0,14.64-6.56,14.64-14.64V327.89
		c0-7.27-2.75-14.27-7.69-19.6l-112.73-127.5C429.36,178.1,425.95,176.56,422.37,176.56L422.37,176.56z"/>
	<path d="M412.43,118.15l-196.87,212.4c-2.83,3.06-0.67,8.02,3.5,8.02h16.65c6.56,0,12.81-2.73,17.27-7.54l159.37-171.94
		c4.85-5.24,13.14-5.24,17.99,0l160.76,173.44c3.57,3.85,8.59,6.04,13.84,6.04h18.62c4.19,0,6.37-4.99,3.52-8.07L430.27,118.15
		C425.46,112.96,417.24,112.96,412.43,118.15z"/>
</g>
</svg>
