<?xml version="1.0" encoding="utf-8"?>
<!-- Generator: Adobe Illustrator 25.2.3, SVG Export Plug-In . SVG Version: 6.00 Build 0)  -->
<svg version="1.1" id="Livello_1" xmlns="http://www.w3.org/2000/svg" xmlns:xlink="http://www.w3.org/1999/xlink" x="0px" y="0px"
	 viewBox="0 0 841.89 595.28" style="enable-background:new 0 0 841.89 595.28;" xml:space="preserve">
<path d="M293.96,233.67l0.48-18.47l0.99-21.94c1.51,2.99,2.98,5.74,4.39,8.24c2.16,3.95,4.51,8.09,7.07,12.41l7.76,13.2
	c0.77,1.36,1.95,3.55,3.56,6.57c5.13-0.06,9.14-0.09,12.04-0.09c3.49,0,7.24,0.03,11.25,0.09l0.28-11.06l2.09-38.32l1.11-13.79
	c-4.99,0.06-8.02,0.09-9.06,0.09c-2.28,0-5.32-0.03-9.11-0.09c0,3.58-0.19,10.05-0.54,19.4c-0.37,9.35-0.72,16.62-1.07,21.81
	l-2.72-5.28l-19.75-35.92c-4.76,0.06-8.45,0.09-11.07,0.09c-3.68,0-7.91-0.03-12.7-0.09v7.22L278.44,191l-1.8,32.95l-0.93,9.72
	c4.66-0.06,7.83-0.09,9.52-0.09C287.23,233.58,290.14,233.61,293.96,233.67z"/>
<path d="M380.33,233.58c8.98,0,17.23,0.03,24.76,0.09c0.25-4.88,0.56-9.59,0.93-14.16c-3.33,0.21-5.7,0.34-7.12,0.37l-9.57,0.23
	c-4.94,0.09-8.19,0.14-9.76,0.14h-5.31L374.8,209c5.27-0.22,10.03-0.32,14.29-0.32c2.87,0,6.97,0.03,12.31,0.09
	c0.27-5.46,0.57-10.17,0.87-14.11c-7.47,0.21-12.06,0.32-13.8,0.32c-4.84,0-9.08-0.05-12.73-0.14l0.56-10.64
	c3.3-0.12,5.73-0.19,7.29-0.21c1.56-0.02,4.56-0.02,9-0.02c4.04,0,9.04,0.12,14.99,0.37c0-1.11,0.03-2.2,0.09-3.27l0.28-5.03
	c0.12-2.31,0.2-3.64,0.23-4.01l0.09-1.52c-7.28,0.06-15.69,0.09-25.22,0.09c-10.33,0-19.14-0.03-26.42-0.09l0.05,4.07
	c0,2.9-0.17,8.8-0.53,17.7c-0.35,8.9-0.71,16.03-1.07,21.4c-0.35,5.37-0.92,12.03-1.69,19.99l6.57-0.05L380.33,233.58z"/>
<path d="M440,233.58c3.08,0,6.96,0.03,11.62,0.09l7.45-27.03c0.43-1.63,0.85-3.25,1.25-4.86l1.62-7.17
	c0.31,2.96,0.54,5.14,0.72,6.55c0.17,1.41,0.36,2.77,0.57,4.1l4.07,22.07l1.06,6.34c4.41-0.06,8.44-0.09,12.08-0.09
	c3.46,0,7.5,0.03,12.13,0.09l2.87-9.39l17.94-53.77c-3.4,0.03-6.46,0.05-9.21,0.05c-2.43,0-5.52-0.01-9.25-0.05l-2.64,8.98
	l-5.64,17.77c-1.18,3.58-1.95,5.97-2.32,7.17c-0.37,1.21-0.72,2.39-1.06,3.56l-1.8,6.8l-4.04-24.8l-2.93-19.48
	c-3.95,0.06-7.51,0.09-10.69,0.09c-2.93,0-6.51-0.03-10.74-0.09l-3.78,16.52l-5.5,21.38l-1.52,6.48
	c-0.99-5.77-1.88-10.66-2.68-14.67l-3.89-18.65c-0.49-2.34-1.16-6.03-1.99-11.06c-3.59,0.06-6.73,0.09-9.45,0.09
	c-2.41,0-5.56-0.03-9.45-0.09l2.73,11.66l7.55,34.57c0.77,3.61,1.34,6.42,1.71,8.42l1.58,8.51
	C432.86,233.61,436.73,233.58,440,233.58z"/>
<path d="M560.84,210.53c-0.45-0.93-1.09-1.94-1.92-3.05c-0.83-1.11-1.82-2.24-2.97-3.38c-1.14-1.14-2.2-2.11-3.19-2.91l-3.33-2.64
	c-2.38-1.85-4.12-3.24-5.23-4.19c-1.11-0.94-2-1.8-2.69-2.59c-0.68-0.79-1.14-1.47-1.38-2.06c-0.25-0.59-0.37-1.19-0.37-1.8
	c0-1.32,0.79-2.44,2.38-3.33s3.59-1.34,6-1.34c1.69,0,3.71,0.22,6.06,0.67c2.35,0.45,4.94,1.24,7.78,2.38
	c-0.46-4.44-0.76-7.55-0.88-9.33c-0.12-1.77-0.23-3.73-0.32-5.85c-6.14-1.21-11.81-1.8-17.03-1.8c-2.65,0-5.23,0.21-7.73,0.62
	c-2.5,0.42-4.84,1.2-7.03,2.34c-2.19,1.14-3.95,2.5-5.28,4.07c-1.33,1.57-2.32,3.26-2.98,5.07c-0.66,1.8-1,3.65-1,5.53
	c0,1.57,0.21,3.06,0.63,4.46c0.42,1.41,1.08,2.79,2,4.14c0.91,1.36,2.18,2.82,3.82,4.4c0.81,0.77,2.22,2.02,4.26,3.75l8.72,7.59
	c0.81,0.71,1.42,1.37,1.85,1.97c0.43,0.6,0.73,1.14,0.88,1.62c0.16,0.48,0.23,0.98,0.23,1.51c0,1.54-0.79,2.71-2.39,3.49
	c-1.59,0.79-3.73,1.18-6.42,1.18c-2.04,0-4.41-0.3-7.11-0.9c-2.71-0.6-5.79-1.67-9.25-3.22c0.53,3.95,0.99,9.21,1.39,15.78
	c7.62,1.45,13.93,2.17,18.93,2.17c3.24,0,6.32-0.32,9.23-0.97c2.91-0.65,5.59-1.78,8.03-3.4c2.43-1.62,4.32-3.69,5.64-6.2
	c1.33-2.51,1.99-5.16,1.99-7.93c0-1.08-0.11-2.09-0.32-3.03C561.62,212.39,561.29,211.45,560.84,210.53z"/>
<path d="M563.72,111.85H278.94c-23.99,0-43.51,19.52-43.51,43.51v284.78c0,23.99,19.52,43.51,43.51,43.51h284.78
	c23.99,0,43.51-19.52,43.51-43.51V155.36C607.23,131.36,587.71,111.85,563.72,111.85z M589.43,440.13
	c0,14.17-11.53,25.71-25.71,25.71H278.94c-14.17,0-25.71-11.53-25.71-25.71V155.36c0-14.18,11.53-25.71,25.71-25.71h284.78
	c14.18,0,25.71,11.53,25.71,25.71V440.13z"/>
<path d="M555.16,258.69H429.4c-1.31,0-2.38,1.07-2.38,2.38v11.36c0,1.31,1.07,2.38,2.38,2.38h125.76c1.31,0,2.38-1.07,2.38-2.38
	v-11.36C557.54,259.76,556.47,258.69,555.16,258.69z"/>
<path d="M555.16,289.58H429.4c-1.31,0-2.38,1.07-2.38,2.38v11.36c0,1.31,1.07,2.38,2.38,2.38h125.76c1.31,0,2.38-1.07,2.38-2.38
	v-11.36C557.54,290.65,556.47,289.58,555.16,289.58z"/>
<path d="M555.16,320.47H429.4c-1.31,0-2.38,1.07-2.38,2.38v11.36c0,1.31,1.07,2.38,2.38,2.38h125.76c1.31,0,2.38-1.07,2.38-2.38
	v-11.36C557.54,321.54,556.47,320.47,555.16,320.47z"/>
<path d="M555.16,351.36H429.4c-1.31,0-2.38,1.07-2.38,2.38v11.36c0,1.31,1.07,2.38,2.38,2.38h125.76c1.31,0,2.38-1.07,2.38-2.38
	v-11.36C557.54,352.43,556.47,351.36,555.16,351.36z"/>
<path d="M555.16,382.25H429.4c-1.31,0-2.38,1.07-2.38,2.38v11.36c0,1.31,1.07,2.38,2.38,2.38h125.76c1.31,0,2.38-1.07,2.38-2.38
	v-11.36C557.54,383.32,556.47,382.25,555.16,382.25z"/>
<path d="M555.16,413.14H429.4c-1.31,0-2.38,1.07-2.38,2.38v11.36c0,1.31,1.07,2.38,2.38,2.38h125.76c1.31,0,2.38-1.07,2.38-2.38
	v-11.36C557.54,414.21,556.47,413.14,555.16,413.14z"/>
<path d="M412.03,382.25H286.27c-1.31,0-2.38,1.07-2.38,2.38v11.36c0,1.31,1.07,2.38,2.38,2.38h125.76c1.31,0,2.38-1.07,2.38-2.38
	v-11.36C414.41,383.32,413.34,382.25,412.03,382.25z"/>
<path d="M412.03,413.14H286.27c-1.31,0-2.38,1.07-2.38,2.38v11.36c0,1.31,1.07,2.38,2.38,2.38h125.76c1.31,0,2.38-1.07,2.38-2.38
	v-11.36C414.41,414.21,413.34,413.14,412.03,413.14z"/>
<path d="M320.74,297.64c0,10.31,4.31,19.47,10.98,25.35c-32.2,9.72-42.65,44.49-42.65,44.49h117.92c0,0-8.79-34.71-40.45-44.46
	c6.69-5.88,11.01-15.05,11.01-25.38c0-17.75-12.72-32.15-28.41-32.15C333.46,265.49,320.74,279.88,320.74,297.64z"/>
</svg>
