<?xml version="1.0" encoding="utf-8"?>
<!-- Generator: Adobe Illustrator 25.2.3, SVG Export Plug-In . SVG Version: 6.00 Build 0)  -->
<svg version="1.1" id="Livello_1" xmlns="http://www.w3.org/2000/svg" xmlns:xlink="http://www.w3.org/1999/xlink" x="0px" y="0px"
	 viewBox="0 0 841.89 595.28" style="enable-background:new 0 0 841.89 595.28;" xml:space="preserve">
<style type="text/css">
	.st0{fill-rule:evenodd;clip-rule:evenodd;}
</style>
<g>
	<path class="st0" d="M637.02,480.87c28.55-11.12,56.93-52.51,57.14-96.4c0.25-50.86-25.06-82.17-57.22-98.25L637.02,480.87z"/>
	<path class="st0" d="M205.65,480.48c-28.55-11.12-56.93-52.52-57.15-96.4c-0.25-50.86,25.06-82.17,57.22-98.25L205.65,480.48z"/>
	<path class="st0" d="M389,91.97h64c47.66,0,91.1,18.62,122.73,48.67c32.37,30.75,52.44,73.39,52.44,120.55v222.93h-38.09V261.19
		c0-34.51-15-66.02-39.19-89c-24.94-23.69-59.56-38.37-97.89-38.37h-64c-38.33,0-72.95,14.68-97.89,38.37
		c-24.2,22.98-39.19,54.49-39.19,89v222.93h-38.09V261.19c0-47.16,20.06-89.8,52.44-120.55C297.89,110.6,341.34,91.97,389,91.97z"/>
	<path class="st0" d="M547.45,264.62h23.44c5.57,0,10.11,6.66,10.11,14.83v209.23c0,8.17-4.55,14.83-10.11,14.83h-23.44
		c-5.57,0-10.11-6.66-10.11-14.83V279.45C537.34,271.28,541.88,264.62,547.45,264.62z"/>
	<path class="st0" d="M270.28,264.03h23.44c5.57,0,10.12,6.66,10.12,14.83V488.1c0,8.17-4.54,14.83-10.12,14.83h-23.44
		c-5.57,0-10.11-6.66-10.11-14.83V278.87C260.16,270.7,264.71,264.03,270.28,264.03z"/>
</g>
</svg>
