<svg id="Livello_1" data-name="Livello 1" xmlns="http://www.w3.org/2000/svg" xmlns:xlink="http://www.w3.org/1999/xlink" viewBox="0 0 4096 2048"><defs><style>.cls-1,.cls-221{fill:none;}.cls-2{fill:#727272;}.cls-3{fill:#a5a4a4;}.cls-4{fill:#cecdce;}.cls-5{fill:#99c0e6;}.cls-6{fill:#27334e;}.cls-7{fill:#e0eff9;}.cls-8{fill:#fff;}.cls-9{fill:#1d1d1b;}.cls-10{fill:#a0bfe2;}.cls-11{fill:#bcbbbb;}.cls-12{fill:url(#adsfvdsgsdg);}.cls-13{fill:url(#svdvsdv);}.cls-14{fill:#4a494a;}.cls-15{fill:#3c3c3b;}.cls-16{clip-path:url(#clip-path);}.cls-17{fill:#236ab1;}.cls-100,.cls-101,.cls-102,.cls-103,.cls-104,.cls-105,.cls-106,.cls-107,.cls-108,.cls-109,.cls-110,.cls-111,.cls-112,.cls-113,.cls-114,.cls-115,.cls-116,.cls-117,.cls-118,.cls-119,.cls-120,.cls-121,.cls-122,.cls-123,.cls-124,.cls-125,.cls-126,.cls-127,.cls-128,.cls-129,.cls-130,.cls-131,.cls-132,.cls-133,.cls-134,.cls-135,.cls-136,.cls-137,.cls-138,.cls-139,.cls-140,.cls-141,.cls-142,.cls-143,.cls-144,.cls-145,.cls-146,.cls-147,.cls-148,.cls-149,.cls-150,.cls-151,.cls-152,.cls-153,.cls-154,.cls-155,.cls-156,.cls-157,.cls-158,.cls-159,.cls-160,.cls-161,.cls-162,.cls-163,.cls-164,.cls-165,.cls-166,.cls-167,.cls-168,.cls-169,.cls-17,.cls-170,.cls-171,.cls-172,.cls-173,.cls-174,.cls-175,.cls-176,.cls-177,.cls-178,.cls-179,.cls-18,.cls-180,.cls-181,.cls-182,.cls-183,.cls-184,.cls-185,.cls-186,.cls-187,.cls-188,.cls-189,.cls-19,.cls-190,.cls-191,.cls-192,.cls-193,.cls-194,.cls-195,.cls-196,.cls-197,.cls-198,.cls-199,.cls-20,.cls-200,.cls-201,.cls-202,.cls-203,.cls-204,.cls-205,.cls-206,.cls-207,.cls-208,.cls-209,.cls-21,.cls-210,.cls-211,.cls-212,.cls-213,.cls-214,.cls-215,.cls-216,.cls-217,.cls-218,.cls-219,.cls-22,.cls-220,.cls-222,.cls-223,.cls-23,.cls-24,.cls-25,.cls-26,.cls-27,.cls-28,.cls-29,.cls-30,.cls-31,.cls-32,.cls-33,.cls-34,.cls-35,.cls-36,.cls-37,.cls-38,.cls-39,.cls-40,.cls-41,.cls-42,.cls-43,.cls-44,.cls-45,.cls-46,.cls-47,.cls-48,.cls-49,.cls-50,.cls-51,.cls-52,.cls-53,.cls-54,.cls-55,.cls-56,.cls-57,.cls-58,.cls-59,.cls-60,.cls-61,.cls-62,.cls-63,.cls-64,.cls-65,.cls-66,.cls-67,.cls-68,.cls-69,.cls-70,.cls-71,.cls-72,.cls-73,.cls-74,.cls-75,.cls-76,.cls-77,.cls-78,.cls-79,.cls-80,.cls-81,.cls-82,.cls-83,.cls-84,.cls-85,.cls-86,.cls-87,.cls-88,.cls-89,.cls-90,.cls-91,.cls-92,.cls-93,.cls-94,.cls-95,.cls-96,.cls-97,.cls-98,.cls-99{fill-rule:evenodd;}.cls-18{fill:#2469b1;}.cls-19{fill:#2269b1;}.cls-20{fill:#256ab1;}.cls-21{fill:#256ab2;}.cls-22{fill:#276ab2;}.cls-23{fill:#286bb2;}.cls-24{fill:#296cb3;}.cls-25{fill:#2b6cb3;}.cls-26{fill:#2a6cb3;}.cls-27{fill:#2c6db4;}.cls-28{fill:#2b6db4;}.cls-29{fill:#2d6db4;}.cls-30{fill:#2e6eb5;}.cls-31{fill:#2f6eb5;}.cls-32{fill:#2e6fb5;}.cls-33{fill:#306fb5;}.cls-34{fill:#3170b6;}.cls-35{fill:#3270b6;}.cls-36{fill:#3471b6;}.cls-37{fill:#3371b7;}.cls-38{fill:#3571b7;}.cls-39{fill:#3472b7;}.cls-40{fill:#3672b7;}.cls-41{fill:#3773b8;}.cls-42{fill:#3874b8;}.cls-43{fill:#3a74b8;}.cls-44{fill:#3b75b9;}.cls-45{fill:#3c75ba;}.cls-46{fill:#3e75ba;}.cls-47{fill:#3d76ba;}.cls-48{fill:#3f76ba;}.cls-49{fill:#4077bb;}.cls-50{fill:#4078bb;}.cls-51{fill:#4278bb;}.cls-52{fill:#4379bc;}.cls-53{fill:#4479bc;}.cls-54{fill:#457abc;}.cls-55{fill:#457abd;}.cls-56{fill:#467abd;}.cls-57{fill:#467bbd;}.cls-58{fill:#477bbd;}.cls-59{fill:#487cbe;}.cls-60{fill:#497dbe;}.cls-61{fill:#4a7dbe;}.cls-62{fill:#4a7dbf;}.cls-63{fill:#4b7ebf;}.cls-64{fill:#4c7ebf;}.cls-65{fill:#4e7fc0;}.cls-66{fill:#4d7fc0;}.cls-67{fill:#4f7fc0;}.cls-68{fill:#4e80c1;}.cls-69{fill:#5080c1;}.cls-70{fill:#5181c1;}.cls-71{fill:#5282c2;}.cls-72{fill:#5382c2;}.cls-73{fill:#5383c2;}.cls-74{fill:#5483c2;}.cls-75{fill:#5483c3;}.cls-76{fill:#5584c3;}.cls-77{fill:#5684c3;}.cls-78{fill:#5785c3;}.cls-79{fill:#5785c4;}.cls-80{fill:#5885c4;}.cls-81{fill:#5986c4;}.cls-82{fill:#5a87c5;}.cls-83{fill:#5b87c5;}.cls-84{fill:#5b88c5;}.cls-85{fill:#5c88c5;}.cls-86{fill:#5c89c6;}.cls-87{fill:#5d89c6;}.cls-88{fill:#5e8ac6;}.cls-89{fill:#5f8ac6;}.cls-90{fill:#5f8ac7;}.cls-91{fill:#608bc7;}.cls-92{fill:#618cc7;}.cls-93{fill:#628cc8;}.cls-94{fill:#648dc8;}.cls-95{fill:#638dc9;}.cls-96{fill:#658dc9;}.cls-97{fill:#648ec9;}.cls-98{fill:#658ec9;}.cls-99{fill:#668fca;}.cls-100{fill:#688fca;}.cls-101{fill:#6790ca;}.cls-102{fill:#6990ca;}.cls-103{fill:#6a91cb;}.cls-104{fill:#6b92cb;}.cls-105{fill:#6c92cb;}.cls-106{fill:#6c93cc;}.cls-107{fill:#6d93cc;}.cls-108{fill:#6d94cc;}.cls-109{fill:#6e94cc;}.cls-110{fill:#6f95cd;}.cls-111{fill:#7095cd;}.cls-112{fill:#7196ce;}.cls-113{fill:#7297ce;}.cls-114{fill:#7397ce;}.cls-115{fill:#7398cf;}.cls-116{fill:#7498cf;}.cls-117{fill:#7499cf;}.cls-118{fill:#7599cf;}.cls-119{fill:#769ad0;}.cls-120{fill:#779bd0;}.cls-121{fill:#789bd0;}.cls-122{fill:#789cd1;}.cls-123{fill:#799cd1;}.cls-124{fill:#7a9dd1;}.cls-125{fill:#7b9dd2;}.cls-126{fill:#7b9ed2;}.cls-127{fill:#7c9ed2;}.cls-128{fill:#7c9ed3;}.cls-129{fill:#7d9fd3;}.cls-130{fill:#7ea0d3;}.cls-131{fill:#7fa0d4;}.cls-132{fill:#80a1d4;}.cls-133{fill:#81a2d4;}.cls-134{fill:#81a2d5;}.cls-135{fill:#82a2d5;}.cls-136{fill:#83a3d5;}.cls-137{fill:#84a4d5;}.cls-138{fill:#84a4d6;}.cls-139{fill:#85a4d6;}.cls-140{fill:#86a5d6;}.cls-141{fill:#87a6d7;}.cls-142{fill:#88a6d7;}.cls-143{fill:#87a7d7;}.cls-144{fill:#89a7d7;}.cls-145{fill:#88a8d8;}.cls-146{fill:#89a8d8;}.cls-147{fill:#8aa9d9;}.cls-148{fill:#8caad9;}.cls-149{fill:#8dabda;}.cls-150{fill:#8eacda;}.cls-151{fill:#8faddb;}.cls-152{fill:#91aedb;}.cls-153{fill:#92afdc;}.cls-154{fill:#93b0dc;}.cls-155{fill:#95b1dd;}.cls-156{fill:#96b2dd;}.cls-157{fill:#97b3de;}.cls-158{fill:#99b4de;}.cls-159{fill:#9ab5df;}.cls-160{fill:#9bb6df;}.cls-161{fill:#9cb7e0;}.cls-162{fill:#9db8e0;}.cls-163{fill:#9eb9e1;}.cls-164{fill:#9fb9e1;}.cls-165{fill:#a1bae2;}.cls-166{fill:#a2bbe2;}.cls-167{fill:#a3bce3;}.cls-168{fill:#a4bde3;}.cls-169{fill:#a6bee4;}.cls-170{fill:#a7bfe4;}.cls-171{fill:#a8c0e5;}.cls-172{fill:#aac1e5;}.cls-173{fill:#abc2e6;}.cls-174{fill:#acc3e6;}.cls-175{fill:#adc4e7;}.cls-176{fill:#aec5e7;}.cls-177{fill:#afc6e8;}.cls-178{fill:#b0c7e8;}.cls-179{fill:#b2c8e9;}.cls-180{fill:#b3c9e9;}.cls-181{fill:#b4caea;}.cls-182{fill:#b6cbeb;}.cls-183{fill:#b6cceb;}.cls-184{fill:#b7cdec;}.cls-185{fill:#b9ceec;}.cls-186{fill:#bacfed;}.cls-187{fill:#bbd0ed;}.cls-188{fill:#bcd1ee;}.cls-189{fill:#bed2ee;}.cls-190{fill:#bfd3ef;}.cls-191{fill:#c0d4ef;}.cls-192{fill:#c1d6f0;}.cls-193{fill:#c2d6f0;}.cls-194{fill:#c3d7f0;}.cls-195{fill:#c5d9f1;}.cls-196{fill:#c6daf1;}.cls-197{fill:#c7dbf2;}.cls-198{fill:#c8dcf2;}.cls-199{fill:#c9ddf3;}.cls-200{fill:#cadef3;}.cls-201{fill:#cbdff4;}.cls-202{fill:#cddff4;}.cls-203{fill:#cee0f4;}.cls-204{fill:#cfe1f5;}.cls-205{fill:#d1e3f5;}.cls-206{fill:#d2e3f6;}.cls-207{fill:#d2e4f6;}.cls-208{fill:#d3e5f7;}.cls-209{fill:#d5e7f7;}.cls-210{fill:#d6e8f8;}.cls-211{fill:#d7e9f8;}.cls-212{fill:#d9eaf9;}.cls-213{fill:#daebf9;}.cls-214{fill:#daecfa;}.cls-215{fill:#dcedfa;}.cls-216{fill:#ddeefb;}.cls-217{fill:#deeffb;}.cls-218{fill:#dff0fc;}.cls-219{fill:#e1f2fc;}.cls-220{fill:#e2f3fd;}.cls-221{stroke:#2b2a29;stroke-miterlimit:10;stroke-width:0.57px;}.cls-222{fill:#28334f;}.cls-223{fill:#9cc2e8;}.cls-224{fill:#10161e;opacity:0.5;isolation:isolate;}</style><pattern id="adsfvdsgsdg" data-name="adsfvdsgsdg" width="7.65" height="7.65" patternTransform="matrix(1, 0, 0, -1, 6.03, 2041.62)" patternUnits="userSpaceOnUse" viewBox="0 0 7.65 7.65"><rect class="cls-1" width="7.65" height="7.65"/><rect class="cls-1" width="7.65" height="7.65"/><polygon class="cls-2" points="7.65 4.7 7.65 2.95 0 2.95 0 4.7 7.65 4.7"/><rect class="cls-3" x="2.95" width="1.76" height="7.65"/><rect class="cls-1" width="7.65" height="7.65"/></pattern><pattern id="svdvsdv" data-name="svdvsdv" width="7.65" height="7.65" patternTransform="matrix(1, 0, 0, -1, 6.03, 2041.62)" patternUnits="userSpaceOnUse" viewBox="0 0 7.65 7.65"><rect class="cls-1" width="7.65" height="7.65"/><rect class="cls-1" width="7.65" height="7.65"/><polygon class="cls-3" points="7.65 4.7 7.65 2.95 0 2.95 0 4.7 7.65 4.7"/><rect class="cls-4" x="2.95" width="1.76" height="7.65"/><rect class="cls-1" width="7.65" height="7.65"/></pattern><clipPath id="clip-path"><path class="cls-1" d="M3017.14,291.89l322.57,79.54a47.1,47.1,0,0,1,34.36,56.84l-42.9,174a47.1,47.1,0,0,1-56.84,34.36L2951.76,557a47.1,47.1,0,0,1-34.36-56.84l42.89-174a47.1,47.1,0,0,1,56.85-34.35Z"/></clipPath></defs><rect class="cls-5" width="4096" height="2048"/><ellipse class="cls-6" cx="3171.05" cy="514.07" rx="506.21" ry="344.53" transform="translate(2020.95 3513.59) rotate(-78.23)"/><ellipse class="cls-7" cx="3141.38" cy="488.07" rx="493.45" ry="335.85" transform="translate(2022.78 3463.84) rotate(-78.23)"/><rect class="cls-6" x="2999.39" y="921.43" width="99.59" height="171.01" rx="3.86" transform="matrix(0.2, -0.98, 0.98, 0.2, 1441.43, 3786.61)"/><rect class="cls-7" x="2993.37" y="926.32" width="84.66" height="140.35" rx="3.86" transform="matrix(0.2, -0.98, 0.98, 0.2, 1440.92, 3765.1)"/><ellipse class="cls-8" cx="3069.04" cy="1003.79" rx="18.94" ry="11.14" transform="translate(1460.32 3803.55) rotate(-78.23)"/><path class="cls-6" d="M2980.37,1041.44l70.11,14.6c-69,331.31,143.63,655.82,474.94,724.82,216.14,45,429.37-29.86,570.67-179.34v98.76C3940.49,1833.65,3727,1896,3510.82,1851,3140.79,1773.91,2903.3,1411.47,2980.37,1041.44Z"/><ellipse class="cls-8" cx="3004.41" cy="990.34" rx="18.94" ry="11.14" transform="translate(1422.05 3729.57) rotate(-78.23)"/><path class="cls-6" d="M3843.52,985.24h33.66V958.09h85.58c.53,1.1,1.07,2.21,1.52,3.37l131.81,337.23V1643.1a49.34,49.34,0,0,1-3.91-7.79l-245.43-627.92A49.4,49.4,0,0,1,3843.52,985.24Z"/><path class="cls-9" d="M2987.73,1039l70.11,14.6c-69,331.3,143.64,655.82,474.94,724.82,212.41,44.24,422-27.3,563.31-171.65v97.31c-154.93,129.06-365.16,188.77-577.91,144.45C3148.15,1771.46,2910.66,1409,2987.73,1039Z"/><path class="cls-9" d="M3888.08,961.8l9.5-3.71h66.56a25.49,25.49,0,0,1,1.27,2.76l130.68,334.34V1568.9L3872.61,997.13a27.28,27.28,0,0,1,15.47-35.33Z"/><rect class="cls-6" x="3511.72" y="1420.93" width="63.5" height="33.65" rx="5" transform="matrix(0.2, -0.98, 0.98, 0.2, 1413.14, 4613.44)"/><rect class="cls-10" x="3511.81" y="1414.54" width="63.5" height="33.65" rx="5" transform="matrix(0.2, -0.98, 0.98, 0.2, 1419.47, 4608.45)"/><rect class="cls-7" x="3511.6" y="1417.14" width="63.5" height="28.37" rx="5" transform="matrix(0.2, -0.98, 0.98, 0.2, 1419.34, 4608.2)"/><rect class="cls-8" x="3509.38" y="1425.63" width="63.5" height="10.45" rx="2.13" transform="matrix(0.2, -0.98, 0.98, 0.2, 1418.03, 4605.66)"/><path class="cls-10" d="M3623.5,977.71c165.38,24.79,298.08,71.88,314.75,109.68a18.34,18.34,0,0,0,4.53-9.25c5.86-39.11-135.78-92.77-316.37-119.84S3294.66,941,3288.8,980.1a18.26,18.26,0,0,0,1.62,10.17C3317.44,959,3458.11,952.91,3623.5,977.71Z"/><path class="cls-8" d="M3014.8,1044.63l43,9c-69,331.3,143.64,655.82,474.94,724.82,212.41,44.24,422-27.3,563.31-171.65v60.76c-150.13,134.37-359.89,198.16-572.27,153.93C3168.74,1747.49,2940.85,1399.7,3014.8,1044.63Z"/><rect class="cls-6" x="3530.02" y="1351.37" width="63.5" height="111.37" rx="5" transform="matrix(0.2, -0.98, 0.98, 0.2, 1457.76, 4606.92)"/><rect class="cls-10" x="3527.41" y="1344.41" width="63.5" height="111.37" rx="5" transform="matrix(0.2, -0.98, 0.98, 0.2, 1462.49, 4598.83)"/><rect class="cls-7" x="3526.67" y="1352.99" width="63.5" height="93.91" rx="5" transform="matrix(0.2, -0.98, 0.98, 0.2, 1462.05, 4597.98)"/><rect class="cls-8" x="3519.31" y="1381.11" width="63.5" height="34.6" rx="5" transform="matrix(0.2, -0.98, 0.98, 0.2, 1457.69, 4589.55)"/><polygon class="cls-6" points="4096.09 1463.11 3897.48 954.97 3941.28 954.97 4096.09 1351.04 4096.09 1463.11"/><polygon class="cls-10" points="3931.4 958.09 4096.09 1379.44 4096.09 1441.36 3907.2 958.09 3931.4 958.09"/><path class="cls-10" d="M3033.34,1048.51l33.44,7.16c-66.13,329.73,146,651.6,475.81,720.29,207.56,43.22,412.43-24.09,553.5-161.86v46.67c-147.66,130.36-352.8,191.91-560.47,148.66C3187.28,1736.88,2963.24,1396.79,3033.34,1048.51Z"/><path class="cls-7" d="M3625.87,960.7c167,25,301.11,72.33,318,110.16a18.1,18.1,0,0,0,4.55-9.24c5.87-39.11-137.24-93-319.64-120.33s-335-17.81-340.88,21.31a18.19,18.19,0,0,0,1.65,10.17C3316.79,941.56,3458.83,935.66,3625.87,960.7Z"/><path class="cls-7" d="M3026.26,1047l31.58,6.58,1.87.52c-67.11,330.27,145.21,653.05,475.52,721.85,211.2,44,419.61-26.5,560.86-169.19v47.34c-148.16,134.89-356.67,199.3-567.83,155.32C3179.42,1736.77,2955.22,1395.81,3026.26,1047Z"/><polygon class="cls-6" points="3964.01 957.86 3910.73 930.29 3826.32 985.63 3875.34 1003.41 3964.01 957.86"/><path class="cls-7" d="M3944.85,951.73l-85.55,44.63a2.43,2.43,0,0,1-1.94.13l-11.17-4.1a2.42,2.42,0,0,1-1.43-3.1,2.45,2.45,0,0,1,.95-1.18l77.45-50.5a2.39,2.39,0,0,1,2.42-.12l19.27,10a2.41,2.41,0,0,1,0,4.24Z"/><polygon class="cls-6" points="3875.34 1003.41 3826.32 985.63 3830.04 983.2 3879.44 1001.3 3875.34 1003.41"/><polygon class="cls-9" points="3964.01 957.86 3875.34 1003.41 3878.45 1004.71 3965.41 960.86 3964.01 957.86"/><rect class="cls-9" x="3586.87" y="1045.1" width="405.99" height="52.1" rx="7.26" transform="translate(2006.68 4582.65) rotate(-78.86)"/><rect class="cls-6" x="3581.97" y="1040.18" width="405.99" height="52.1" rx="7.26" transform="translate(2007.54 4573.87) rotate(-78.86)"/><rect class="cls-9" x="3272.84" y="861.53" width="732.21" height="328.31" rx="66.91" transform="translate(1940.12 4403.25) rotate(-79.04)"/><rect class="cls-6" x="3288.93" y="898.09" width="671.68" height="204.01" rx="41.57" transform="translate(1953.76 4368.61) rotate(-79.04)"/><rect class="cls-7" x="3353.44" y="953.41" width="536.96" height="79.92" rx="16.28" transform="translate(1957.33 4360.01) rotate(-79.03)"/><rect class="cls-11" x="3498.55" y="404.41" width="464.77" height="303.8" rx="22.85" transform="translate(2475.43 4113.42) rotate(-79.04)"/><rect class="cls-9" x="3498.55" y="404.41" width="464.77" height="303.8" rx="22.85" transform="translate(2475.43 4113.42) rotate(-79.04)"/><path class="cls-12" d="M3560.05,759.92,3813.45,809a22.84,22.84,0,0,0,26.77-18.08h0l79.68-411.43a22.85,22.85,0,0,0-18.09-26.78h0l-253.39-49.07a22.85,22.85,0,0,0-26.78,18.09h0L3542,733.15A22.84,22.84,0,0,0,3560.05,759.92Z"/><rect class="cls-6" x="3459.29" y="447.11" width="450.78" height="215.83" rx="22.85" transform="translate(2439.23 4066.97) rotate(-79.04)"/><path class="cls-7" d="M3723.59,350.39s-95.44-43-114.52,80.32C3609.07,430.71,3673.11,347.09,3723.59,350.39Z"/><path class="cls-13" d="M3558,760.06l167.38,32.42a22.85,22.85,0,0,0,26.77-18.09l76.9-397.1A22.85,22.85,0,0,0,3811,350.51L3643.55,318.1a22.84,22.84,0,0,0-26.77,18.08h0l-76.9,397.1A22.83,22.83,0,0,0,3558,760.05Z"/><path class="cls-6" d="M3641.34,294.8a50,50,0,0,1,31.88-4.11l174.93,35.17c28.26,5.68,46.71,34.16,41.22,63.62L3826.76,725c-5.5,29.45-32.86,48.73-61.12,43l-36.53-7.35c27.11,3.7,52.66-15.21,58-43.57l56.72-304c5.5-29.45-12.95-57.94-41.21-63.62L3667.7,322.34a50.69,50.69,0,0,0-44.84,13.05Z"/><path class="cls-10" d="M3619.46,328.84c5.5-29.46,32.86-48.73,61.12-43L3855.51,321c28.26,5.68,46.71,34.16,41.22,63.62l-62.61,335.51c-5.5,29.46-32.86,48.73-61.12,43l-36.53-7.34c27.11,3.69,52.66-15.22,58-43.58l56.72-304c5.5-29.46-13-57.94-41.21-63.62l-135-27.1c-26.57-5.35-52.35,11.38-59.9,37.89h-.61Z"/><rect class="cls-6" x="3659.64" y="603.24" width="63.39" height="341.32" rx="4.99" transform="translate(2229 4250.45) rotate(-79.03)"/><rect class="cls-10" x="3655.3" y="585.31" width="63.5" height="341.92" rx="5" transform="translate(2232.66 4227.74) rotate(-78.86)"/><rect class="cls-7" x="3653" y="611.67" width="63.5" height="288.32" rx="5" transform="translate(2231.24 4225.12) rotate(-78.86)"/><rect class="cls-6" x="3608.37" y="827.29" width="63.5" height="341.92" rx="5" transform="translate(1957.38 4376.91) rotate(-78.86)"/><rect class="cls-10" x="3607.01" y="835.5" width="63.39" height="341.32" rx="4.99" transform="translate(1958.37 4386.84) rotate(-79.03)"/><rect class="cls-7" x="3603.62" y="848.74" width="63.5" height="288.32" rx="5" transform="translate(1958.8 4367.94) rotate(-78.86)"/><rect class="cls-8" x="3582.03" y="948.13" width="63.39" height="106.05" rx="4.99" transform="translate(1943.06 4358.27) rotate(-79.03)"/><rect class="cls-6" x="3578.22" y="987.77" width="63.5" height="341.92" rx="5" transform="translate(1775.61 4476.81) rotate(-78.86)"/><rect class="cls-10" x="3575.76" y="982.85" width="63.5" height="341.92" rx="5" transform="translate(1778.44 4470.42) rotate(-78.86)"/><rect class="cls-7" x="3573.48" y="1009.21" width="63.5" height="288.32" rx="5" transform="translate(1777.04 4467.82) rotate(-78.86)"/><rect class="cls-8" x="3551.33" y="1108.69" width="63.39" height="106.05" rx="4.99" transform="translate(1760.57 4458.13) rotate(-79.03)"/><rect class="cls-7" x="3630.35" y="698.24" width="63.5" height="106.24" rx="5" transform="translate(2217.35 4199.29) rotate(-78.86)"/><rect class="cls-9" x="3368.43" y="1055.3" width="447.03" height="45.67" rx="7.99" transform="translate(1850.56 4399.58) rotate(-79.04)"/><rect class="cls-10" x="3325.55" y="940.66" width="307.2" height="17.18" rx="3.5" transform="translate(-16.23 1836.89) rotate(-29.51)"/><rect class="cls-6" x="3327.16" y="937.57" width="307.2" height="17.18" rx="3.5" transform="translate(-14.49 1837.28) rotate(-29.51)"/><rect class="cls-10" x="3326.64" y="940.39" width="307.2" height="9.72" rx="1.98" transform="translate(-14.11 1836.91) rotate(-29.51)"/><rect class="cls-8" x="3326.21" y="942.22" width="307.2" height="4.55" rx="0.93" transform="translate(-13.8 1836.6) rotate(-29.51)"/><rect class="cls-10" x="3727.84" y="829.3" width="17.18" height="307.2" rx="3.5" transform="translate(304.51 2757.42) rotate(-42.08)"/><rect class="cls-6" x="3724.48" y="828.4" width="17.18" height="307.2" rx="3.5" transform="translate(304.24 2754.93) rotate(-42.08)"/><rect class="cls-10" x="3727.43" y="829.11" width="9.72" height="307.2" rx="1.98" transform="translate(303.57 2754.59) rotate(-42.08)"/><rect class="cls-8" x="3729.38" y="829.69" width="4.55" height="307.2" rx="0.93" transform="translate(303.02 2754.31) rotate(-42.08)"/><rect class="cls-10" x="3363.53" y="1055.2" width="447.03" height="45.67" rx="7.99" transform="translate(1846.69 4394.69) rotate(-79.04)"/><rect class="cls-7" x="3420.2" y="1067.73" width="340.8" height="28.12" rx="4.85" transform="translate(1845.18 4400.85) rotate(-79.03)"/><rect class="cls-6" x="3604.51" y="857.99" width="39.22" height="48.91" rx="4.67" transform="translate(2068.74 4272.69) rotate(-79.04)"/><rect class="cls-10" x="3603.41" y="854.2" width="40.06" height="45.67" rx="4.67" transform="translate(2073.5 4267.64) rotate(-79.04)"/><rect class="cls-6" x="3526.44" y="1250.09" width="43.6" height="50.07" rx="5.23" transform="translate(1621.77 4516.21) rotate(-79.04)"/><rect class="cls-10" x="3525.72" y="1254.79" width="39.22" height="46.09" rx="5.23" transform="translate(1616.75 4515.55) rotate(-79.04)"/><ellipse class="cls-10" cx="3599.56" cy="1001.28" rx="17.16" ry="13.71" transform="translate(1932.18 4344.82) rotate(-79.04)"/><ellipse class="cls-7" cx="3599.56" cy="1001.28" rx="10.06" ry="8.04" transform="translate(1932.18 4344.82) rotate(-79.04)"/><ellipse class="cls-8" cx="3599.56" cy="1001.28" rx="4.47" ry="3.57" transform="translate(1932.18 4344.82) rotate(-79.04)"/><ellipse class="cls-10" cx="3570.76" cy="1149.95" rx="17.16" ry="13.71" transform="translate(1762.9 4436.95) rotate(-79.04)"/><ellipse class="cls-7" cx="3570.76" cy="1149.95" rx="10.06" ry="8.04" transform="translate(1762.9 4436.95) rotate(-79.04)"/><ellipse class="cls-8" cx="3570.76" cy="1149.95" rx="4.47" ry="3.57" transform="translate(1762.9 4436.95) rotate(-79.04)"/><path class="cls-7" d="M3298.08,968c39,35,162.58,74.68,312.13,97.1s279.32,20.75,326.89-1.3c5.46,6.29,8,12.39,7.11,18.16-5.76,38.37-157.77,47.39-339.54,20.14S3280.2,1021.69,3286,983.31C3286.82,977.55,3291,972.45,3298.08,968Z"/><path class="cls-8" d="M3610.21,1065.14c167,25,309.08,19.14,336.32-12.07a18.1,18.1,0,0,1,1.65,10.17c-5.86,39.11-158.48,48.65-340.88,21.31s-325.5-81.22-319.64-120.33a18,18,0,0,1,4.56-9.25C3309.11,992.8,3443.17,1040.1,3610.21,1065.14Z"/><ellipse class="cls-14" cx="3131.97" cy="484.81" rx="475.86" ry="303.55" transform="translate(2018.48 3452.03) rotate(-78.23)"/><path class="cls-7" d="M3660.62,293l178,38.87c24.07,5,39.7,29.39,34.93,54.53L3807.91,732c-1.61,6.55-2.87,11.52-6,14.42l-18.32-3.61c10.24-1.68,10.28-5,13.5-15.11l63.23-332.87c4.77-25.13-10.86-49.55-34.93-54.52l-164.77-34.69c-18.13-3.76-31.74,9.38-41.43,24.48C3623.86,306.43,3638.73,288.43,3660.62,293Z"/><path class="cls-6" d="M3923.85,1220.38l122.54-50.64a6.74,6.74,0,0,1,8.81,3.64v0l40.88,98.92v81l-100.19,41.41a6.77,6.77,0,0,1-8.82-3.66l-66.89-161.87a6.75,6.75,0,0,1,3.66-8.82Z"/><path class="cls-10" d="M3923.85,1220.38l123-50.85a6.77,6.77,0,0,1,8.83,3.66l40.37,97.7V1345L3993,1387.58a6.76,6.76,0,0,1-8.82-3.66h0l-63.94-154.71A6.75,6.75,0,0,1,3923.85,1220.38Z"/><path class="cls-7" d="M3963.51,1204l76.49-31.61a6.76,6.76,0,0,1,8.82,3.66l47.27,114.39V1345l-63.48,26.24a6.76,6.76,0,0,1-8.82-3.66h0l-63.94-154.71a6.76,6.76,0,0,1,3.61-8.84Z"/><path class="cls-7" d="M3524,2048h-42.27c-17.13-167.34-13.41-321.92,7-434.34l40.59,9.57C3510.41,1734.77,3507.37,1885.35,3524,2048Z"/><path class="cls-6" d="M3521.17,2048h-28.72c-17-166.14-13.46-319.7,6.6-431.92l24.48,5.77C3505.71,1735,3503.67,1885.89,3521.17,2048Z"/><path class="cls-10" d="M3508.5,2048h-16.43c-17-166.18-13.46-319.78,6.61-432l15.79,3.72C3495,1731.6,3491.68,1883.64,3508.5,2048Z"/><path class="cls-8" d="M3497.75,2048h-6.83c-17-166.32-13.44-320,6.67-432.26l5.26,1.24C3483.49,1729.76,3480.47,1882.81,3497.75,2048Z"/><rect class="cls-9" x="3484.1" y="1539.05" width="78.16" height="134.07" rx="2.75" transform="translate(1355.94 4814.73) rotate(-80.47)"/><rect class="cls-6" x="3428.24" y="1488.69" width="180.91" height="103.73" rx="2.75" transform="translate(1416.83 4755.63) rotate(-80.47)"/><rect class="cls-9" x="3468.27" y="1505.66" width="180.91" height="83.23" rx="2.75" transform="translate(1443.6 4800.71) rotate(-80.47)"/><rect class="cls-10" x="3431.93" y="1493.03" width="180.91" height="96.27" rx="2.75" transform="translate(1419.31 4759.78) rotate(-80.47)"/><rect class="cls-7" x="3428.08" y="1514.61" width="180.91" height="51.84" rx="2.75" transform="translate(1416.73 4755.45) rotate(-80.47)"/><polygon class="cls-15" points="2987.73 1038.99 2981.41 1037.75 2980.36 1041.44 2986.94 1042.81 2987.73 1038.99"/><ellipse class="cls-6" cx="3932.09" cy="988.59" rx="6.86" ry="10.81" transform="translate(-79.52 1576.5) rotate(-22.45)"/><ellipse class="cls-10" cx="3932.09" cy="988.59" rx="4.02" ry="6.34" transform="translate(-79.52 1576.5) rotate(-22.45)"/><ellipse class="cls-8" cx="3932.09" cy="988.59" rx="1.79" ry="2.82" transform="translate(-79.52 1576.5) rotate(-22.45)"/><path class="cls-8" d="M3987.64,1194l35.42-14.64a6.74,6.74,0,0,1,8.81,3.64v0l63.94,154.71a6.69,6.69,0,0,1,.27.9V1342a6.77,6.77,0,0,1-3.93,4.55l-35.42,14.63a6.74,6.74,0,0,1-8.81-3.64v0L3984,1202.84a6.74,6.74,0,0,1,3.6-8.82Z"/><ellipse class="cls-6" cx="3131.71" cy="486.06" rx="475.86" ry="303.55" transform="translate(2017.05 3452.77) rotate(-78.23)"/><g class="cls-16"><polygon class="cls-17" points="2971.81 279.75 2972.47 279.92 2906.27 545.78 2905.61 545.61 2971.81 279.75"/><polygon id="_1" data-name="1" class="cls-18" points="2972.06 279.82 2973.28 280.12 2907.07 545.98 2905.86 545.68 2972.06 279.82"/><polygon id="_2" data-name="2" class="cls-19" points="2972.87 280.02 2974.08 280.32 2907.88 546.18 2906.67 545.88 2972.87 280.02"/><polygon id="_3" data-name="3" class="cls-18" points="2973.68 280.22 2974.89 280.52 2908.69 546.38 2907.48 546.08 2973.68 280.22"/><polygon id="_4" data-name="4" class="cls-17" points="2974.49 280.42 2975.7 280.72 2909.5 546.58 2908.29 546.28 2974.49 280.42"/><polygon id="_5" data-name="5" class="cls-20" points="2975.29 280.62 2976.51 280.92 2910.3 546.78 2909.09 546.48 2975.29 280.62"/><polygon id="_6" data-name="6" class="cls-21" points="2976.1 280.82 2977.31 281.13 2911.11 546.98 2909.9 546.68 2976.1 280.82"/><polygon id="_7" data-name="7" class="cls-22" points="2976.91 281.02 2978.12 281.33 2911.92 547.18 2910.71 546.88 2976.91 281.02"/><polygon id="_8" data-name="8" class="cls-22" points="2977.72 281.23 2978.93 281.53 2912.73 547.38 2911.52 547.08 2977.72 281.23"/><polygon id="_9" data-name="9" class="cls-23" points="2978.53 281.43 2979.74 281.73 2913.54 547.59 2912.32 547.28 2978.53 281.43"/><polygon id="_10" data-name="10" class="cls-23" points="2979.33 281.63 2980.54 281.93 2914.34 547.79 2913.13 547.49 2979.33 281.63"/><polygon id="_11" data-name="11" class="cls-24" points="2980.14 281.83 2981.35 282.13 2915.15 547.99 2913.94 547.69 2980.14 281.83"/><polygon id="_12" data-name="12" class="cls-24" points="2980.95 282.03 2982.16 282.33 2915.96 548.19 2914.75 547.89 2980.95 282.03"/><polygon id="_13" data-name="13" class="cls-25" points="2981.76 282.23 2982.97 282.53 2916.77 548.39 2915.55 548.09 2981.76 282.23"/><polygon id="_14" data-name="14" class="cls-26" points="2982.56 282.43 2983.78 282.74 2917.57 548.59 2916.36 548.29 2982.56 282.43"/><polygon id="_15" data-name="15" class="cls-27" points="2983.37 282.63 2984.58 282.94 2918.38 548.79 2917.17 548.49 2983.37 282.63"/><polygon id="_16" data-name="16" class="cls-28" points="2984.18 282.83 2985.39 283.14 2919.19 548.99 2917.98 548.69 2984.18 282.83"/><polygon id="_17" data-name="17" class="cls-29" points="2984.99 283.04 2986.2 283.34 2920 549.2 2918.79 548.89 2984.99 283.04"/><polygon id="_18" data-name="18" class="cls-29" points="2985.79 283.24 2987.01 283.54 2920.8 549.4 2919.59 549.1 2985.79 283.24"/><polygon id="_19" data-name="19" class="cls-30" points="2986.6 283.44 2987.81 283.74 2921.61 549.6 2920.4 549.3 2986.6 283.44"/><polygon id="_20" data-name="20" class="cls-31" points="2987.41 283.64 2988.62 283.94 2922.42 549.8 2921.21 549.5 2987.41 283.64"/><polygon id="_21" data-name="21" class="cls-32" points="2988.22 283.84 2989.43 284.14 2923.23 550 2922.02 549.7 2988.22 283.84"/><polygon id="_22" data-name="22" class="cls-33" points="2989.03 284.04 2990.24 284.34 2924.04 550.2 2922.82 549.9 2989.03 284.04"/><polygon id="_23" data-name="23" class="cls-33" points="2989.83 284.24 2991.04 284.55 2924.84 550.4 2923.63 550.1 2989.83 284.24"/><polygon id="_24" data-name="24" class="cls-34" points="2990.64 284.44 2991.85 284.75 2925.65 550.6 2924.44 550.3 2990.64 284.44"/><polygon id="_25" data-name="25" class="cls-34" points="2991.45 284.64 2992.66 284.95 2926.46 550.8 2925.25 550.5 2991.45 284.64"/><polygon id="_26" data-name="26" class="cls-35" points="2992.26 284.85 2993.47 285.15 2927.27 551 2926.06 550.7 2992.26 284.85"/><polygon id="_27" data-name="27" class="cls-35" points="2993.06 285.05 2994.28 285.35 2928.07 551.21 2926.86 550.9 2993.06 285.05"/><polygon id="_28" data-name="28" class="cls-36" points="2993.87 285.25 2995.08 285.55 2928.88 551.41 2927.67 551.11 2993.87 285.25"/><polygon id="_29" data-name="29" class="cls-37" points="2994.68 285.45 2995.89 285.75 2929.69 551.61 2928.48 551.31 2994.68 285.45"/><polygon id="_30" data-name="30" class="cls-38" points="2995.49 285.65 2996.7 285.95 2930.5 551.81 2929.29 551.51 2995.49 285.65"/><polygon id="_31" data-name="31" class="cls-39" points="2996.29 285.85 2997.51 286.15 2931.3 552.01 2930.09 551.71 2996.29 285.85"/><polygon id="_32" data-name="32" class="cls-40" points="2997.1 286.05 2998.31 286.36 2932.11 552.21 2930.9 551.91 2997.1 286.05"/><polygon id="_33" data-name="33" class="cls-40" points="2997.91 286.25 2999.12 286.56 2932.92 552.41 2931.71 552.11 2997.91 286.25"/><polygon id="_34" data-name="34" class="cls-41" points="2998.72 286.45 2999.93 286.76 2933.73 552.61 2932.52 552.31 2998.72 286.45"/><polygon id="_35" data-name="35" class="cls-41" points="2999.53 286.66 3000.74 286.96 2934.54 552.82 2933.32 552.51 2999.53 286.66"/><polygon id="_36" data-name="36" class="cls-42" points="3000.33 286.86 3001.54 287.16 2935.34 553.02 2934.13 552.72 3000.33 286.86"/><polygon id="_37" data-name="37" class="cls-43" points="3001.14 287.06 3002.35 287.36 2936.15 553.22 2934.94 552.92 3001.14 287.06"/><polygon id="_38" data-name="38" class="cls-43" points="3001.95 287.26 3003.16 287.56 2936.96 553.42 2935.75 553.12 3001.95 287.26"/><polygon id="_39" data-name="39" class="cls-44" points="3002.76 287.46 3003.97 287.76 2937.77 553.62 2936.56 553.32 3002.76 287.46"/><polygon id="_40" data-name="40" class="cls-44" points="3003.56 287.66 3004.78 287.96 2938.57 553.82 2937.36 553.52 3003.56 287.66"/><polygon id="_41" data-name="41" class="cls-45" points="3004.37 287.86 3005.58 288.17 2939.38 554.02 2938.17 553.72 3004.37 287.86"/><polygon id="_42" data-name="42" class="cls-45" points="3005.18 288.06 3006.39 288.37 2940.19 554.22 2938.98 553.92 3005.18 288.06"/><polygon id="_43" data-name="43" class="cls-46" points="3005.99 288.26 3007.2 288.57 2941 554.42 2939.79 554.12 3005.99 288.26"/><polygon id="_44" data-name="44" class="cls-47" points="3006.79 288.47 3008.01 288.77 2941.81 554.63 2940.59 554.32 3006.79 288.47"/><polygon id="_45" data-name="45" class="cls-48" points="3007.6 288.67 3008.81 288.97 2942.61 554.83 2941.4 554.52 3007.6 288.67"/><polygon id="_46" data-name="46" class="cls-48" points="3008.41 288.87 3009.62 289.17 2943.42 555.03 2942.21 554.73 3008.41 288.87"/><polygon id="_47" data-name="47" class="cls-49" points="3009.22 289.07 3010.43 289.37 2944.23 555.23 2943.02 554.93 3009.22 289.07"/><polygon id="_48" data-name="48" class="cls-49" points="3010.03 289.27 3011.24 289.57 2945.04 555.43 2943.82 555.13 3010.03 289.27"/><polygon id="_49" data-name="49" class="cls-50" points="3010.83 289.47 3012.04 289.77 2945.84 555.63 2944.63 555.33 3010.83 289.47"/><polygon id="_50" data-name="50" class="cls-50" points="3011.64 289.67 3012.85 289.98 2946.65 555.83 2945.44 555.53 3011.64 289.67"/><polygon id="_51" data-name="51" class="cls-51" points="3012.45 289.87 3013.66 290.18 2947.46 556.03 2946.25 555.73 3012.45 289.87"/><polygon id="_52" data-name="52" class="cls-52" points="3013.26 290.07 3014.47 290.38 2948.27 556.24 2947.06 555.93 3013.26 290.07"/><polygon id="_53" data-name="53" class="cls-52" points="3014.06 290.28 3015.28 290.58 2949.07 556.44 2947.86 556.13 3014.06 290.28"/><polygon id="_54" data-name="54" class="cls-53" points="3014.87 290.48 3016.08 290.78 2949.88 556.64 2948.67 556.34 3014.87 290.48"/><polygon id="_55" data-name="55" class="cls-53" points="3015.68 290.68 3016.89 290.98 2950.69 556.84 2949.48 556.54 3015.68 290.68"/><polygon id="_56" data-name="56" class="cls-54" points="3016.49 290.88 3017.7 291.18 2951.5 557.04 2950.29 556.74 3016.49 290.88"/><polygon id="_57" data-name="57" class="cls-55" points="3017.29 291.08 3018.51 291.38 2952.31 557.24 2951.09 556.94 3017.29 291.08"/><polygon id="_58" data-name="58" class="cls-56" points="3018.1 291.28 3019.31 291.58 2953.11 557.44 2951.9 557.14 3018.1 291.28"/><polygon id="_59" data-name="59" class="cls-57" points="3018.91 291.48 3020.12 291.79 2953.92 557.64 2952.71 557.34 3018.91 291.48"/><polygon id="_60" data-name="60" class="cls-58" points="3019.72 291.68 3020.93 291.99 2954.73 557.84 2953.52 557.54 3019.72 291.68"/><polygon id="_61" data-name="61" class="cls-58" points="3020.53 291.88 3021.74 292.19 2955.54 558.04 2954.32 557.74 3020.53 291.88"/><polygon id="_62" data-name="62" class="cls-59" points="3021.33 292.09 3022.54 292.39 2956.34 558.25 2955.13 557.94 3021.33 292.09"/><polygon id="_63" data-name="63" class="cls-59" points="3022.14 292.29 3023.35 292.59 2957.15 558.45 2955.94 558.14 3022.14 292.29"/><polygon id="_64" data-name="64" class="cls-60" points="3022.95 292.49 3024.16 292.79 2957.96 558.65 2956.75 558.35 3022.95 292.49"/><polygon id="_65" data-name="65" class="cls-60" points="3023.76 292.69 3024.97 292.99 2958.77 558.85 2957.56 558.55 3023.76 292.69"/><polygon id="_66" data-name="66" class="cls-61" points="3024.56 292.89 3025.78 293.19 2959.57 559.05 2958.36 558.75 3024.56 292.89"/><polygon id="_67" data-name="67" class="cls-62" points="3025.37 293.09 3026.58 293.39 2960.38 559.25 2959.17 558.95 3025.37 293.09"/><polygon id="_68" data-name="68" class="cls-63" points="3026.18 293.29 3027.39 293.6 2961.19 559.45 2959.98 559.15 3026.18 293.29"/><polygon id="_69" data-name="69" class="cls-64" points="3026.99 293.49 3028.2 293.8 2962 559.65 2960.79 559.35 3026.99 293.49"/><polygon id="_70" data-name="70" class="cls-64" points="3027.79 293.7 3029.01 294 2962.81 559.86 2961.59 559.55 3027.79 293.7"/><polygon id="_71" data-name="71" class="cls-65" points="3028.6 293.9 3029.81 294.2 2963.61 560.06 2962.4 559.75 3028.6 293.9"/><polygon id="_72" data-name="72" class="cls-66" points="3029.41 294.1 3030.62 294.4 2964.42 560.26 2963.21 559.96 3029.41 294.1"/><polygon id="_73" data-name="73" class="cls-67" points="3030.22 294.3 3031.43 294.6 2965.23 560.46 2964.02 560.16 3030.22 294.3"/><polygon id="_74" data-name="74" class="cls-68" points="3031.03 294.5 3032.24 294.8 2966.04 560.66 2964.82 560.36 3031.03 294.5"/><polygon id="_75" data-name="75" class="cls-69" points="3031.83 294.7 3033.04 295 2966.84 560.86 2965.63 560.56 3031.83 294.7"/><polygon id="_76" data-name="76" class="cls-69" points="3032.64 294.9 3033.85 295.2 2967.65 561.06 2966.44 560.76 3032.64 294.9"/><polygon id="_77" data-name="77" class="cls-70" points="3033.45 295.1 3034.66 295.4 2968.46 561.26 2967.25 560.96 3033.45 295.1"/><polygon id="_78" data-name="78" class="cls-70" points="3034.26 295.31 3035.47 295.61 2969.27 561.46 2968.06 561.16 3034.26 295.31"/><polygon id="_79" data-name="79" class="cls-71" points="3035.06 295.51 3036.28 295.81 2970.07 561.66 2968.86 561.36 3035.06 295.51"/><polygon id="_80" data-name="80" class="cls-71" points="3035.87 295.71 3037.08 296.01 2970.88 561.87 2969.67 561.56 3035.87 295.71"/><polygon id="_81" data-name="81" class="cls-72" points="3036.68 295.91 3037.89 296.21 2971.69 562.07 2970.48 561.76 3036.68 295.91"/><polygon id="_82" data-name="82" class="cls-73" points="3037.49 296.11 3038.7 296.41 2972.5 562.27 2971.29 561.97 3037.49 296.11"/><polygon id="_83" data-name="83" class="cls-74" points="3038.29 296.31 3039.51 296.61 2973.31 562.47 2972.09 562.17 3038.29 296.31"/><polygon id="_84" data-name="84" class="cls-75" points="3039.1 296.51 3040.31 296.81 2974.11 562.67 2972.9 562.37 3039.1 296.51"/><polygon id="_85" data-name="85" class="cls-76" points="3039.91 296.71 3041.12 297.01 2974.92 562.87 2973.71 562.57 3039.91 296.71"/><polygon id="_86" data-name="86" class="cls-77" points="3040.72 296.91 3041.93 297.21 2975.73 563.07 2974.52 562.77 3040.72 296.91"/><polygon id="_87" data-name="87" class="cls-77" points="3041.53 297.12 3042.74 297.42 2976.54 563.27 2975.32 562.97 3041.53 297.12"/><polygon id="_88" data-name="88" class="cls-78" points="3042.33 297.32 3043.54 297.62 2977.34 563.48 2976.13 563.17 3042.33 297.32"/><polygon id="_89" data-name="89" class="cls-79" points="3043.14 297.52 3044.35 297.82 2978.15 563.68 2976.94 563.37 3043.14 297.52"/><polygon id="_90" data-name="90" class="cls-80" points="3043.95 297.72 3045.16 298.02 2978.96 563.88 2977.75 563.58 3043.95 297.72"/><polygon id="_91" data-name="91" class="cls-80" points="3044.76 297.92 3045.97 298.22 2979.77 564.08 2978.56 563.78 3044.76 297.92"/><polygon id="_92" data-name="92" class="cls-81" points="3045.56 298.12 3046.78 298.42 2980.57 564.28 2979.36 563.98 3045.56 298.12"/><polygon id="_93" data-name="93" class="cls-81" points="3046.37 298.32 3047.58 298.62 2981.38 564.48 2980.17 564.18 3046.37 298.32"/><polygon id="_94" data-name="94" class="cls-82" points="3047.18 298.52 3048.39 298.82 2982.19 564.68 2980.98 564.38 3047.18 298.52"/><polygon id="_95" data-name="95" class="cls-82" points="3047.99 298.72 3049.2 299.02 2983 564.88 2981.79 564.58 3047.99 298.72"/><polygon id="_96" data-name="96" class="cls-83" points="3048.8 298.93 3050.01 299.23 2983.81 565.08 2982.59 564.78 3048.8 298.93"/><polygon id="_97" data-name="97" class="cls-84" points="3049.6 299.13 3050.81 299.43 2984.61 565.28 2983.4 564.98 3049.6 299.13"/><polygon id="_98" data-name="98" class="cls-85" points="3050.41 299.33 3051.62 299.63 2985.42 565.49 2984.21 565.18 3050.41 299.33"/><polygon id="_99" data-name="99" class="cls-86" points="3051.22 299.53 3052.43 299.83 2986.23 565.69 2985.02 565.39 3051.22 299.53"/><polygon id="_100" data-name="100" class="cls-87" points="3052.03 299.73 3053.24 300.03 2987.04 565.89 2985.82 565.59 3052.03 299.73"/><polygon id="_101" data-name="101" class="cls-87" points="3052.83 299.93 3054.05 300.23 2987.84 566.09 2986.63 565.79 3052.83 299.93"/><polygon id="_102" data-name="102" class="cls-88" points="3053.64 300.13 3054.85 300.43 2988.65 566.29 2987.44 565.99 3053.64 300.13"/><polygon id="_103" data-name="103" class="cls-89" points="3054.45 300.33 3055.66 300.63 2989.46 566.49 2988.25 566.19 3054.45 300.33"/><polygon id="_104" data-name="104" class="cls-90" points="3055.26 300.53 3056.47 300.83 2990.27 566.69 2989.06 566.39 3055.26 300.53"/><polygon id="_105" data-name="105" class="cls-91" points="3056.06 300.74 3057.28 301.04 2991.07 566.89 2989.86 566.59 3056.06 300.74"/><polygon id="_106" data-name="106" class="cls-91" points="3056.87 300.94 3058.08 301.24 2991.88 567.1 2990.67 566.79 3056.87 300.94"/><polygon id="_107" data-name="107" class="cls-92" points="3057.68 301.14 3058.89 301.44 2992.69 567.3 2991.48 567 3057.68 301.14"/><polygon id="_108" data-name="108" class="cls-92" points="3058.49 301.34 3059.7 301.64 2993.5 567.5 2992.29 567.2 3058.49 301.34"/><polygon id="_109" data-name="109" class="cls-93" points="3059.3 301.54 3060.51 301.84 2994.31 567.7 2993.09 567.4 3059.3 301.54"/><polygon id="_110" data-name="110" class="cls-93" points="3060.1 301.74 3061.31 302.04 2995.11 567.9 2993.9 567.6 3060.1 301.74"/><polygon id="_111" data-name="111" class="cls-94" points="3060.91 301.94 3062.12 302.24 2995.92 568.1 2994.71 567.8 3060.91 301.94"/><polygon id="_112" data-name="112" class="cls-95" points="3061.72 302.14 3062.93 302.44 2996.73 568.3 2995.52 568 3061.72 302.14"/><polygon id="_113" data-name="113" class="cls-96" points="3062.53 302.34 3063.74 302.65 2997.54 568.5 2996.32 568.2 3062.53 302.34"/><polygon id="_114" data-name="114" class="cls-97" points="3063.33 302.55 3064.55 302.85 2998.34 568.7 2997.13 568.4 3063.33 302.55"/><polygon id="_115" data-name="115" class="cls-98" points="3064.14 302.75 3065.35 303.05 2999.15 568.9 2997.94 568.6 3064.14 302.75"/><polygon id="_116" data-name="116" class="cls-98" points="3064.95 302.95 3066.16 303.25 2999.96 569.11 2998.75 568.8 3064.95 302.95"/><polygon id="_117" data-name="117" class="cls-99" points="3065.76 303.15 3066.97 303.45 3000.77 569.31 2999.56 569.01 3065.76 303.15"/><polygon id="_118" data-name="118" class="cls-100" points="3066.56 303.35 3067.78 303.65 3001.57 569.51 3000.36 569.21 3066.56 303.35"/><polygon id="_119" data-name="119" class="cls-101" points="3067.37 303.55 3068.58 303.85 3002.38 569.71 3001.17 569.41 3067.37 303.55"/><polygon id="_120" data-name="120" class="cls-102" points="3068.18 303.75 3069.39 304.05 3003.19 569.91 3001.98 569.61 3068.18 303.75"/><polygon id="_121" data-name="121" class="cls-102" points="3068.99 303.95 3070.2 304.25 3004 570.11 3002.79 569.81 3068.99 303.95"/><polygon id="_122" data-name="122" class="cls-103" points="3069.8 304.15 3071.01 304.46 3004.81 570.31 3003.59 570.01 3069.8 304.15"/><polygon id="_123" data-name="123" class="cls-103" points="3070.6 304.36 3071.81 304.66 3005.61 570.51 3004.4 570.21 3070.6 304.36"/><polygon id="_124" data-name="124" class="cls-104" points="3071.41 304.56 3072.62 304.86 3006.42 570.72 3005.21 570.41 3071.41 304.56"/><polygon id="_125" data-name="125" class="cls-104" points="3072.22 304.76 3073.43 305.06 3007.23 570.92 3006.02 570.62 3072.22 304.76"/><polygon id="_126" data-name="126" class="cls-105" points="3073.03 304.96 3074.24 305.26 3008.04 571.12 3006.82 570.82 3073.03 304.96"/><polygon id="_127" data-name="127" class="cls-106" points="3073.83 305.16 3075.05 305.46 3008.84 571.32 3007.63 571.02 3073.83 305.16"/><polygon id="_128" data-name="128" class="cls-107" points="3074.64 305.36 3075.85 305.66 3009.65 571.52 3008.44 571.22 3074.64 305.36"/><polygon id="_129" data-name="129" class="cls-108" points="3075.45 305.56 3076.66 305.86 3010.46 571.72 3009.25 571.42 3075.45 305.56"/><polygon id="_130" data-name="130" class="cls-109" points="3076.26 305.76 3077.47 306.06 3011.27 571.92 3010.06 571.62 3076.26 305.76"/><polygon id="_131" data-name="131" class="cls-109" points="3077.06 305.96 3078.28 306.27 3012.07 572.12 3010.86 571.82 3077.06 305.96"/><polygon id="_132" data-name="132" class="cls-110" points="3077.87 306.17 3079.08 306.47 3012.88 572.32 3011.67 572.02 3077.87 306.17"/><polygon id="_133" data-name="133" class="cls-110" points="3078.68 306.37 3079.89 306.67 3013.69 572.53 3012.48 572.22 3078.68 306.37"/><polygon id="_134" data-name="134" class="cls-111" points="3079.49 306.57 3080.7 306.87 3014.5 572.73 3013.29 572.42 3079.49 306.57"/><polygon id="_135" data-name="135" class="cls-112" points="3080.3 306.77 3081.51 307.07 3015.31 572.93 3014.09 572.63 3080.3 306.77"/><polygon id="_136" data-name="136" class="cls-112" points="3081.1 306.97 3082.31 307.27 3016.11 573.13 3014.9 572.83 3081.1 306.97"/><polygon id="_137" data-name="137" class="cls-113" points="3081.91 307.17 3083.12 307.47 3016.92 573.33 3015.71 573.03 3081.91 307.17"/><polygon id="_138" data-name="138" class="cls-113" points="3082.72 307.37 3083.93 307.67 3017.73 573.53 3016.52 573.23 3082.72 307.37"/><polygon id="_139" data-name="139" class="cls-114" points="3083.53 307.57 3084.74 307.88 3018.54 573.73 3017.32 573.43 3083.53 307.57"/><polygon id="_140" data-name="140" class="cls-115" points="3084.33 307.77 3085.55 308.08 3019.34 573.93 3018.13 573.63 3084.33 307.77"/><polygon id="_141" data-name="141" class="cls-116" points="3085.14 307.98 3086.35 308.28 3020.15 574.13 3018.94 573.83 3085.14 307.98"/><polygon id="_142" data-name="142" class="cls-117" points="3085.95 308.18 3087.16 308.48 3020.96 574.34 3019.75 574.03 3085.95 308.18"/><polygon id="_143" data-name="143" class="cls-118" points="3086.76 308.38 3087.97 308.68 3021.77 574.54 3020.56 574.24 3086.76 308.38"/><polygon id="_144" data-name="144" class="cls-118" points="3087.56 308.58 3088.78 308.88 3022.57 574.74 3021.36 574.44 3087.56 308.58"/><polygon id="_145" data-name="145" class="cls-119" points="3088.37 308.78 3089.58 309.08 3023.38 574.94 3022.17 574.64 3088.37 308.78"/><polygon id="_146" data-name="146" class="cls-119" points="3089.18 308.98 3090.39 309.28 3024.19 575.14 3022.98 574.84 3089.18 308.98"/><polygon id="_147" data-name="147" class="cls-120" points="3089.99 309.18 3091.2 309.48 3025 575.34 3023.79 575.04 3089.99 309.18"/><polygon id="_148" data-name="148" class="cls-120" points="3090.8 309.38 3092.01 309.69 3025.81 575.54 3024.59 575.24 3090.8 309.38"/><polygon id="_149" data-name="149" class="cls-121" points="3091.6 309.58 3092.81 309.89 3026.61 575.74 3025.4 575.44 3091.6 309.58"/><polygon id="_150" data-name="150" class="cls-122" points="3092.41 309.79 3093.62 310.09 3027.42 575.95 3026.21 575.64 3092.41 309.79"/><polygon id="_151" data-name="151" class="cls-123" points="3093.22 309.99 3094.43 310.29 3028.23 576.15 3027.02 575.84 3093.22 309.99"/><polygon id="_152" data-name="152" class="cls-124" points="3094.03 310.19 3095.24 310.49 3029.04 576.35 3027.82 576.04 3094.03 310.19"/><polygon id="_153" data-name="153" class="cls-124" points="3094.83 310.39 3096.05 310.69 3029.84 576.55 3028.63 576.25 3094.83 310.39"/><polygon id="_154" data-name="154" class="cls-125" points="3095.64 310.59 3096.85 310.89 3030.65 576.75 3029.44 576.45 3095.64 310.59"/><polygon id="_155" data-name="155" class="cls-126" points="3096.45 310.79 3097.66 311.09 3031.46 576.95 3030.25 576.65 3096.45 310.79"/><polygon id="_156" data-name="156" class="cls-127" points="3097.26 310.99 3098.47 311.29 3032.27 577.15 3031.06 576.85 3097.26 310.99"/><polygon id="_157" data-name="157" class="cls-128" points="3098.06 311.19 3099.28 311.5 3033.07 577.35 3031.86 577.05 3098.06 311.19"/><polygon id="_158" data-name="158" class="cls-129" points="3098.87 311.39 3100.08 311.7 3033.88 577.55 3032.67 577.25 3098.87 311.39"/><polygon id="_159" data-name="159" class="cls-129" points="3099.68 311.6 3100.89 311.9 3034.69 577.75 3033.48 577.45 3099.68 311.6"/><polygon id="_160" data-name="160" class="cls-130" points="3100.49 311.8 3101.7 312.1 3035.5 577.96 3034.29 577.65 3100.49 311.8"/><polygon id="_161" data-name="161" class="cls-130" points="3101.3 312 3102.51 312.3 3036.31 578.16 3035.09 577.86 3101.3 312"/><polygon id="_162" data-name="162" class="cls-131" points="3102.1 312.2 3103.31 312.5 3037.11 578.36 3035.9 578.06 3102.1 312.2"/><polygon id="_163" data-name="163" class="cls-131" points="3102.91 312.4 3104.12 312.7 3037.92 578.56 3036.71 578.26 3102.91 312.4"/><polygon id="_164" data-name="164" class="cls-132" points="3103.72 312.6 3104.93 312.9 3038.73 578.76 3037.52 578.46 3103.72 312.6"/><polygon id="_165" data-name="165" class="cls-132" points="3104.53 312.8 3105.74 313.1 3039.54 578.96 3038.32 578.66 3104.53 312.8"/><polygon id="_166" data-name="166" class="cls-133" points="3105.33 313 3106.55 313.31 3040.34 579.16 3039.13 578.86 3105.33 313"/><polygon id="_167" data-name="167" class="cls-134" points="3106.14 313.2 3107.35 313.51 3041.15 579.36 3039.94 579.06 3106.14 313.2"/><polygon id="_168" data-name="168" class="cls-135" points="3106.95 313.41 3108.16 313.71 3041.96 579.57 3040.75 579.26 3106.95 313.41"/><polygon id="_169" data-name="169" class="cls-136" points="3107.76 313.61 3108.97 313.91 3042.77 579.77 3041.56 579.46 3107.76 313.61"/><polygon id="_170" data-name="170" class="cls-136" points="3108.56 313.81 3109.78 314.11 3043.57 579.97 3042.36 579.66 3108.56 313.81"/><polygon id="_171" data-name="171" class="cls-137" points="3109.37 314.01 3110.58 314.31 3044.38 580.17 3043.17 579.87 3109.37 314.01"/><polygon id="_172" data-name="172" class="cls-138" points="3110.18 314.21 3111.39 314.51 3045.19 580.37 3043.98 580.07 3110.18 314.21"/><polygon id="_173" data-name="173" class="cls-139" points="3110.99 314.41 3112.2 314.71 3046 580.57 3044.79 580.27 3110.99 314.41"/><polygon id="_174" data-name="174" class="cls-139" points="3111.8 314.61 3113.01 314.91 3046.81 580.77 3045.59 580.47 3111.8 314.61"/><polygon id="_175" data-name="175" class="cls-140" points="3112.6 314.81 3113.81 315.12 3047.61 580.97 3046.4 580.67 3112.6 314.81"/><polygon id="_176" data-name="176" class="cls-140" points="3113.41 315.01 3114.62 315.32 3048.42 581.17 3047.21 580.87 3113.41 315.01"/><polygon id="_177" data-name="177" class="cls-141" points="3114.22 315.22 3115.43 315.52 3049.23 581.38 3048.02 581.07 3114.22 315.22"/><polygon id="_178" data-name="178" class="cls-141" points="3115.03 315.42 3116.24 315.72 3050.04 581.58 3048.82 581.27 3115.03 315.42"/><polygon id="_179" data-name="179" class="cls-142" points="3115.83 315.62 3117.05 315.92 3050.84 581.78 3049.63 581.48 3115.83 315.62"/><polygon id="_180" data-name="180" class="cls-143" points="3116.64 315.82 3117.85 316.12 3051.65 581.98 3050.44 581.68 3116.64 315.82"/><polygon id="_181" data-name="181" class="cls-144" points="3117.45 316.02 3118.66 316.32 3052.46 582.18 3051.25 581.88 3117.45 316.02"/><polygon id="_182" data-name="182" class="cls-145" points="3118.26 316.22 3119.47 316.52 3053.27 582.38 3052.06 582.08 3118.26 316.22"/><polygon id="_183" data-name="183" class="cls-146" points="3119.06 316.42 3120.28 316.72 3054.07 582.58 3052.86 582.28 3119.06 316.42"/><polygon id="_184" data-name="184" class="cls-147" points="3119.87 316.62 3121.08 316.93 3054.88 582.78 3053.67 582.48 3119.87 316.62"/><polygon id="_185" data-name="185" class="cls-148" points="3120.68 316.82 3121.89 317.13 3055.69 582.98 3054.48 582.68 3120.68 316.82"/><polygon id="_186" data-name="186" class="cls-149" points="3121.49 317.03 3122.7 317.33 3056.5 583.18 3055.29 582.88 3121.49 317.03"/><polygon id="_187" data-name="187" class="cls-150" points="3122.3 317.23 3123.51 317.53 3057.31 583.39 3056.09 583.08 3122.3 317.23"/><polygon id="_188" data-name="188" class="cls-151" points="3123.1 317.43 3124.31 317.73 3058.11 583.59 3056.9 583.28 3123.1 317.43"/><polygon id="_189" data-name="189" class="cls-152" points="3123.91 317.63 3125.12 317.93 3058.92 583.79 3057.71 583.49 3123.91 317.63"/><polygon id="_190" data-name="190" class="cls-153" points="3124.72 317.83 3125.93 318.13 3059.73 583.99 3058.52 583.69 3124.72 317.83"/><polygon id="_191" data-name="191" class="cls-154" points="3125.53 318.03 3126.74 318.33 3060.54 584.19 3059.32 583.89 3125.53 318.03"/><polygon id="_192" data-name="192" class="cls-155" points="3126.33 318.23 3127.55 318.53 3061.34 584.39 3060.13 584.09 3126.33 318.23"/><polygon id="_193" data-name="193" class="cls-156" points="3127.14 318.43 3128.35 318.74 3062.15 584.59 3060.94 584.29 3127.14 318.43"/><polygon id="_194" data-name="194" class="cls-157" points="3127.95 318.63 3129.16 318.94 3062.96 584.79 3061.75 584.49 3127.95 318.63"/><polygon id="_195" data-name="195" class="cls-158" points="3128.76 318.84 3129.97 319.14 3063.77 585 3062.56 584.69 3128.76 318.84"/><polygon id="_196" data-name="196" class="cls-159" points="3129.56 319.04 3130.78 319.34 3064.57 585.2 3063.36 584.89 3129.56 319.04"/><polygon id="_197" data-name="197" class="cls-160" points="3130.37 319.24 3131.58 319.54 3065.38 585.4 3064.17 585.1 3130.37 319.24"/><polygon id="_198" data-name="198" class="cls-161" points="3131.18 319.44 3132.39 319.74 3066.19 585.6 3064.98 585.3 3131.18 319.44"/><polygon id="_199" data-name="199" class="cls-162" points="3131.99 319.64 3133.2 319.94 3067 585.8 3065.79 585.5 3131.99 319.64"/><polygon id="_200" data-name="200" class="cls-163" points="3132.8 319.84 3134.01 320.14 3067.81 586 3066.59 585.7 3132.8 319.84"/><polygon id="_201" data-name="201" class="cls-164" points="3133.6 320.04 3134.81 320.34 3068.61 586.2 3067.4 585.9 3133.6 320.04"/><polygon id="_202" data-name="202" class="cls-165" points="3134.41 320.24 3135.62 320.55 3069.42 586.4 3068.21 586.1 3134.41 320.24"/><polygon id="_203" data-name="203" class="cls-166" points="3135.22 320.44 3136.43 320.75 3070.23 586.6 3069.02 586.3 3135.22 320.44"/><polygon id="_204" data-name="204" class="cls-167" points="3136.03 320.65 3137.24 320.95 3071.04 586.8 3069.82 586.5 3136.03 320.65"/><polygon id="_205" data-name="205" class="cls-168" points="3136.83 320.85 3138.05 321.15 3071.84 587.01 3070.63 586.71 3136.83 320.85"/><polygon id="_206" data-name="206" class="cls-169" points="3137.64 321.05 3138.85 321.35 3072.65 587.21 3071.44 586.91 3137.64 321.05"/><polygon id="_207" data-name="207" class="cls-170" points="3138.45 321.25 3139.66 321.55 3073.46 587.41 3072.25 587.11 3138.45 321.25"/><polygon id="_208" data-name="208" class="cls-171" points="3139.26 321.45 3140.47 321.75 3074.27 587.61 3073.06 587.31 3139.26 321.45"/><polygon id="_209" data-name="209" class="cls-172" points="3140.06 321.65 3141.28 321.95 3075.07 587.81 3073.86 587.51 3140.06 321.65"/><polygon id="_210" data-name="210" class="cls-173" points="3140.87 321.85 3142.08 322.15 3075.88 588.01 3074.67 587.71 3140.87 321.85"/><polygon id="_211" data-name="211" class="cls-174" points="3141.68 322.05 3142.89 322.36 3076.69 588.21 3075.48 587.91 3141.68 322.05"/><polygon id="_212" data-name="212" class="cls-175" points="3142.49 322.25 3143.7 322.56 3077.5 588.41 3076.29 588.11 3142.49 322.25"/><polygon id="_213" data-name="213" class="cls-176" points="3143.3 322.46 3144.51 322.76 3078.31 588.62 3077.09 588.31 3143.3 322.46"/><polygon id="_214" data-name="214" class="cls-177" points="3144.1 322.66 3145.31 322.96 3079.11 588.82 3077.9 588.51 3144.1 322.66"/><polygon id="_215" data-name="215" class="cls-178" points="3144.91 322.86 3146.12 323.16 3079.92 589.02 3078.71 588.72 3144.91 322.86"/><polygon id="_216" data-name="216" class="cls-179" points="3145.72 323.06 3146.93 323.36 3080.73 589.22 3079.52 588.92 3145.72 323.06"/><polygon id="_217" data-name="217" class="cls-180" points="3146.53 323.26 3147.74 323.56 3081.54 589.42 3080.32 589.12 3146.53 323.26"/><polygon id="_218" data-name="218" class="cls-181" points="3147.33 323.46 3148.55 323.76 3082.34 589.62 3081.13 589.32 3147.33 323.46"/><polygon id="_219" data-name="219" class="cls-182" points="3148.14 323.66 3149.35 323.96 3083.15 589.82 3081.94 589.52 3148.14 323.66"/><polygon id="_220" data-name="220" class="cls-183" points="3148.95 323.86 3150.16 324.17 3083.96 590.02 3082.75 589.72 3148.95 323.86"/><polygon id="_221" data-name="221" class="cls-184" points="3149.76 324.06 3150.97 324.37 3084.77 590.22 3083.56 589.92 3149.76 324.06"/><polygon id="_222" data-name="222" class="cls-185" points="3150.56 324.27 3151.78 324.57 3085.57 590.42 3084.36 590.12 3150.56 324.27"/><polygon id="_223" data-name="223" class="cls-186" points="3151.37 324.47 3152.58 324.77 3086.38 590.63 3085.17 590.33 3151.37 324.47"/><polygon id="_224" data-name="224" class="cls-187" points="3152.18 324.67 3153.39 324.97 3087.19 590.83 3085.98 590.53 3152.18 324.67"/><polygon id="_225" data-name="225" class="cls-188" points="3152.99 324.87 3154.2 325.17 3088 591.03 3086.79 590.73 3152.99 324.87"/><polygon id="_226" data-name="226" class="cls-189" points="3153.8 325.07 3155.01 325.37 3088.81 591.23 3087.59 590.93 3153.8 325.07"/><polygon id="_227" data-name="227" class="cls-190" points="3154.6 325.27 3155.81 325.57 3089.61 591.43 3088.4 591.13 3154.6 325.27"/><polygon id="_228" data-name="228" class="cls-191" points="3155.41 325.47 3156.62 325.77 3090.42 591.63 3089.21 591.33 3155.41 325.47"/><polygon id="_229" data-name="229" class="cls-192" points="3156.22 325.67 3157.43 325.98 3091.23 591.83 3090.02 591.53 3156.22 325.67"/><polygon id="_230" data-name="230" class="cls-193" points="3157.03 325.88 3158.24 326.18 3092.04 592.03 3090.82 591.73 3157.03 325.88"/><polygon id="_231" data-name="231" class="cls-194" points="3157.83 326.08 3159.05 326.38 3092.84 592.24 3091.63 591.93 3157.83 326.08"/><polygon id="_232" data-name="232" class="cls-195" points="3158.64 326.28 3159.85 326.58 3093.65 592.44 3092.44 592.13 3158.64 326.28"/><polygon id="_233" data-name="233" class="cls-196" points="3159.45 326.48 3160.66 326.78 3094.46 592.64 3093.25 592.34 3159.45 326.48"/><polygon id="_234" data-name="234" class="cls-197" points="3160.26 326.68 3161.47 326.98 3095.27 592.84 3094.06 592.54 3160.26 326.68"/><polygon id="_235" data-name="235" class="cls-198" points="3161.06 326.88 3162.28 327.18 3096.07 593.04 3094.86 592.74 3161.06 326.88"/><polygon id="_236" data-name="236" class="cls-199" points="3161.87 327.08 3163.08 327.38 3096.88 593.24 3095.67 592.94 3161.87 327.08"/><polygon id="_237" data-name="237" class="cls-200" points="3162.68 327.28 3163.89 327.58 3097.69 593.44 3096.48 593.14 3162.68 327.28"/><polygon id="_238" data-name="238" class="cls-201" points="3163.49 327.48 3164.7 327.79 3098.5 593.64 3097.29 593.34 3163.49 327.48"/><polygon id="_239" data-name="239" class="cls-202" points="3164.3 327.69 3165.51 327.99 3099.31 593.84 3098.09 593.54 3164.3 327.69"/><polygon id="_240" data-name="240" class="cls-203" points="3165.1 327.89 3166.31 328.19 3100.11 594.04 3098.9 593.74 3165.1 327.89"/><polygon id="_241" data-name="241" class="cls-204" points="3165.91 328.09 3167.12 328.39 3100.92 594.25 3099.71 593.95 3165.91 328.09"/><polygon id="_242" data-name="242" class="cls-205" points="3166.72 328.29 3167.93 328.59 3101.73 594.45 3100.52 594.15 3166.72 328.29"/><polygon id="_243" data-name="243" class="cls-206" points="3167.53 328.49 3168.74 328.79 3102.54 594.65 3101.32 594.35 3167.53 328.49"/><polygon id="_244" data-name="244" class="cls-207" points="3168.33 328.69 3169.55 328.99 3103.34 594.85 3102.13 594.55 3168.33 328.69"/><polygon id="_245" data-name="245" class="cls-208" points="3169.14 328.89 3170.35 329.19 3104.15 595.05 3102.94 594.75 3169.14 328.89"/><polygon id="_246" data-name="246" class="cls-209" points="3169.95 329.09 3171.16 329.39 3104.96 595.25 3103.75 594.95 3169.95 329.09"/><polygon id="_247" data-name="247" class="cls-210" points="3170.76 329.29 3171.97 329.6 3105.77 595.45 3104.56 595.15 3170.76 329.29"/><polygon id="_248" data-name="248" class="cls-211" points="3171.56 329.5 3172.78 329.8 3106.57 595.65 3105.36 595.35 3171.56 329.5"/><polygon id="_249" data-name="249" class="cls-212" points="3172.37 329.7 3173.58 330 3107.38 595.86 3106.17 595.55 3172.37 329.7"/><polygon id="_250" data-name="250" class="cls-213" points="3173.18 329.9 3174.39 330.2 3108.19 596.06 3106.98 595.75 3173.18 329.9"/><polygon id="_251" data-name="251" class="cls-214" points="3173.99 330.1 3175.2 330.4 3109 596.26 3107.79 595.96 3173.99 330.1"/><polygon id="_252" data-name="252" class="cls-215" points="3174.8 330.3 3176.01 330.6 3109.81 596.46 3108.59 596.16 3174.8 330.3"/><polygon id="_253" data-name="253" class="cls-216" points="3175.6 330.5 3176.81 330.8 3110.61 596.66 3109.4 596.36 3175.6 330.5"/><polygon id="_254" data-name="254" class="cls-217" points="3176.41 330.7 3177.62 331 3111.42 596.86 3110.21 596.56 3176.41 330.7"/><polygon id="_255" data-name="255" class="cls-218" points="3177.22 330.9 3178.43 331.2 3112.23 597.06 3111.02 596.76 3177.22 330.9"/><polygon id="_256" data-name="256" class="cls-219" points="3178.03 331.1 3179.24 331.41 3113.04 597.26 3111.82 596.96 3178.03 331.1"/><polygon id="_257" data-name="257" class="cls-220" points="3178.83 331.31 3180.05 331.61 3113.84 597.47 3112.63 597.16 3178.83 331.31"/><polygon id="_258" data-name="258" class="cls-219" points="3179.64 331.51 3180.85 331.81 3114.65 597.67 3113.44 597.36 3179.64 331.51"/><polygon id="_259" data-name="259" class="cls-218" points="3180.45 331.71 3181.66 332.01 3115.46 597.87 3114.25 597.57 3180.45 331.71"/><polygon id="_260" data-name="260" class="cls-217" points="3181.26 331.91 3182.47 332.21 3116.27 598.07 3115.06 597.77 3181.26 331.91"/><polygon id="_261" data-name="261" class="cls-216" points="3182.06 332.11 3183.28 332.41 3117.07 598.27 3115.86 597.97 3182.06 332.11"/><polygon id="_262" data-name="262" class="cls-215" points="3182.87 332.31 3184.08 332.61 3117.88 598.47 3116.67 598.17 3182.87 332.31"/><polygon id="_263" data-name="263" class="cls-214" points="3183.68 332.51 3184.89 332.81 3118.69 598.67 3117.48 598.37 3183.68 332.51"/><polygon id="_264" data-name="264" class="cls-213" points="3184.49 332.71 3185.7 333.01 3119.5 598.87 3118.29 598.57 3184.49 332.71"/><polygon id="_265" data-name="265" class="cls-212" points="3185.3 332.91 3186.51 333.22 3120.31 599.07 3119.09 598.77 3185.3 332.91"/><polygon id="_266" data-name="266" class="cls-211" points="3186.1 333.12 3187.31 333.42 3121.11 599.27 3119.9 598.97 3186.1 333.12"/><polygon id="_267" data-name="267" class="cls-210" points="3186.91 333.32 3188.12 333.62 3121.92 599.48 3120.71 599.17 3186.91 333.32"/><polygon id="_268" data-name="268" class="cls-209" points="3187.72 333.52 3188.93 333.82 3122.73 599.68 3121.52 599.38 3187.72 333.52"/><polygon id="_269" data-name="269" class="cls-208" points="3188.53 333.72 3189.74 334.02 3123.54 599.88 3122.32 599.58 3188.53 333.72"/><polygon id="_270" data-name="270" class="cls-207" points="3189.33 333.92 3190.55 334.22 3124.34 600.08 3123.13 599.78 3189.33 333.92"/><polygon id="_271" data-name="271" class="cls-206" points="3190.14 334.12 3191.35 334.42 3125.15 600.28 3123.94 599.98 3190.14 334.12"/><polygon id="_272" data-name="272" class="cls-205" points="3190.95 334.32 3192.16 334.62 3125.96 600.48 3124.75 600.18 3190.95 334.32"/><polygon id="_273" data-name="273" class="cls-204" points="3191.76 334.52 3192.97 334.82 3126.77 600.68 3125.56 600.38 3191.76 334.52"/><polygon id="_274" data-name="274" class="cls-203" points="3192.56 334.72 3193.78 335.03 3127.57 600.88 3126.36 600.58 3192.56 334.72"/><polygon id="_275" data-name="275" class="cls-202" points="3193.37 334.93 3194.58 335.23 3128.38 601.09 3127.17 600.78 3193.37 334.93"/><polygon id="_276" data-name="276" class="cls-201" points="3194.18 335.13 3195.39 335.43 3129.19 601.29 3127.98 600.98 3194.18 335.13"/><polygon id="_277" data-name="277" class="cls-200" points="3194.99 335.33 3196.2 335.63 3130 601.49 3128.79 601.18 3194.99 335.33"/><polygon id="_278" data-name="278" class="cls-199" points="3195.8 335.53 3197.01 335.83 3130.81 601.69 3129.59 601.39 3195.8 335.53"/><polygon id="_279" data-name="279" class="cls-198" points="3196.6 335.73 3197.81 336.03 3131.61 601.89 3130.4 601.59 3196.6 335.73"/><polygon id="_280" data-name="280" class="cls-197" points="3197.41 335.93 3198.62 336.23 3132.42 602.09 3131.21 601.79 3197.41 335.93"/><polygon id="_281" data-name="281" class="cls-196" points="3198.22 336.13 3199.43 336.43 3133.23 602.29 3132.02 601.99 3198.22 336.13"/><polygon id="_282" data-name="282" class="cls-195" points="3199.03 336.33 3200.24 336.63 3134.04 602.49 3132.82 602.19 3199.03 336.33"/><polygon id="_283" data-name="283" class="cls-194" points="3199.83 336.53 3201.05 336.84 3134.84 602.69 3133.63 602.39 3199.83 336.53"/><polygon id="_284" data-name="284" class="cls-193" points="3200.64 336.74 3201.85 337.04 3135.65 602.89 3134.44 602.59 3200.64 336.74"/><polygon id="_285" data-name="285" class="cls-192" points="3201.45 336.94 3202.66 337.24 3136.46 603.1 3135.25 602.79 3201.45 336.94"/><polygon id="_286" data-name="286" class="cls-191" points="3202.26 337.14 3203.47 337.44 3137.27 603.3 3136.06 603 3202.26 337.14"/><polygon id="_287" data-name="287" class="cls-190" points="3203.06 337.34 3204.28 337.64 3138.08 603.5 3136.86 603.2 3203.06 337.34"/><polygon id="_288" data-name="288" class="cls-189" points="3203.87 337.54 3205.08 337.84 3138.88 603.7 3137.67 603.4 3203.87 337.54"/><polygon id="_289" data-name="289" class="cls-188" points="3204.68 337.74 3205.89 338.04 3139.69 603.9 3138.48 603.6 3204.68 337.74"/><polygon id="_290" data-name="290" class="cls-187" points="3205.49 337.94 3206.7 338.24 3140.5 604.1 3139.29 603.8 3205.49 337.94"/><polygon id="_291" data-name="291" class="cls-186" points="3206.3 338.14 3207.51 338.44 3141.31 604.3 3140.09 604 3206.3 338.14"/><polygon id="_292" data-name="292" class="cls-185" points="3207.1 338.35 3208.31 338.65 3142.11 604.5 3140.9 604.2 3207.1 338.35"/><polygon id="_293" data-name="293" class="cls-184" points="3207.91 338.55 3209.12 338.85 3142.92 604.71 3141.71 604.4 3207.91 338.55"/><polygon id="_294" data-name="294" class="cls-183" points="3208.72 338.75 3209.93 339.05 3143.73 604.91 3142.52 604.6 3208.72 338.75"/><polygon id="_295" data-name="295" class="cls-182" points="3209.53 338.95 3210.74 339.25 3144.54 605.11 3143.32 604.81 3209.53 338.95"/><polygon id="_296" data-name="296" class="cls-181" points="3210.33 339.15 3211.55 339.45 3145.34 605.31 3144.13 605.01 3210.33 339.15"/><polygon id="_297" data-name="297" class="cls-180" points="3211.14 339.35 3212.35 339.65 3146.15 605.51 3144.94 605.21 3211.14 339.35"/><polygon id="_298" data-name="298" class="cls-179" points="3211.95 339.55 3213.16 339.85 3146.96 605.71 3145.75 605.41 3211.95 339.55"/><polygon id="_299" data-name="299" class="cls-178" points="3212.76 339.75 3213.97 340.05 3147.77 605.91 3146.56 605.61 3212.76 339.75"/><polygon id="_300" data-name="300" class="cls-177" points="3213.56 339.95 3214.78 340.25 3148.58 606.11 3147.36 605.81 3213.56 339.95"/><polygon id="_301" data-name="301" class="cls-176" points="3214.37 340.15 3215.58 340.46 3149.38 606.31 3148.17 606.01 3214.37 340.15"/><polygon id="_302" data-name="302" class="cls-175" points="3215.18 340.36 3216.39 340.66 3150.19 606.51 3148.98 606.21 3215.18 340.36"/><polygon id="_303" data-name="303" class="cls-174" points="3215.99 340.56 3217.2 340.86 3151 606.72 3149.79 606.41 3215.99 340.56"/><polygon id="_304" data-name="304" class="cls-173" points="3216.8 340.76 3218.01 341.06 3151.81 606.92 3150.59 606.62 3216.8 340.76"/><polygon id="_305" data-name="305" class="cls-172" points="3217.6 340.96 3218.81 341.26 3152.61 607.12 3151.4 606.82 3217.6 340.96"/><polygon id="_306" data-name="306" class="cls-171" points="3218.41 341.16 3219.62 341.46 3153.42 607.32 3152.21 607.02 3218.41 341.16"/><polygon id="_307" data-name="307" class="cls-170" points="3219.22 341.36 3220.43 341.66 3154.23 607.52 3153.02 607.22 3219.22 341.36"/><polygon id="_308" data-name="308" class="cls-169" points="3220.03 341.56 3221.24 341.86 3155.04 607.72 3153.83 607.42 3220.03 341.56"/><polygon id="_309" data-name="309" class="cls-168" points="3220.83 341.76 3222.05 342.06 3155.84 607.92 3154.63 607.62 3220.83 341.76"/><polygon id="_310" data-name="310" class="cls-167" points="3221.64 341.96 3222.85 342.27 3156.65 608.12 3155.44 607.82 3221.64 341.96"/><polygon id="_311" data-name="311" class="cls-166" points="3222.45 342.17 3223.66 342.47 3157.46 608.33 3156.25 608.02 3222.45 342.17"/><polygon id="_312" data-name="312" class="cls-165" points="3223.26 342.37 3224.47 342.67 3158.27 608.53 3157.06 608.23 3223.26 342.37"/><polygon id="_313" data-name="313" class="cls-164" points="3224.06 342.57 3225.28 342.87 3159.08 608.73 3157.86 608.43 3224.06 342.57"/><polygon id="_314" data-name="314" class="cls-163" points="3224.87 342.77 3226.08 343.07 3159.88 608.93 3158.67 608.63 3224.87 342.77"/><polygon id="_315" data-name="315" class="cls-162" points="3225.68 342.97 3226.89 343.27 3160.69 609.13 3159.48 608.83 3225.68 342.97"/><polygon id="_316" data-name="316" class="cls-161" points="3226.49 343.17 3227.7 343.47 3161.5 609.33 3160.29 609.03 3226.49 343.17"/><polygon id="_317" data-name="317" class="cls-160" points="3227.3 343.37 3228.51 343.67 3162.31 609.53 3161.09 609.23 3227.3 343.37"/><polygon id="_318" data-name="318" class="cls-159" points="3228.1 343.57 3229.31 343.88 3163.11 609.73 3161.9 609.43 3228.1 343.57"/><polygon id="_319" data-name="319" class="cls-158" points="3228.91 343.77 3230.12 344.08 3163.92 609.93 3162.71 609.63 3228.91 343.77"/><polygon id="_320" data-name="320" class="cls-157" points="3229.72 343.98 3230.93 344.28 3164.73 610.13 3163.52 609.83 3229.72 343.98"/><polygon id="_321" data-name="321" class="cls-156" points="3230.53 344.18 3231.74 344.48 3165.54 610.34 3164.33 610.03 3230.53 344.18"/><polygon id="_322" data-name="322" class="cls-155" points="3231.33 344.38 3232.55 344.68 3166.34 610.54 3165.13 610.24 3231.33 344.38"/><polygon id="_323" data-name="323" class="cls-154" points="3232.14 344.58 3233.35 344.88 3167.15 610.74 3165.94 610.44 3232.14 344.58"/><polygon id="_324" data-name="324" class="cls-153" points="3232.95 344.78 3234.16 345.08 3167.96 610.94 3166.75 610.64 3232.95 344.78"/><polygon id="_325" data-name="325" class="cls-152" points="3233.76 344.98 3234.97 345.28 3168.77 611.14 3167.56 610.84 3233.76 344.98"/><polygon id="_326" data-name="326" class="cls-151" points="3234.56 345.18 3235.78 345.48 3169.58 611.34 3168.36 611.04 3234.56 345.18"/><polygon id="_327" data-name="327" class="cls-150" points="3235.37 345.38 3236.58 345.69 3170.38 611.54 3169.17 611.24 3235.37 345.38"/><polygon id="_328" data-name="328" class="cls-149" points="3236.18 345.58 3237.39 345.89 3171.19 611.74 3169.98 611.44 3236.18 345.58"/><polygon id="_329" data-name="329" class="cls-148" points="3236.99 345.79 3238.2 346.09 3172 611.95 3170.79 611.64 3236.99 345.79"/><polygon id="_330" data-name="330" class="cls-147" points="3237.8 345.99 3239.01 346.29 3172.81 612.15 3171.59 611.85 3237.8 345.99"/><polygon id="_331" data-name="331" class="cls-146" points="3238.6 346.19 3239.81 346.49 3173.61 612.35 3172.4 612.05 3238.6 346.19"/><polygon id="_332" data-name="332" class="cls-145" points="3239.41 346.39 3240.62 346.69 3174.42 612.55 3173.21 612.25 3239.41 346.39"/><polygon id="_333" data-name="333" class="cls-144" points="3240.22 346.59 3241.43 346.89 3175.23 612.75 3174.02 612.45 3240.22 346.59"/><polygon id="_334" data-name="334" class="cls-143" points="3241.03 346.79 3242.24 347.09 3176.04 612.95 3174.83 612.65 3241.03 346.79"/><polygon id="_335" data-name="335" class="cls-142" points="3241.83 346.99 3243.05 347.3 3176.84 613.15 3175.63 612.85 3241.83 346.99"/><polygon id="_336" data-name="336" class="cls-141" points="3242.64 347.19 3243.85 347.5 3177.65 613.35 3176.44 613.05 3242.64 347.19"/><polygon id="_337" data-name="337" class="cls-141" points="3243.45 347.39 3244.66 347.7 3178.46 613.55 3177.25 613.25 3243.45 347.39"/><polygon id="_338" data-name="338" class="cls-140" points="3244.26 347.6 3245.47 347.9 3179.27 613.75 3178.06 613.45 3244.26 347.6"/><polygon id="_339" data-name="339" class="cls-140" points="3245.06 347.8 3246.28 348.1 3180.08 613.96 3178.86 613.65 3245.06 347.8"/><polygon id="_340" data-name="340" class="cls-139" points="3245.87 348 3247.08 348.3 3180.88 614.16 3179.67 613.86 3245.87 348"/><polygon id="_341" data-name="341" class="cls-139" points="3246.68 348.2 3247.89 348.5 3181.69 614.36 3180.48 614.06 3246.68 348.2"/><polygon id="_342" data-name="342" class="cls-138" points="3247.49 348.4 3248.7 348.7 3182.5 614.56 3181.29 614.26 3247.49 348.4"/><polygon id="_343" data-name="343" class="cls-137" points="3248.3 348.6 3249.51 348.9 3183.31 614.76 3182.09 614.46 3248.3 348.6"/><polygon id="_344" data-name="344" class="cls-136" points="3249.1 348.8 3250.31 349.11 3184.11 614.96 3182.9 614.66 3249.1 348.8"/><polygon id="_345" data-name="345" class="cls-136" points="3249.91 349 3251.12 349.31 3184.92 615.16 3183.71 614.86 3249.91 349"/><polygon id="_346" data-name="346" class="cls-135" points="3250.72 349.2 3251.93 349.51 3185.73 615.36 3184.52 615.06 3250.72 349.2"/><polygon id="_347" data-name="347" class="cls-134" points="3251.53 349.41 3252.74 349.71 3186.54 615.57 3185.33 615.26 3251.53 349.41"/><polygon id="_348" data-name="348" class="cls-133" points="3252.33 349.61 3253.55 349.91 3187.34 615.77 3186.13 615.47 3252.33 349.61"/><polygon id="_349" data-name="349" class="cls-132" points="3253.14 349.81 3254.35 350.11 3188.15 615.97 3186.94 615.67 3253.14 349.81"/><polygon id="_350" data-name="350" class="cls-132" points="3253.95 350.01 3255.16 350.31 3188.96 616.17 3187.75 615.87 3253.95 350.01"/><polygon id="_351" data-name="351" class="cls-131" points="3254.76 350.21 3255.97 350.51 3189.77 616.37 3188.56 616.07 3254.76 350.21"/><polygon id="_352" data-name="352" class="cls-131" points="3255.56 350.41 3256.78 350.71 3190.58 616.57 3189.36 616.27 3255.56 350.41"/><polygon id="_353" data-name="353" class="cls-130" points="3256.37 350.61 3257.58 350.92 3191.38 616.77 3190.17 616.47 3256.37 350.61"/><polygon id="_354" data-name="354" class="cls-130" points="3257.18 350.81 3258.39 351.12 3192.19 616.97 3190.98 616.67 3257.18 350.81"/><polygon id="_355" data-name="355" class="cls-129" points="3257.99 351.01 3259.2 351.32 3193 617.17 3191.79 616.87 3257.99 351.01"/><polygon id="_356" data-name="356" class="cls-129" points="3258.8 351.22 3260.01 351.52 3193.81 617.38 3192.59 617.07 3258.8 351.22"/><polygon id="_357" data-name="357" class="cls-128" points="3259.6 351.42 3260.82 351.72 3194.61 617.58 3193.4 617.27 3259.6 351.42"/><polygon id="_358" data-name="358" class="cls-127" points="3260.41 351.62 3261.62 351.92 3195.42 617.78 3194.21 617.48 3260.41 351.62"/><polygon id="_359" data-name="359" class="cls-126" points="3261.22 351.82 3262.43 352.12 3196.23 617.98 3195.02 617.68 3261.22 351.82"/><polygon id="_360" data-name="360" class="cls-125" points="3262.03 352.02 3263.24 352.32 3197.04 618.18 3195.83 617.88 3262.03 352.02"/><polygon id="_361" data-name="361" class="cls-124" points="3262.83 352.22 3264.05 352.52 3197.84 618.38 3196.63 618.08 3262.83 352.22"/><polygon id="_362" data-name="362" class="cls-124" points="3263.64 352.42 3264.85 352.73 3198.65 618.58 3197.44 618.28 3263.64 352.42"/><polygon id="_363" data-name="363" class="cls-123" points="3264.45 352.62 3265.66 352.93 3199.46 618.78 3198.25 618.48 3264.45 352.62"/><polygon id="_364" data-name="364" class="cls-122" points="3265.26 352.82 3266.47 353.13 3200.27 618.99 3199.06 618.68 3265.26 352.82"/><polygon id="_365" data-name="365" class="cls-121" points="3266.06 353.03 3267.28 353.33 3201.08 619.19 3199.86 618.88 3266.06 353.03"/><polygon id="_366" data-name="366" class="cls-120" points="3266.87 353.23 3268.08 353.53 3201.88 619.39 3200.67 619.09 3266.87 353.23"/><polygon id="_367" data-name="367" class="cls-120" points="3267.68 353.43 3268.89 353.73 3202.69 619.59 3201.48 619.29 3267.68 353.43"/><polygon id="_368" data-name="368" class="cls-119" points="3268.49 353.63 3269.7 353.93 3203.5 619.79 3202.29 619.49 3268.49 353.63"/><polygon id="_369" data-name="369" class="cls-119" points="3269.3 353.83 3270.51 354.13 3204.31 619.99 3203.09 619.69 3269.3 353.83"/><polygon id="_370" data-name="370" class="cls-118" points="3270.1 354.03 3271.32 354.33 3205.11 620.19 3203.9 619.89 3270.1 354.03"/><polygon id="_371" data-name="371" class="cls-118" points="3270.91 354.23 3272.12 354.54 3205.92 620.39 3204.71 620.09 3270.91 354.23"/><polygon id="_372" data-name="372" class="cls-117" points="3271.72 354.43 3272.93 354.74 3206.73 620.59 3205.52 620.29 3271.72 354.43"/><polygon id="_373" data-name="373" class="cls-116" points="3272.53 354.63 3273.74 354.94 3207.54 620.79 3206.33 620.49 3272.53 354.63"/><polygon id="_374" data-name="374" class="cls-115" points="3273.33 354.84 3274.55 355.14 3208.34 621 3207.13 620.69 3273.33 354.84"/><polygon id="_375" data-name="375" class="cls-114" points="3274.14 355.04 3275.35 355.34 3209.15 621.2 3207.94 620.89 3274.14 355.04"/><polygon id="_376" data-name="376" class="cls-113" points="3274.95 355.24 3276.16 355.54 3209.96 621.4 3208.75 621.1 3274.95 355.24"/><polygon id="_377" data-name="377" class="cls-113" points="3275.76 355.44 3276.97 355.74 3210.77 621.6 3209.56 621.3 3275.76 355.44"/><polygon id="_378" data-name="378" class="cls-112" points="3276.57 355.64 3277.78 355.94 3211.58 621.8 3210.36 621.5 3276.57 355.64"/><polygon id="_379" data-name="379" class="cls-112" points="3277.37 355.84 3278.58 356.14 3212.38 622 3211.17 621.7 3277.37 355.84"/><polygon id="_380" data-name="380" class="cls-111" points="3278.18 356.04 3279.39 356.35 3213.19 622.2 3211.98 621.9 3278.18 356.04"/><polygon id="_381" data-name="381" class="cls-110" points="3278.99 356.24 3280.2 356.55 3214 622.4 3212.79 622.1 3278.99 356.24"/><polygon id="_382" data-name="382" class="cls-110" points="3279.8 356.45 3281.01 356.75 3214.81 622.61 3213.59 622.3 3279.8 356.45"/><polygon id="_383" data-name="383" class="cls-109" points="3280.6 356.65 3281.82 356.95 3215.61 622.81 3214.4 622.5 3280.6 356.65"/><polygon id="_384" data-name="384" class="cls-109" points="3281.41 356.85 3282.62 357.15 3216.42 623.01 3215.21 622.71 3281.41 356.85"/><polygon id="_385" data-name="385" class="cls-108" points="3282.22 357.05 3283.43 357.35 3217.23 623.21 3216.02 622.91 3282.22 357.05"/><polygon id="_386" data-name="386" class="cls-107" points="3283.03 357.25 3284.24 357.55 3218.04 623.41 3216.83 623.11 3283.03 357.25"/><polygon id="_387" data-name="387" class="cls-106" points="3283.83 357.45 3285.05 357.75 3218.84 623.61 3217.63 623.31 3283.83 357.45"/><polygon id="_388" data-name="388" class="cls-105" points="3284.64 357.65 3285.85 357.95 3219.65 623.81 3218.44 623.51 3284.64 357.65"/><polygon id="_389" data-name="389" class="cls-104" points="3285.45 357.85 3286.66 358.15 3220.46 624.01 3219.25 623.71 3285.45 357.85"/><polygon id="_390" data-name="390" class="cls-104" points="3286.26 358.05 3287.47 358.36 3221.27 624.21 3220.06 623.91 3286.26 358.05"/><polygon id="_391" data-name="391" class="cls-103" points="3287.07 358.26 3288.28 358.56 3222.08 624.41 3220.86 624.11 3287.07 358.26"/><polygon id="_392" data-name="392" class="cls-103" points="3287.87 358.46 3289.08 358.76 3222.88 624.62 3221.67 624.31 3287.87 358.46"/><polygon id="_393" data-name="393" class="cls-102" points="3288.68 358.66 3289.89 358.96 3223.69 624.82 3222.48 624.51 3288.68 358.66"/><polygon id="_394" data-name="394" class="cls-102" points="3289.49 358.86 3290.7 359.16 3224.5 625.02 3223.29 624.72 3289.49 358.86"/><polygon id="_395" data-name="395" class="cls-101" points="3290.3 359.06 3291.51 359.36 3225.31 625.22 3224.09 624.92 3290.3 359.06"/><polygon id="_396" data-name="396" class="cls-100" points="3291.1 359.26 3292.32 359.56 3226.11 625.42 3224.9 625.12 3291.1 359.26"/><polygon id="_397" data-name="397" class="cls-99" points="3291.91 359.46 3293.12 359.76 3226.92 625.62 3225.71 625.32 3291.91 359.46"/><polygon id="_398" data-name="398" class="cls-98" points="3292.72 359.66 3293.93 359.96 3227.73 625.82 3226.52 625.52 3292.72 359.66"/><polygon id="_399" data-name="399" class="cls-98" points="3293.53 359.87 3294.74 360.17 3228.54 626.02 3227.33 625.72 3293.53 359.87"/><polygon id="_400" data-name="400" class="cls-97" points="3294.33 360.07 3295.55 360.37 3229.34 626.23 3228.13 625.92 3294.33 360.07"/><polygon id="_401" data-name="401" class="cls-96" points="3295.14 360.27 3296.35 360.57 3230.15 626.43 3228.94 626.12 3295.14 360.27"/><polygon id="_402" data-name="402" class="cls-95" points="3295.95 360.47 3297.16 360.77 3230.96 626.63 3229.75 626.33 3295.95 360.47"/><polygon id="_403" data-name="403" class="cls-94" points="3296.76 360.67 3297.97 360.97 3231.77 626.83 3230.56 626.53 3296.76 360.67"/><polygon id="_404" data-name="404" class="cls-93" points="3297.57 360.87 3298.78 361.17 3232.58 627.03 3231.36 626.73 3297.57 360.87"/><polygon id="_405" data-name="405" class="cls-93" points="3298.37 361.07 3299.58 361.37 3233.38 627.23 3232.17 626.93 3298.37 361.07"/><polygon id="_406" data-name="406" class="cls-92" points="3299.18 361.27 3300.39 361.57 3234.19 627.43 3232.98 627.13 3299.18 361.27"/><polygon id="_407" data-name="407" class="cls-92" points="3299.99 361.47 3301.2 361.77 3235 627.63 3233.79 627.33 3299.99 361.47"/><polygon id="_408" data-name="408" class="cls-91" points="3300.8 361.68 3302.01 361.98 3235.81 627.83 3234.59 627.53 3300.8 361.68"/><polygon id="_409" data-name="409" class="cls-91" points="3301.6 361.88 3302.82 362.18 3236.61 628.03 3235.4 627.73 3301.6 361.88"/><polygon id="_410" data-name="410" class="cls-90" points="3302.41 362.08 3303.62 362.38 3237.42 628.24 3236.21 627.93 3302.41 362.08"/><polygon id="_411" data-name="411" class="cls-89" points="3303.22 362.28 3304.43 362.58 3238.23 628.44 3237.02 628.14 3303.22 362.28"/><polygon id="_412" data-name="412" class="cls-88" points="3304.03 362.48 3305.24 362.78 3239.04 628.64 3237.83 628.34 3304.03 362.48"/><polygon id="_413" data-name="413" class="cls-87" points="3304.83 362.68 3306.05 362.98 3239.84 628.84 3238.63 628.54 3304.83 362.68"/><polygon id="_414" data-name="414" class="cls-87" points="3305.64 362.88 3306.85 363.18 3240.65 629.04 3239.44 628.74 3305.64 362.88"/><polygon id="_415" data-name="415" class="cls-86" points="3306.45 363.08 3307.66 363.38 3241.46 629.24 3240.25 628.94 3306.45 363.08"/><polygon id="_416" data-name="416" class="cls-85" points="3307.26 363.28 3308.47 363.58 3242.27 629.44 3241.06 629.14 3307.26 363.28"/><polygon id="_417" data-name="417" class="cls-84" points="3308.07 363.49 3309.28 363.79 3243.08 629.64 3241.86 629.34 3308.07 363.49"/><polygon id="_418" data-name="418" class="cls-83" points="3308.87 363.69 3310.08 363.99 3243.88 629.85 3242.67 629.54 3308.87 363.69"/><polygon id="_419" data-name="419" class="cls-82" points="3309.68 363.89 3310.89 364.19 3244.69 630.05 3243.48 629.75 3309.68 363.89"/><polygon id="_420" data-name="420" class="cls-82" points="3310.49 364.09 3311.7 364.39 3245.5 630.25 3244.29 629.95 3310.49 364.09"/><polygon id="_421" data-name="421" class="cls-81" points="3311.3 364.29 3312.51 364.59 3246.31 630.45 3245.09 630.15 3311.3 364.29"/><polygon id="_422" data-name="422" class="cls-81" points="3312.1 364.49 3313.32 364.79 3247.11 630.65 3245.9 630.35 3312.1 364.49"/><polygon id="_423" data-name="423" class="cls-80" points="3312.91 364.69 3314.12 364.99 3247.92 630.85 3246.71 630.55 3312.91 364.69"/><polygon id="_424" data-name="424" class="cls-80" points="3313.72 364.89 3314.93 365.19 3248.73 631.05 3247.52 630.75 3313.72 364.89"/><polygon id="_425" data-name="425" class="cls-79" points="3314.53 365.09 3315.74 365.39 3249.54 631.25 3248.33 630.95 3314.53 365.09"/><polygon id="_426" data-name="426" class="cls-78" points="3315.33 365.3 3316.55 365.6 3250.34 631.45 3249.13 631.15 3315.33 365.3"/><polygon id="_427" data-name="427" class="cls-77" points="3316.14 365.5 3317.35 365.8 3251.15 631.65 3249.94 631.35 3316.14 365.5"/><polygon id="_428" data-name="428" class="cls-77" points="3316.95 365.7 3318.16 366 3251.96 631.86 3250.75 631.55 3316.95 365.7"/><polygon id="_429" data-name="429" class="cls-76" points="3317.76 365.9 3318.97 366.2 3252.77 632.06 3251.56 631.76 3317.76 365.9"/><polygon id="_430" data-name="430" class="cls-75" points="3318.57 366.1 3319.78 366.4 3253.58 632.26 3252.36 631.96 3318.57 366.1"/><polygon id="_431" data-name="431" class="cls-74" points="3319.37 366.3 3320.58 366.6 3254.38 632.46 3253.17 632.16 3319.37 366.3"/><polygon id="_432" data-name="432" class="cls-73" points="3320.18 366.5 3321.39 366.8 3255.19 632.66 3253.98 632.36 3320.18 366.5"/><polygon id="_433" data-name="433" class="cls-72" points="3320.99 366.7 3322.2 367 3256 632.86 3254.79 632.56 3320.99 366.7"/><polygon id="_434" data-name="434" class="cls-71" points="3321.8 366.9 3323.01 367.21 3256.81 633.06 3255.59 632.76 3321.8 366.9"/><polygon id="_435" data-name="435" class="cls-71" points="3322.6 367.11 3323.82 367.41 3257.61 633.26 3256.4 632.96 3322.6 367.11"/><polygon id="_436" data-name="436" class="cls-70" points="3323.41 367.31 3324.62 367.61 3258.42 633.47 3257.21 633.16 3323.41 367.31"/><polygon id="_437" data-name="437" class="cls-70" points="3324.22 367.51 3325.43 367.81 3259.23 633.67 3258.02 633.37 3324.22 367.51"/><polygon id="_438" data-name="438" class="cls-69" points="3325.03 367.71 3326.24 368.01 3260.04 633.87 3258.83 633.57 3325.03 367.71"/><polygon id="_439" data-name="439" class="cls-69" points="3325.83 367.91 3327.05 368.21 3260.84 634.07 3259.63 633.77 3325.83 367.91"/><polygon id="_440" data-name="440" class="cls-68" points="3326.64 368.11 3327.85 368.41 3261.65 634.27 3260.44 633.97 3326.64 368.11"/><polygon id="_441" data-name="441" class="cls-67" points="3327.45 368.31 3328.66 368.61 3262.46 634.47 3261.25 634.17 3327.45 368.31"/><polygon id="_442" data-name="442" class="cls-66" points="3328.26 368.51 3329.47 368.81 3263.27 634.67 3262.06 634.37 3328.26 368.51"/><polygon id="_443" data-name="443" class="cls-65" points="3329.07 368.71 3330.28 369.02 3264.08 634.87 3262.86 634.57 3329.07 368.71"/><polygon id="_444" data-name="444" class="cls-64" points="3329.87 368.92 3331.08 369.22 3264.88 635.07 3263.67 634.77 3329.87 368.92"/><polygon id="_445" data-name="445" class="cls-64" points="3330.68 369.12 3331.89 369.42 3265.69 635.27 3264.48 634.97 3330.68 369.12"/><polygon id="_446" data-name="446" class="cls-63" points="3331.49 369.32 3332.7 369.62 3266.5 635.48 3265.29 635.17 3331.49 369.32"/><polygon id="_447" data-name="447" class="cls-62" points="3332.3 369.52 3333.51 369.82 3267.31 635.68 3266.09 635.38 3332.3 369.52"/><polygon id="_448" data-name="448" class="cls-61" points="3333.1 369.72 3334.32 370.02 3268.11 635.88 3266.9 635.58 3333.1 369.72"/><polygon id="_449" data-name="449" class="cls-60" points="3333.91 369.92 3335.12 370.22 3268.92 636.08 3267.71 635.78 3333.91 369.92"/><polygon id="_450" data-name="450" class="cls-60" points="3334.72 370.12 3335.93 370.42 3269.73 636.28 3268.52 635.98 3334.72 370.12"/><polygon id="_451" data-name="451" class="cls-59" points="3335.53 370.32 3336.74 370.63 3270.54 636.48 3269.33 636.18 3335.53 370.32"/><polygon id="_452" data-name="452" class="cls-59" points="3336.33 370.52 3337.55 370.83 3271.34 636.68 3270.13 636.38 3336.33 370.52"/><polygon id="_453" data-name="453" class="cls-58" points="3337.14 370.73 3338.35 371.03 3272.15 636.88 3270.94 636.58 3337.14 370.73"/><polygon id="_454" data-name="454" class="cls-58" points="3337.95 370.93 3339.16 371.23 3272.96 637.09 3271.75 636.78 3337.95 370.93"/><polygon id="_455" data-name="455" class="cls-57" points="3338.76 371.13 3339.97 371.43 3273.77 637.29 3272.56 636.99 3338.76 371.13"/><polygon id="_456" data-name="456" class="cls-56" points="3339.57 371.33 3340.78 371.63 3274.58 637.49 3273.36 637.19 3339.57 371.33"/><polygon id="_457" data-name="457" class="cls-55" points="3340.37 371.53 3341.58 371.83 3275.38 637.69 3274.17 637.39 3340.37 371.53"/><polygon id="_458" data-name="458" class="cls-54" points="3341.18 371.73 3342.39 372.03 3276.19 637.89 3274.98 637.59 3341.18 371.73"/><polygon id="_459" data-name="459" class="cls-53" points="3341.99 371.93 3343.2 372.23 3277 638.09 3275.79 637.79 3341.99 371.93"/><polygon id="_460" data-name="460" class="cls-53" points="3342.8 372.13 3344.01 372.44 3277.81 638.29 3276.59 637.99 3342.8 372.13"/><polygon id="_461" data-name="461" class="cls-52" points="3343.6 372.33 3344.82 372.64 3278.61 638.49 3277.4 638.19 3343.6 372.33"/><polygon id="_462" data-name="462" class="cls-52" points="3344.41 372.54 3345.62 372.84 3279.42 638.7 3278.21 638.39 3344.41 372.54"/><polygon id="_463" data-name="463" class="cls-51" points="3345.22 372.74 3346.43 373.04 3280.23 638.9 3279.02 638.59 3345.22 372.74"/><polygon id="_464" data-name="464" class="cls-50" points="3346.03 372.94 3347.24 373.24 3281.04 639.1 3279.83 638.79 3346.03 372.94"/><polygon id="_465" data-name="465" class="cls-50" points="3346.83 373.14 3348.05 373.44 3281.84 639.3 3280.63 639 3346.83 373.14"/><polygon id="_466" data-name="466" class="cls-49" points="3347.64 373.34 3348.85 373.64 3282.65 639.5 3281.44 639.2 3347.64 373.34"/><polygon id="_467" data-name="467" class="cls-49" points="3348.45 373.54 3349.66 373.84 3283.46 639.7 3282.25 639.4 3348.45 373.54"/><polygon id="_468" data-name="468" class="cls-48" points="3349.26 373.74 3350.47 374.04 3284.27 639.9 3283.06 639.6 3349.26 373.74"/><polygon id="_469" data-name="469" class="cls-48" points="3350.07 373.94 3351.28 374.25 3285.08 640.1 3283.86 639.8 3350.07 373.94"/><polygon id="_470" data-name="470" class="cls-47" points="3350.87 374.14 3352.08 374.45 3285.88 640.3 3284.67 640 3350.87 374.14"/><polygon id="_471" data-name="471" class="cls-46" points="3351.68 374.35 3352.89 374.65 3286.69 640.5 3285.48 640.2 3351.68 374.35"/><polygon id="_472" data-name="472" class="cls-45" points="3352.49 374.55 3353.7 374.85 3287.5 640.71 3286.29 640.4 3352.49 374.55"/><polygon id="_473" data-name="473" class="cls-45" points="3353.3 374.75 3354.51 375.05 3288.31 640.91 3287.09 640.61 3353.3 374.75"/><polygon id="_474" data-name="474" class="cls-44" points="3354.1 374.95 3355.32 375.25 3289.11 641.11 3287.9 640.81 3354.1 374.95"/><polygon id="_475" data-name="475" class="cls-44" points="3354.91 375.15 3356.12 375.45 3289.92 641.31 3288.71 641.01 3354.91 375.15"/><polygon id="_476" data-name="476" class="cls-43" points="3355.72 375.35 3356.93 375.65 3290.73 641.51 3289.52 641.21 3355.72 375.35"/><polygon id="_477" data-name="477" class="cls-43" points="3356.53 375.55 3357.74 375.85 3291.54 641.71 3290.33 641.41 3356.53 375.55"/><polygon id="_478" data-name="478" class="cls-42" points="3357.33 375.75 3358.55 376.06 3292.34 641.91 3291.13 641.61 3357.33 375.75"/><polygon id="_479" data-name="479" class="cls-41" points="3358.14 375.95 3359.35 376.26 3293.15 642.11 3291.94 641.81 3358.14 375.95"/><polygon id="_480" data-name="480" class="cls-41" points="3358.95 376.15 3360.16 376.46 3293.96 642.32 3292.75 642.01 3358.95 376.15"/><polygon id="_481" data-name="481" class="cls-40" points="3359.76 376.36 3360.97 376.66 3294.77 642.52 3293.56 642.21 3359.76 376.36"/><polygon id="_482" data-name="482" class="cls-40" points="3360.57 376.56 3361.78 376.86 3295.58 642.72 3294.36 642.41 3360.57 376.56"/><polygon id="_483" data-name="483" class="cls-39" points="3361.37 376.76 3362.58 377.06 3296.38 642.92 3295.17 642.62 3361.37 376.76"/><polygon id="_484" data-name="484" class="cls-38" points="3362.18 376.96 3363.39 377.26 3297.19 643.12 3295.98 642.82 3362.18 376.96"/><polygon id="_485" data-name="485" class="cls-37" points="3362.99 377.16 3364.2 377.46 3298 643.32 3296.79 643.02 3362.99 377.16"/><polygon id="_486" data-name="486" class="cls-36" points="3363.8 377.36 3365.01 377.66 3298.81 643.52 3297.59 643.22 3363.8 377.36"/><polygon id="_487" data-name="487" class="cls-35" points="3364.6 377.56 3365.82 377.87 3299.61 643.72 3298.4 643.42 3364.6 377.56"/><polygon id="_488" data-name="488" class="cls-35" points="3365.41 377.76 3366.62 378.07 3300.42 643.92 3299.21 643.62 3365.41 377.76"/><polygon id="_489" data-name="489" class="cls-34" points="3366.22 377.97 3367.43 378.27 3301.23 644.13 3300.02 643.82 3366.22 377.97"/><polygon id="_490" data-name="490" class="cls-34" points="3367.03 378.17 3368.24 378.47 3302.04 644.33 3300.83 644.02 3367.03 378.17"/><polygon id="_491" data-name="491" class="cls-33" points="3367.83 378.37 3369.05 378.67 3302.84 644.53 3301.63 644.23 3367.83 378.37"/><polygon id="_492" data-name="492" class="cls-33" points="3368.64 378.57 3369.85 378.87 3303.65 644.73 3302.44 644.43 3368.64 378.57"/><polygon id="_493" data-name="493" class="cls-32" points="3369.45 378.77 3370.66 379.07 3304.46 644.93 3303.25 644.63 3369.45 378.77"/><polygon id="_494" data-name="494" class="cls-31" points="3370.26 378.97 3371.47 379.27 3305.27 645.13 3304.06 644.83 3370.26 378.97"/><polygon id="_495" data-name="495" class="cls-30" points="3371.07 379.17 3372.28 379.47 3306.08 645.33 3304.86 645.03 3371.07 379.17"/><polygon id="_496" data-name="496" class="cls-29" points="3371.87 379.37 3373.08 379.68 3306.88 645.53 3305.67 645.23 3371.87 379.37"/><polygon id="_497" data-name="497" class="cls-29" points="3372.68 379.57 3373.89 379.88 3307.69 645.73 3306.48 645.43 3372.68 379.57"/><polygon id="_498" data-name="498" class="cls-28" points="3373.49 379.78 3374.7 380.08 3308.5 645.93 3307.29 645.63 3373.49 379.78"/><polygon id="_499" data-name="499" class="cls-27" points="3374.3 379.98 3375.51 380.28 3309.31 646.14 3308.09 645.83 3374.3 379.98"/><polygon id="_500" data-name="500" class="cls-26" points="3375.1 380.18 3376.32 380.48 3310.11 646.34 3308.9 646.03 3375.1 380.18"/><polygon id="_501" data-name="501" class="cls-25" points="3375.91 380.38 3377.12 380.68 3310.92 646.54 3309.71 646.24 3375.91 380.38"/><polygon id="_502" data-name="502" class="cls-24" points="3376.72 380.58 3377.93 380.88 3311.73 646.74 3310.52 646.44 3376.72 380.58"/><polygon id="_503" data-name="503" class="cls-24" points="3377.53 380.78 3378.74 381.08 3312.54 646.94 3311.33 646.64 3377.53 380.78"/><polygon id="_504" data-name="504" class="cls-23" points="3378.33 380.98 3379.55 381.28 3313.34 647.14 3312.13 646.84 3378.33 380.98"/><polygon id="_505" data-name="505" class="cls-23" points="3379.14 381.18 3380.35 381.49 3314.15 647.34 3312.94 647.04 3379.14 381.18"/><polygon id="_506" data-name="506" class="cls-22" points="3379.95 381.38 3381.16 381.69 3314.96 647.54 3313.75 647.24 3379.95 381.38"/><polygon id="_507" data-name="507" class="cls-22" points="3380.76 381.59 3381.97 381.89 3315.77 647.75 3314.56 647.44 3380.76 381.59"/><polygon id="_508" data-name="508" class="cls-21" points="3381.57 381.79 3382.78 382.09 3316.58 647.95 3315.36 647.64 3381.57 381.79"/><polygon id="_509" data-name="509" class="cls-20" points="3382.37 381.99 3383.58 382.29 3317.38 648.15 3316.17 647.85 3382.37 381.99"/><polygon id="_510" data-name="510" class="cls-17" points="3383.18 382.19 3384.39 382.49 3318.19 648.35 3316.98 648.05 3383.18 382.19"/><polygon id="_511" data-name="511" class="cls-18" points="3383.99 382.39 3385.2 382.69 3319 648.55 3317.79 648.25 3383.99 382.39"/><polygon id="_512" data-name="512" class="cls-19" points="3384.8 382.59 3386.01 382.89 3319.81 648.75 3318.59 648.45 3384.8 382.59"/><polygon id="_513" data-name="513" class="cls-18" points="3385.6 382.79 3386.82 383.09 3320.61 648.95 3319.4 648.65 3385.6 382.79"/><polygon id="_514" data-name="514" class="cls-17" points="3386.41 382.99 3385.86 382.86 3319.66 648.71 3320.21 648.85 3386.41 382.99"/></g><path id="_515" data-name="515" class="cls-221" d="M3017.14,291.89l322.57,79.54a47.1,47.1,0,0,1,34.36,56.84l-42.9,174a47.1,47.1,0,0,1-56.84,34.36L2951.76,557a47.1,47.1,0,0,1-34.36-56.84l42.89-174a47.1,47.1,0,0,1,56.85-34.35Z"/><path class="cls-222" d="M3016.75,211.14l360.84,89a53.74,53.74,0,0,1,39.2,64.85l-89,360.84A53.74,53.74,0,0,1,3263,765l-360.84-89a53.75,53.75,0,0,1-39.2-64.85l89-360.84A53.73,53.73,0,0,1,3016.75,211.14ZM3312.59,585.9c20.17-99.91-41.27-201.65-141.16-226.28s-203.54,36.55-230,134.88h0l7.2,2.2c4.08,1.35,5.64,1,7.22-.8,1.95-2.64,2.89-6.58,4.19-9.76,1.21-3,2.39-6.15,3.66-9.09,2-4.65,5.37-13.36,9.48-14.6a5.22,5.22,0,0,1,6.78,4c1.41,5.67-1.77,22.74-2.7,29.13L2974,515.94c.38-.37,11.36-33.87,14.3-40.63,1.57-3.62,4.05-8.56,8.1-7.91,4.86.78,4.94,5.9,4.71,10-.24,4.64-1,9.25-1.65,14-.62,4.42-1.4,9.7-2.26,14.21-.91,4.8-1.38,9.73-2.41,14.45.4-.3,0,.29.54-.54l3.87-11.51c1.21-4,2.85-8.24,4.12-12.28,1.74-5.55,6.41-19,9.73-21.9,3.68-3.28,9.89-.45,6.5,4.77a260.63,260.63,0,0,0-12.43,32.05c-2.08,6.33-9.73,31.68-14.34,35.56-3,2.53-7,1.42-8.24-2.6-2-6.64,3.17-29.48,4.31-38.29l1.52-9.46a12.1,12.1,0,0,0,.28-1.72l0-1.38c-.77,2.64-1.66,4.85-2.53,7.52-.78,2.41-1.51,4.91-2.41,7.33-1.79,4.83-3.16,9.77-4.91,14.52s-5.62,17.56-9.81,19.77a5,5,0,0,1-6-1.14c-3.82-4.4.55-22.22,1.39-29.37.34-2.89,4.85-28.91,4.8-30.1-.85.62-3,6.82-3.67,8.56-1.24,3-2.57,6.64-4,9.33-3.83,7.08-6.89,8.15-16.61,5.21l-6.44-1.74c-3.84-1-5.87-1.15-7.34-4.34-.73-1.77-.39-3.16.12-5.2,25.71-103.18,143.2-180.38,244.09-155.5,100.31,24.73,168.41,148.17,143.28,251.16-.49,2-.84,3.44-2.31,4.66-2.78,2.14-4.73,1-8.51.43l.05-.14h0c-6.48-1.45-3.79-.83-6.52-1.45-10-1.91-12.18-4.29-12.28-12.33-.05-3.07.46-6.91.76-10.14.17-1.87,1.2-8.35.73-9.29-.59,1-8.7,26.17-9.74,28.88-2.58,6.72-7,24.53-12.42,26.65a5,5,0,0,1-5.83-1.77c-2.68-3.91-.15-17.14.5-22.07s1.75-10,2.41-15.13c.33-2.57.84-5.12,1.27-7.61.47-2.77.71-5.15,1.26-7.84l-.68,1.2a14.66,14.66,0,0,0-.55,1.66l-3.05,9.08c-3.09,8.33-9.13,30.95-14,35.91-2.94,3-7,2.1-8.51-1.53-2.28-5.58,2.73-31.58,3.83-38.16a259.18,259.18,0,0,0,3.9-34.15c-.57-6.19,6.23-5.82,8-1.2,1.57,4.15-.53,18.19-1.56,23.91-.76,4.17-1.26,8.66-2.07,12.79l-1.92,12c.11,1,0,.28.23.73,1.28-4.65,3.16-9.24,4.58-13.92,1.33-4.39,3.1-9.43,4.61-13.63,1.61-4.48,3.09-8.91,5-13.14,1.72-3.76,4.17-8.26,8.83-6.69,3.89,1.31,3.79,6.83,3.5,10.77-.54,7.35-6.39,42.12-6.22,42.62l6.53-19.59c2.15-6.1,7.27-22.69,11.16-27.06a5.22,5.22,0,0,1,7.84-.35c3.06,3,2,12.29,1.6,17.34-.24,3.19-.67,6.54-1,9.75-.33,3.41-1.32,7.34-.83,10.59.55,2.35,1.79,3.36,6,4.06l7.39,1.4h0l.05-.12Z"/><path class="cls-223" d="M3082.33,529.6c.44-2.83,3.28-13.48,4.27-17.5.88-3.58,1.58-6.18,4-8.38a8.26,8.26,0,0,1,7.88-1.66c7.89,2,7,8.84,5.61,14.57-1,3.83-3.45,14.79-4.32,17.29l-17.42-4.32Zm17.56,45.09c1.19-1.71,6.28-24.12,7.29-28.22,2.35-9.54,4.84-19.11,7.07-28.66,1.1-4.72,1.21-8.26.14-12.3-2.06-7.86-9-12.57-17.14-13.35a17.09,17.09,0,0,0-10.63,2.28,20,20,0,0,0-7.33,8.09c-2,4-2.87,8.89-4,13.44l-10.63,43.09c-2.05,8.33-2.71,6.64,5.55,8.71,3.33.83,2.86-.84,3.64-4,1.31-5.3,4.94-21.28,6.22-25l17.39,4.31c-.15,1.7-5.49,22.65-6.4,26.31-.34,1.37-1.05,2.86.3,3.56,1.5.77,7.18,2,8.52,1.79Z"/><path class="cls-223" d="M3139.17,512.17c2.44.44,9.21,2,11.07,3.15a8.51,8.51,0,0,1,4.05,7.48c.11,4.08-4,18.28-5.23,23.29s-4.24,19.6-6.23,23c-1.59,2.73-4,4.58-7.1,4.69-2,.08-9-1.71-11.16-2.42Zm14.24,58c1.25-3.33,6-23.44,7.22-28.58,2.34-9.53,5.6-18,2.36-25.92a16.72,16.72,0,0,0-6.81-8.11c-3.71-2.32-8.41-3.13-12.88-4.23-5.2-1.28-10.15-3.62-12.2,0-1,1.73-12.5,49.84-14.34,57.31-4.69,19-6.11,17.13,6.73,20.3,4.33,1.06,9.35,2.71,13.54,2.46,7.35-.43,13.35-5.24,16.38-13.27Z"/><path class="cls-223" d="M3034.29,517.54c.83-3.95,4.59-20,6-22.67,4.14-7.7,13.12-5.47,15.42-.65,1.52,3.19,1.48,5.53.39,9.94-.8,3.23-1.9,9.07-3.35,11.64-4.11,7.24-10,4.12-18.5,1.74Zm-2.24,9.17,8.76,2.13c.33,4.55,1.41,16,2,20.86,1.66,13.12.14,11.35,5.45,12.66,7.33,1.8,6.48,2.51,5.13-7.58-.42-3.12-3-24.64-3-26,2-1.12,4.15-.89,8.09-4.78a17.16,17.16,0,0,0,5.25-8.45c2.48-8.37,4.62-16.65,1.94-23.56-5.45-14.06-25.68-16.32-33.56-2.9-3.48,5.91-5.3,16.49-7.12,23.88-.65,2.63-9.91,39.46-9.81,40.34s.93,1.09,2.08,1.37c6.24,1.54,7.16,2.67,8-.7,1.42-5.81,5.32-22.79,6.77-27.31Z"/><path class="cls-223" d="M3196,579.83c.33-2.55,8.72-35.75,9.55-39.11,1.57-6.32,4.85-10.36,10.85-9.71,6.32.68,9.2,5.83,8.28,11.49-.5,3.06-3.73,15.35-4.71,19.33q-2.43,9.82-4.85,19.64c-.76,3.13-1.61,5.68-3.66,7.51a8.39,8.39,0,0,1-7,2.32C3197.88,590.4,3195.24,585.63,3196,579.83Zm-9.51-4.1c-1.75,9.36.76,16.3,6.54,20.77a21.09,21.09,0,0,0,12.18,4.24A18.49,18.49,0,0,0,3215.8,598c7.59-4.63,8.66-12.08,11.24-22.53,2.36-9.56,5-19.38,7.13-29,4.78-22-18.2-29.75-29.41-22.15-7.57,5.14-8.59,11.85-11.2,22.45L3190,561.24c-1.14,4.65-2.67,9.85-3.53,14.49Z"/><path class="cls-223" d="M3184.48,513.42c-1.87-.44-4.55-1.26-4.87,0-.33,1.15-14.53,58.66-16.38,66.17-1.16,4.69-1.86,7.4-2.2,8.94-.52,2.33,1.42,2,4.4,2.86,3.52.68,4.86,1.81,5.36-.4.37-1.65,1.1-4.68,2.48-10.28,1.21-4.91,5.16-20.89,8.83-35.83,3.34-13.67,6.36-26.49,7-29.14.33-1.48-3.18-1.94-4.59-2.36Z"/><path class="cls-224" d="M2834.28,424.07q4.06-19.5,9.07-38.4c27.59,161.79,96,434.2,254.81,568.93a199.75,199.75,0,0,1-63.74-2.77C2870.3,917.64,2780.69,681.36,2834.28,424.07Z"/></svg>